<svg xmlns="http://www.w3.org/2000/svg" xmlns:xlink="http://www.w3.org/1999/xlink" contentStyleType="text/css" data-diagram-type="SEQUENCE" height="556px" preserveAspectRatio="none" style="width:794px;height:556px;background:#FFFFFF;" version="1.1" viewBox="0 0 794 556" width="794px" zoomAndPan="magnify"><title>Temperature monitoring application protocol - Example 3 - Request unknown room temperature</title><defs/><g><text fill="#000000" font-family="sans-serif" font-size="14" font-weight="bold" lengthAdjust="spacing" textLength="761.8789" x="15" y="27.9951">Temperature monitoring application protocol - Example 3 - Request unknown room temperature</text><g><title>Emitter 1</title><rect fill="#000000" fill-opacity="0.00000" height="291.0625" width="8" x="216.3625" y="73.5938"/><line style="stroke:#181818;stroke-width:0.5;stroke-dasharray:5,5;" x1="219.8625" x2="219.8625" y1="73.5938" y2="364.6563"/></g><g><title>Emitter 2</title><rect fill="#000000" fill-opacity="0.00000" height="291.0625" width="8" x="333.2605" y="73.5938"/><line style="stroke:#181818;stroke-width:0.5;stroke-dasharray:5,5;" x1="336.7605" x2="336.7605" y1="73.5938" y2="364.6563"/></g><g><title>Server</title><rect fill="#000000" fill-opacity="0.00000" height="291.0625" width="8" x="412.7546" y="73.5938"/><line style="stroke:#181818;stroke-width:0.5;stroke-dasharray:5,5;" x1="416.2546" x2="416.2546" y1="73.5938" y2="364.6563"/></g><g><title>Operator</title><rect fill="#000000" fill-opacity="0.00000" height="291.0625" width="8" x="570.7229" y="73.5938"/><line style="stroke:#181818;stroke-width:0.5;stroke-dasharray:5,5;" x1="574.2229" x2="574.2229" y1="73.5938" y2="364.6563"/></g><rect fill="#E2E2F0" height="30.2969" rx="2.5" ry="2.5" style="stroke:#181818;stroke-width:0.5;" width="79.0781" x="180.3235" y="42.2969"/><text fill="#000000" font-family="sans-serif" font-size="14" lengthAdjust="spacing" textLength="65.0781" x="187.3235" y="62.292">Emitter 1</text><rect fill="#E2E2F0" height="30.2969" rx="2.5" ry="2.5" style="stroke:#181818;stroke-width:0.5;" width="79.0781" x="297.2214" y="42.2969"/><text fill="#000000" font-family="sans-serif" font-size="14" lengthAdjust="spacing" textLength="65.0781" x="304.2214" y="62.292">Emitter 2</text><rect fill="#E2E2F0" height="30.2969" rx="2.5" ry="2.5" style="stroke:#181818;stroke-width:0.5;" width="59.9102" x="386.2996" y="42.2969"/><text fill="#000000" font-family="sans-serif" font-size="14" lengthAdjust="spacing" textLength="45.9102" x="393.2996" y="62.292">Server</text><rect fill="#E2E2F0" height="30.2969" rx="2.5" ry="2.5" style="stroke:#181818;stroke-width:0.5;" width="76.665" x="535.8904" y="42.2969"/><text fill="#000000" font-family="sans-serif" font-size="14" lengthAdjust="spacing" textLength="62.665" x="542.8904" y="62.292">Operator</text><rect fill="#E2E2F0" height="30.2969" rx="2.5" ry="2.5" style="stroke:#181818;stroke-width:0.5;" width="79.0781" x="180.3235" y="364.6563"/><text fill="#000000" font-family="sans-serif" font-size="14" lengthAdjust="spacing" textLength="65.0781" x="187.3235" y="384.6514">Emitter 1</text><rect fill="#E2E2F0" height="30.2969" rx="2.5" ry="2.5" style="stroke:#181818;stroke-width:0.5;" width="79.0781" x="297.2214" y="364.6563"/><text fill="#000000" font-family="sans-serif" font-size="14" lengthAdjust="spacing" textLength="65.0781" x="304.2214" y="384.6514">Emitter 2</text><rect fill="#E2E2F0" height="30.2969" rx="2.5" ry="2.5" style="stroke:#181818;stroke-width:0.5;" width="59.9102" x="386.2996" y="364.6563"/><text fill="#000000" font-family="sans-serif" font-size="14" lengthAdjust="spacing" textLength="45.9102" x="393.2996" y="384.6514">Server</text><rect fill="#E2E2F0" height="30.2969" rx="2.5" ry="2.5" style="stroke:#181818;stroke-width:0.5;" width="76.665" x="535.8904" y="364.6563"/><text fill="#000000" font-family="sans-serif" font-size="14" lengthAdjust="spacing" textLength="62.665" x="542.8904" y="384.6514">Operator</text><rect fill="#EEEEEE" height="3" style="stroke:#EEEEEE;stroke-width:1;" width="432.2319" x="180.3235" y="102.1602"/><line style="stroke:#000000;stroke-width:1;" x1="180.3235" x2="612.5554" y1="102.1602" y2="102.1602"/><line style="stroke:#000000;stroke-width:1;" x1="180.3235" x2="612.5554" y1="105.1602" y2="105.1602"/><rect fill="#EEEEEE" height="23.1328" style="stroke:#000000;stroke-width:2;" width="148.729" x="322.075" y="91.5938"/><text fill="#000000" font-family="sans-serif" font-size="13" font-weight="bold" lengthAdjust="spacing" textLength="130.2031" x="328.075" y="107.6606">Emit temperature</text><line style="stroke:#181818;stroke-width:1;stroke-dasharray:2,2;" x1="219.8625" x2="261.8625" y1="145.8594" y2="145.8594"/><line style="stroke:#181818;stroke-width:1;stroke-dasharray:2,2;" x1="261.8625" x2="261.8625" y1="145.8594" y2="158.8594"/><line style="stroke:#181818;stroke-width:1;stroke-dasharray:2,2;" x1="220.8625" x2="261.8625" y1="158.8594" y2="158.8594"/><polygon fill="#181818" points="230.8625,154.8594,220.8625,158.8594,230.8625,162.8594,226.8625,158.8594" style="stroke:#181818;stroke-width:1;"/><text fill="#000000" font-family="sans-serif" font-size="13" font-weight="bold" lengthAdjust="spacing" textLength="9.0454" x="226.8625" y="140.7935">1</text><path d="M245.2413,131.9427 C242.858,131.9427 240.908,133.8927 240.908,136.276 C240.908,138.6594 242.858,140.6094 245.2413,140.6094 C247.6246,140.6094 249.5746,138.6594 249.5746,136.276 C249.5746,133.8927 247.6246,131.9427 245.2413,131.9427 M245.2413,133.026 C247.0396,133.026 248.4913,134.4777 248.4913,136.276 C248.4913,138.0744 247.0396,139.526 245.2413,139.526 C243.443,139.526 241.9913,138.0744 241.9913,136.276 C241.9913,134.4777 243.443,133.026 245.2413,133.026 M244.6996,134.1094 L244.6996,136.5144 L244.873,136.6552 L245.4146,137.1969 L245.783,137.6085 L246.563,136.8285 L246.1513,136.4602 L245.783,136.0919 L245.783,134.131 L244.6996,134.131" fill="#000000"/><text fill="#000000" font-family="sans-serif" font-size="13" lengthAdjust="spacing" textLength="4.1323" x="250.5746" y="140.7935">&#160;</text><text fill="#000000" font-family="sans-serif" font-size="13" lengthAdjust="spacing" textLength="12.397" x="254.7069" y="140.7935">...</text><text fill="#000000" font-family="sans-serif" font-size="13" lengthAdjust="spacing" textLength="4.1323" x="267.1039" y="140.7935">&#160;</text><path d="M276.5696,131.9427 C274.1862,131.9427 272.2362,133.8927 272.2362,136.276 C272.2362,138.6594 274.1862,140.6094 276.5696,140.6094 C278.9529,140.6094 280.9029,138.6594 280.9029,136.276 C280.9029,133.8927 278.9529,131.9427 276.5696,131.9427 M276.5696,133.026 C278.3679,133.026 279.8196,134.4777 279.8196,136.276 C279.8196,138.0744 278.3679,139.526 276.5696,139.526 C274.7712,139.526 273.3196,138.0744 273.3196,136.276 C273.3196,134.4777 274.7712,133.026 276.5696,133.026 M276.0279,134.1094 L276.0279,136.5144 L276.2012,136.6552 L276.7429,137.1969 L277.1112,137.6085 L277.8912,136.8285 L277.4796,136.4602 L277.1112,136.0919 L277.1112,134.131 L276.0279,134.131" fill="#000000"/><text fill="#000000" font-family="sans-serif" font-size="13" lengthAdjust="spacing" textLength="4.1323" x="281.9029" y="140.7935">&#160;</text><text fill="#000000" font-family="sans-serif" font-size="13" lengthAdjust="spacing" textLength="12.397" x="286.0352" y="140.7935">...</text><text fill="#000000" font-family="sans-serif" font-size="13" lengthAdjust="spacing" textLength="4.1323" x="298.4322" y="140.7935">&#160;</text><path d="M307.8979,131.9427 C305.5145,131.9427 303.5645,133.8927 303.5645,136.276 C303.5645,138.6594 305.5145,140.6094 307.8979,140.6094 C310.2812,140.6094 312.2312,138.6594 312.2312,136.276 C312.2312,133.8927 310.2812,131.9427 307.8979,131.9427 M307.8979,133.026 C309.6962,133.026 311.1479,134.4777 311.1479,136.276 C311.1479,138.0744 309.6962,139.526 307.8979,139.526 C306.0995,139.526 304.6479,138.0744 304.6479,136.276 C304.6479,134.4777 306.0995,133.026 307.8979,133.026 M307.3562,134.1094 L307.3562,136.5144 L307.5295,136.6552 L308.0712,137.1969 L308.4395,137.6085 L309.2195,136.8285 L308.8079,136.4602 L308.4395,136.0919 L308.4395,134.131 L307.3562,134.131" fill="#000000"/><text fill="#000000" font-family="sans-serif" font-size="13" lengthAdjust="spacing" textLength="4.1323" x="313.2312" y="140.7935">&#160;</text><text fill="#000000" font-family="sans-serif" font-size="13" lengthAdjust="spacing" textLength="12.397" x="317.3635" y="140.7935">...</text><polygon fill="#FF0000" points="404.2546,183.9922,414.2546,187.9922,404.2546,191.9922,408.2546,187.9922" style="stroke:#FF0000;stroke-width:1;"/><line style="stroke:#FF0000;stroke-width:1;" x1="219.8625" x2="410.2546" y1="187.9922" y2="187.9922"/><text fill="#000000" font-family="sans-serif" font-size="13" font-weight="bold" lengthAdjust="spacing" textLength="9.0454" x="226.8625" y="182.9263">2</text><text fill="#000000" font-family="sans-serif" font-size="13" lengthAdjust="spacing" textLength="35.2104" x="239.908" y="182.9263">TEMP</text><text fill="#000000" font-family="sans-serif" font-size="13" lengthAdjust="spacing" textLength="4.1323" x="275.1184" y="182.9263">&#160;</text><text fill="#000000" font-family="sans-serif" font-size="13" lengthAdjust="spacing" textLength="48.8579" x="279.2507" y="182.9263">Kitchen</text><text fill="#000000" font-family="sans-serif" font-size="13" lengthAdjust="spacing" textLength="4.1323" x="328.1086" y="182.9263">&#160;</text><text fill="#000000" font-family="sans-serif" font-size="13" lengthAdjust="spacing" textLength="28.9453" x="332.241" y="182.9263">21.2</text><line style="stroke:#181818;stroke-width:1;" x1="416.2546" x2="458.2546" y1="232.2578" y2="232.2578"/><line style="stroke:#181818;stroke-width:1;" x1="458.2546" x2="458.2546" y1="232.2578" y2="245.2578"/><line style="stroke:#181818;stroke-width:1;" x1="417.2546" x2="458.2546" y1="245.2578" y2="245.2578"/><polygon fill="#181818" points="427.2546,241.2578,417.2546,245.2578,427.2546,249.2578,423.2546,245.2578" style="stroke:#181818;stroke-width:1;"/><text fill="#000000" font-family="sans-serif" font-size="13" font-weight="bold" lengthAdjust="spacing" textLength="9.0454" x="423.2546" y="219.6255">3</text><text fill="#000000" font-family="sans-serif" font-size="13" lengthAdjust="spacing" textLength="34.6455" x="436.3" y="212.0591">Store</text><text fill="#000000" font-family="sans-serif" font-size="13" lengthAdjust="spacing" textLength="4.1323" x="470.9456" y="212.0591">&#160;</text><text fill="#000000" font-family="sans-serif" font-size="13" lengthAdjust="spacing" textLength="21.3345" x="475.0779" y="212.0591">the</text><text fill="#000000" font-family="sans-serif" font-size="13" lengthAdjust="spacing" textLength="4.1323" x="496.4124" y="212.0591">&#160;</text><text fill="#000000" font-family="sans-serif" font-size="13" lengthAdjust="spacing" textLength="44.2622" x="500.5447" y="212.0591">room's</text><text fill="#000000" font-family="sans-serif" font-size="13" lengthAdjust="spacing" textLength="81.999" x="436.3" y="227.1919">temperature</text><rect fill="#EEEEEE" height="3" style="stroke:#EEEEEE;stroke-width:1;" width="432.2319" x="180.3235" y="273.8242"/><line style="stroke:#000000;stroke-width:1;" x1="180.3235" x2="612.5554" y1="273.8242" y2="273.8242"/><line style="stroke:#000000;stroke-width:1;" x1="180.3235" x2="612.5554" y1="276.8242" y2="276.8242"/><rect fill="#EEEEEE" height="23.1328" style="stroke:#000000;stroke-width:2;" width="330.9321" x="230.9734" y="263.2578"/><text fill="#000000" font-family="sans-serif" font-size="13" font-weight="bold" lengthAdjust="spacing" textLength="312.4063" x="236.9734" y="279.3247">Request temperature of an unknown room</text><polygon fill="#0000FF" points="427.2546,313.5234,417.2546,317.5234,427.2546,321.5234,423.2546,317.5234" style="stroke:#0000FF;stroke-width:1;"/><line style="stroke:#0000FF;stroke-width:1;" x1="421.2546" x2="573.2229" y1="317.5234" y2="317.5234"/><text fill="#000000" font-family="sans-serif" font-size="13" font-weight="bold" lengthAdjust="spacing" textLength="9.0454" x="433.2546" y="312.4575">4</text><text fill="#000000" font-family="sans-serif" font-size="13" lengthAdjust="spacing" textLength="69.1895" x="446.3" y="312.4575">REQ_TEMP</text><text fill="#000000" font-family="sans-serif" font-size="13" lengthAdjust="spacing" textLength="4.1323" x="515.4895" y="312.4575">&#160;</text><text fill="#000000" font-family="sans-serif" font-size="13" lengthAdjust="spacing" textLength="47.6011" x="519.6218" y="312.4575">Garage</text><polygon fill="#0000FF" points="562.2229,342.6563,572.2229,346.6563,562.2229,350.6563,566.2229,346.6563" style="stroke:#0000FF;stroke-width:1;"/><line style="stroke:#0000FF;stroke-width:1;" x1="416.2546" x2="568.2229" y1="346.6563" y2="346.6563"/><text fill="#000000" font-family="sans-serif" font-size="13" font-weight="bold" lengthAdjust="spacing" textLength="9.0454" x="423.2546" y="341.5903">5</text><text fill="#000000" font-family="sans-serif" font-size="13" lengthAdjust="spacing" textLength="45.5444" x="436.3" y="341.5903">ERROR</text><text fill="#000000" font-family="sans-serif" font-size="13" lengthAdjust="spacing" textLength="4.1323" x="481.8445" y="341.5903">&#160;</text><text fill="#000000" font-family="sans-serif" font-size="13" lengthAdjust="spacing" textLength="8.271" x="485.9768" y="341.5903">1</text><rect fill="#DDDDDD" height="128.0781" rx="7.5" ry="7.5" style="stroke:#000000;stroke-width:1;" width="445.3945" x="173.2422" y="407.9531"/><text fill="#000000" font-family="sans-serif" font-size="14" font-weight="bold" lengthAdjust="spacing" textLength="57.9209" x="178.2422" y="425.9482">Legend</text><text fill="#000000" font-family="sans-serif" font-size="14" lengthAdjust="spacing" textLength="4.4502" x="178.2422" y="442.2451">&#160;</text><text fill="#000000" font-family="sans-serif" font-size="14" lengthAdjust="spacing" textLength="435.3945" x="178.2422" y="458.542">Types of communication and patterns used in the application.</text><text fill="#000000" font-family="sans-serif" font-size="14" lengthAdjust="spacing" textLength="4.4502" x="178.2422" y="474.8389">&#160;</text><text fill="#000000" font-family="sans-serif" font-size="14" lengthAdjust="spacing" textLength="4.4502" x="178.2422" y="493.1357">&#160;</text><text fill="#000000" font-family="sans-serif" font-size="14" font-weight="bold" lengthAdjust="spacing" textLength="41.2139" x="182.6924" y="493.1357">Color</text><text fill="#000000" font-family="sans-serif" font-size="14" lengthAdjust="spacing" textLength="4.4502" x="223.9063" y="493.1357">&#160;</text><text fill="#000000" font-family="sans-serif" font-size="14" lengthAdjust="spacing" textLength="4.4502" x="228.3564" y="493.1357">&#160;</text><text fill="#000000" font-family="sans-serif" font-size="14" font-weight="bold" lengthAdjust="spacing" textLength="38.1924" x="232.8066" y="493.1357">Type</text><text fill="#000000" font-family="sans-serif" font-size="14" lengthAdjust="spacing" textLength="8.9004" x="270.999" y="493.1357">&#160;&#160;</text><text fill="#000000" font-family="sans-serif" font-size="14" lengthAdjust="spacing" textLength="4.4502" x="300.5371" y="493.1357">&#160;</text><text fill="#000000" font-family="sans-serif" font-size="14" font-weight="bold" lengthAdjust="spacing" textLength="59.459" x="304.9873" y="493.1357">Pattern</text><text fill="#000000" font-family="sans-serif" font-size="14" lengthAdjust="spacing" textLength="26.7012" x="364.4463" y="493.1357">&#160;&#160;&#160;&#160;&#160;&#160;</text><rect fill="#FF0000" height="16.2969" style="stroke:none;stroke-width:1;" width="50.1143" x="178.2422" y="496.4375"/><text fill="#000000" font-family="sans-serif" font-size="14" lengthAdjust="spacing" textLength="17.8008" x="178.2422" y="509.4326">&#160;&#160;&#160;&#160;</text><text fill="#000000" font-family="sans-serif" font-size="14" lengthAdjust="spacing" textLength="63.2803" x="232.8066" y="509.4326">Multicast</text><text fill="#000000" font-family="sans-serif" font-size="14" lengthAdjust="spacing" textLength="103.79" x="304.9873" y="509.4326">Fire and forget</text><rect fill="#0000FF" height="16.2969" style="stroke:none;stroke-width:1;" width="50.1143" x="178.2422" y="512.7344"/><text fill="#000000" font-family="sans-serif" font-size="14" lengthAdjust="spacing" textLength="13.3506" x="178.2422" y="525.7295">&#160;&#160;&#160;</text><text fill="#000000" font-family="sans-serif" font-size="14" lengthAdjust="spacing" textLength="52.0693" x="232.8066" y="525.7295">Unicast</text><text fill="#000000" font-family="sans-serif" font-size="14" lengthAdjust="spacing" textLength="126.4443" x="304.9873" y="525.7295">Request-response</text><line style="stroke:#000000;stroke-width:1;" x1="178.2422" x2="435.8818" y1="480.1406" y2="480.1406"/><line style="stroke:#000000;stroke-width:1;" x1="178.2422" x2="435.8818" y1="496.4375" y2="496.4375"/><line style="stroke:#000000;stroke-width:1;" x1="178.2422" x2="435.8818" y1="512.7344" y2="512.7344"/><line style="stroke:#000000;stroke-width:1;" x1="178.2422" x2="435.8818" y1="529.0313" y2="529.0313"/><line style="stroke:#000000;stroke-width:1;" x1="178.2422" x2="178.2422" y1="480.1406" y2="529.0313"/><line style="stroke:#000000;stroke-width:1;" x1="228.3564" x2="228.3564" y1="480.1406" y2="529.0313"/><line style="stroke:#000000;stroke-width:1;" x1="300.5371" x2="300.5371" y1="480.1406" y2="529.0313"/><line style="stroke:#000000;stroke-width:1;" x1="435.8818" x2="435.8818" y1="480.1406" y2="529.0313"/><!--SRC=[TLBHgXCn47tFLumL51QstAtuKcuB8jK7BRUs5Hz49CtEtOPkPcAIzTPBFzuasvOjw3w42UTapZapwm-Qh7JIm8wFArdNcXgexkw4lm967fVelMnmevyHghT3a3ZW5e_XNQiRCaW1L3pG3IWUVtL82izDCXDgxL05pJGWFZbfl-awx64IDMGNc3gpYxt42-jaOoG4v6S8haCXWWujmcYBngAJeNC8Xaa7TYc1jBRLIYO1i8u3AswXXCLH6XkVlOdrEjdo0Jew43yHE6OJ1QxjHa94Mq4hRMMCDLeO7M8mg4OWFM3rRtJIevDRT8FkDxeC-Lla8SjnZx4GincaLaCZC9i9WHMKvJpAJk7-bMfP7UOm7e__VyallhzqMF-OWv_2Th5SmISTr1u99jLu8ZoK6Tb4UOImnpo2rtwedGrT9ZNqn8yWwNPsoIOdpLtROI-wNdpvcOK_nWKtc2IlC4zXiLu_hA4IeiK6gHP5yJaNHI74zez5dsGK6zFHPPcIQh0oZPeyT1vhq9Iz3pO-5k84HV6UMtP50QbEtMAPwrN_F5tJTuha-pIdURx1iclZUcJCUu8FyI_Dae_i6WmNSaemp-Ilr5DJVHvJwT1R9e-H7BESe_q5]--></g></svg>