<svg xmlns="http://www.w3.org/2000/svg" xmlns:xlink="http://www.w3.org/1999/xlink" contentStyleType="text/css" data-diagram-type="SEQUENCE" height="508px" preserveAspectRatio="none" style="width:661px;height:508px;background:#FFFFFF;" version="1.1" viewBox="0 0 661 508" width="661px" zoomAndPan="magnify"><title>Temperature monitoring application protocol - Example 2 - Invalid temperature</title><defs/><g><text fill="#000000" font-family="sans-serif" font-size="14" font-weight="bold" lengthAdjust="spacing" textLength="628.2568" x="15" y="27.9951">Temperature monitoring application protocol - Example 2 - Invalid temperature</text><g><title>Emitter 1</title><rect fill="#000000" fill-opacity="0.00000" height="243.1953" width="8" x="189.3918" y="73.5938"/><line style="stroke:#181818;stroke-width:0.5;stroke-dasharray:5,5;" x1="192.8918" x2="192.8918" y1="73.5938" y2="316.7891"/></g><g><title>Emitter 2</title><rect fill="#000000" fill-opacity="0.00000" height="243.1953" width="8" x="306.2898" y="73.5938"/><line style="stroke:#181818;stroke-width:0.5;stroke-dasharray:5,5;" x1="309.7898" x2="309.7898" y1="73.5938" y2="316.7891"/></g><g><title>Server</title><rect fill="#000000" fill-opacity="0.00000" height="243.1953" width="8" x="385.7839" y="73.5938"/><line style="stroke:#181818;stroke-width:0.5;stroke-dasharray:5,5;" x1="389.2839" x2="389.2839" y1="73.5938" y2="316.7891"/></g><g><title>Operator</title><rect fill="#000000" fill-opacity="0.00000" height="243.1953" width="8" x="464.0715" y="73.5938"/><line style="stroke:#181818;stroke-width:0.5;stroke-dasharray:5,5;" x1="467.5715" x2="467.5715" y1="73.5938" y2="316.7891"/></g><rect fill="#E2E2F0" height="30.2969" rx="2.5" ry="2.5" style="stroke:#181818;stroke-width:0.5;" width="79.0781" x="153.3528" y="42.2969"/><text fill="#000000" font-family="sans-serif" font-size="14" lengthAdjust="spacing" textLength="65.0781" x="160.3528" y="62.292">Emitter 1</text><rect fill="#E2E2F0" height="30.2969" rx="2.5" ry="2.5" style="stroke:#181818;stroke-width:0.5;" width="79.0781" x="270.2507" y="42.2969"/><text fill="#000000" font-family="sans-serif" font-size="14" lengthAdjust="spacing" textLength="65.0781" x="277.2507" y="62.292">Emitter 2</text><rect fill="#E2E2F0" height="30.2969" rx="2.5" ry="2.5" style="stroke:#181818;stroke-width:0.5;" width="59.9102" x="359.3289" y="42.2969"/><text fill="#000000" font-family="sans-serif" font-size="14" lengthAdjust="spacing" textLength="45.9102" x="366.3289" y="62.292">Server</text><rect fill="#E2E2F0" height="30.2969" rx="2.5" ry="2.5" style="stroke:#181818;stroke-width:0.5;" width="76.665" x="429.239" y="42.2969"/><text fill="#000000" font-family="sans-serif" font-size="14" lengthAdjust="spacing" textLength="62.665" x="436.239" y="62.292">Operator</text><rect fill="#E2E2F0" height="30.2969" rx="2.5" ry="2.5" style="stroke:#181818;stroke-width:0.5;" width="79.0781" x="153.3528" y="316.7891"/><text fill="#000000" font-family="sans-serif" font-size="14" lengthAdjust="spacing" textLength="65.0781" x="160.3528" y="336.7842">Emitter 1</text><rect fill="#E2E2F0" height="30.2969" rx="2.5" ry="2.5" style="stroke:#181818;stroke-width:0.5;" width="79.0781" x="270.2507" y="316.7891"/><text fill="#000000" font-family="sans-serif" font-size="14" lengthAdjust="spacing" textLength="65.0781" x="277.2507" y="336.7842">Emitter 2</text><rect fill="#E2E2F0" height="30.2969" rx="2.5" ry="2.5" style="stroke:#181818;stroke-width:0.5;" width="59.9102" x="359.3289" y="316.7891"/><text fill="#000000" font-family="sans-serif" font-size="14" lengthAdjust="spacing" textLength="45.9102" x="366.3289" y="336.7842">Server</text><rect fill="#E2E2F0" height="30.2969" rx="2.5" ry="2.5" style="stroke:#181818;stroke-width:0.5;" width="76.665" x="429.239" y="316.7891"/><text fill="#000000" font-family="sans-serif" font-size="14" lengthAdjust="spacing" textLength="62.665" x="436.239" y="336.7842">Operator</text><rect fill="#EEEEEE" height="3" style="stroke:#EEEEEE;stroke-width:1;" width="352.5513" x="153.3528" y="102.1602"/><line style="stroke:#000000;stroke-width:1;" x1="153.3528" x2="505.9041" y1="102.1602" y2="102.1602"/><line style="stroke:#000000;stroke-width:1;" x1="153.3528" x2="505.9041" y1="105.1602" y2="105.1602"/><rect fill="#EEEEEE" height="23.1328" style="stroke:#000000;stroke-width:2;" width="202.4302" x="228.4133" y="91.5938"/><text fill="#000000" font-family="sans-serif" font-size="13" font-weight="bold" lengthAdjust="spacing" textLength="183.9043" x="234.4133" y="107.6606">Emit invalid temperature</text><line style="stroke:#181818;stroke-width:1;stroke-dasharray:2,2;" x1="192.8918" x2="234.8918" y1="145.8594" y2="145.8594"/><line style="stroke:#181818;stroke-width:1;stroke-dasharray:2,2;" x1="234.8918" x2="234.8918" y1="145.8594" y2="158.8594"/><line style="stroke:#181818;stroke-width:1;stroke-dasharray:2,2;" x1="193.8918" x2="234.8918" y1="158.8594" y2="158.8594"/><polygon fill="#181818" points="203.8918,154.8594,193.8918,158.8594,203.8918,162.8594,199.8918,158.8594" style="stroke:#181818;stroke-width:1;"/><text fill="#000000" font-family="sans-serif" font-size="13" font-weight="bold" lengthAdjust="spacing" textLength="9.0454" x="199.8918" y="140.7935">1</text><path d="M218.2706,131.9427 C215.8873,131.9427 213.9373,133.8927 213.9373,136.276 C213.9373,138.6594 215.8873,140.6094 218.2706,140.6094 C220.6539,140.6094 222.6039,138.6594 222.6039,136.276 C222.6039,133.8927 220.6539,131.9427 218.2706,131.9427 M218.2706,133.026 C220.0689,133.026 221.5206,134.4777 221.5206,136.276 C221.5206,138.0744 220.0689,139.526 218.2706,139.526 C216.4723,139.526 215.0206,138.0744 215.0206,136.276 C215.0206,134.4777 216.4723,133.026 218.2706,133.026 M217.7289,134.1094 L217.7289,136.5144 L217.9023,136.6552 L218.4439,137.1969 L218.8123,137.6085 L219.5923,136.8285 L219.1806,136.4602 L218.8123,136.0919 L218.8123,134.131 L217.7289,134.131" fill="#000000"/><text fill="#000000" font-family="sans-serif" font-size="13" lengthAdjust="spacing" textLength="4.1323" x="223.6039" y="140.7935">&#160;</text><text fill="#000000" font-family="sans-serif" font-size="13" lengthAdjust="spacing" textLength="12.397" x="227.7362" y="140.7935">...</text><text fill="#000000" font-family="sans-serif" font-size="13" lengthAdjust="spacing" textLength="4.1323" x="240.1332" y="140.7935">&#160;</text><path d="M249.5989,131.9427 C247.2155,131.9427 245.2655,133.8927 245.2655,136.276 C245.2655,138.6594 247.2155,140.6094 249.5989,140.6094 C251.9822,140.6094 253.9322,138.6594 253.9322,136.276 C253.9322,133.8927 251.9822,131.9427 249.5989,131.9427 M249.5989,133.026 C251.3972,133.026 252.8489,134.4777 252.8489,136.276 C252.8489,138.0744 251.3972,139.526 249.5989,139.526 C247.8005,139.526 246.3489,138.0744 246.3489,136.276 C246.3489,134.4777 247.8005,133.026 249.5989,133.026 M249.0572,134.1094 L249.0572,136.5144 L249.2305,136.6552 L249.7722,137.1969 L250.1405,137.6085 L250.9205,136.8285 L250.5089,136.4602 L250.1405,136.0919 L250.1405,134.131 L249.0572,134.131" fill="#000000"/><text fill="#000000" font-family="sans-serif" font-size="13" lengthAdjust="spacing" textLength="4.1323" x="254.9322" y="140.7935">&#160;</text><text fill="#000000" font-family="sans-serif" font-size="13" lengthAdjust="spacing" textLength="12.397" x="259.0645" y="140.7935">...</text><text fill="#000000" font-family="sans-serif" font-size="13" lengthAdjust="spacing" textLength="4.1323" x="271.4615" y="140.7935">&#160;</text><path d="M280.9272,131.9427 C278.5438,131.9427 276.5938,133.8927 276.5938,136.276 C276.5938,138.6594 278.5438,140.6094 280.9272,140.6094 C283.3105,140.6094 285.2605,138.6594 285.2605,136.276 C285.2605,133.8927 283.3105,131.9427 280.9272,131.9427 M280.9272,133.026 C282.7255,133.026 284.1772,134.4777 284.1772,136.276 C284.1772,138.0744 282.7255,139.526 280.9272,139.526 C279.1288,139.526 277.6772,138.0744 277.6772,136.276 C277.6772,134.4777 279.1288,133.026 280.9272,133.026 M280.3855,134.1094 L280.3855,136.5144 L280.5588,136.6552 L281.1005,137.1969 L281.4688,137.6085 L282.2488,136.8285 L281.8372,136.4602 L281.4688,136.0919 L281.4688,134.131 L280.3855,134.131" fill="#000000"/><text fill="#000000" font-family="sans-serif" font-size="13" lengthAdjust="spacing" textLength="4.1323" x="286.2605" y="140.7935">&#160;</text><text fill="#000000" font-family="sans-serif" font-size="13" lengthAdjust="spacing" textLength="12.397" x="290.3928" y="140.7935">...</text><polygon fill="#FF0000" points="377.2839,183.9922,387.2839,187.9922,377.2839,191.9922,381.2839,187.9922" style="stroke:#FF0000;stroke-width:1;"/><line style="stroke:#FF0000;stroke-width:1;" x1="192.8918" x2="383.2839" y1="187.9922" y2="187.9922"/><text fill="#000000" font-family="sans-serif" font-size="13" font-weight="bold" lengthAdjust="spacing" textLength="9.0454" x="199.8918" y="182.9263">2</text><text fill="#000000" font-family="sans-serif" font-size="13" lengthAdjust="spacing" textLength="35.2104" x="212.9373" y="182.9263">TEMP</text><text fill="#000000" font-family="sans-serif" font-size="13" lengthAdjust="spacing" textLength="4.1323" x="248.1477" y="182.9263">&#160;</text><text fill="#000000" font-family="sans-serif" font-size="13" lengthAdjust="spacing" textLength="59.084" x="252.28" y="182.9263">Bedroom</text><text fill="#000000" font-family="sans-serif" font-size="13" lengthAdjust="spacing" textLength="4.1323" x="311.364" y="182.9263">&#160;</text><text fill="#000000" font-family="sans-serif" font-size="13" lengthAdjust="spacing" textLength="7.9663" x="315.4963" y="182.9263">a</text><path d="M321.9983,200.9922 L321.9983,300.9922 L455.9983,300.9922 L455.9983,210.9922 L445.9983,200.9922 L321.9983,200.9922" fill="#FEFFDD" style="stroke:#181818;stroke-width:0.5;"/><path d="M445.9983,200.9922 L445.9983,210.9922 L455.9983,210.9922 L445.9983,200.9922" fill="#FEFFDD" style="stroke:#181818;stroke-width:0.5;"/><text fill="#000000" font-family="sans-serif" font-size="13" lengthAdjust="spacing" textLength="24.1782" x="336.9983" y="218.0591">The</text><text fill="#000000" font-family="sans-serif" font-size="13" lengthAdjust="spacing" textLength="4.1323" x="361.1765" y="218.0591">&#160;</text><text fill="#000000" font-family="sans-serif" font-size="13" lengthAdjust="spacing" textLength="41.1519" x="365.3088" y="218.0591">server</text><text fill="#000000" font-family="sans-serif" font-size="13" lengthAdjust="spacing" textLength="4.1323" x="406.4607" y="218.0591">&#160;</text><text fill="#000000" font-family="sans-serif" font-size="13" lengthAdjust="spacing" textLength="30.9766" x="410.593" y="218.0591">does</text><text fill="#000000" font-family="sans-serif" font-size="13" lengthAdjust="spacing" textLength="21.29" x="347.2561" y="233.1919">not</text><text fill="#000000" font-family="sans-serif" font-size="13" lengthAdjust="spacing" textLength="4.1323" x="368.5461" y="233.1919">&#160;</text><text fill="#000000" font-family="sans-serif" font-size="13" lengthAdjust="spacing" textLength="33.1665" x="372.6785" y="233.1919">store</text><text fill="#000000" font-family="sans-serif" font-size="13" lengthAdjust="spacing" textLength="4.1323" x="405.845" y="233.1919">&#160;</text><text fill="#000000" font-family="sans-serif" font-size="13" lengthAdjust="spacing" textLength="21.3345" x="409.9773" y="233.1919">the</text><text fill="#000000" font-family="sans-serif" font-size="13" lengthAdjust="spacing" textLength="44.2622" x="345.2661" y="248.3247">room's</text><text fill="#000000" font-family="sans-serif" font-size="13" lengthAdjust="spacing" textLength="4.1323" x="389.5283" y="248.3247">&#160;</text><text fill="#000000" font-family="sans-serif" font-size="13" lengthAdjust="spacing" textLength="39.6411" x="393.6606" y="248.3247">value.</text><text fill="#000000" font-family="sans-serif" font-size="13" lengthAdjust="spacing" textLength="4.1323" x="387.2178" y="263.4575">&#160;</text><text fill="#000000" font-family="sans-serif" font-size="13" lengthAdjust="spacing" textLength="51.1177" x="344.679" y="278.5903">Nothing</text><text fill="#000000" font-family="sans-serif" font-size="13" lengthAdjust="spacing" textLength="4.1323" x="395.7966" y="278.5903">&#160;</text><text fill="#000000" font-family="sans-serif" font-size="13" lengthAdjust="spacing" textLength="33.96" x="399.929" y="278.5903">more</text><text fill="#000000" font-family="sans-serif" font-size="13" lengthAdjust="spacing" textLength="59.8521" x="359.3579" y="293.7231">happens.</text><rect fill="#DDDDDD" height="128.0781" rx="7.5" ry="7.5" style="stroke:#000000;stroke-width:1;" width="445.3945" x="106.4312" y="360.0859"/><text fill="#000000" font-family="sans-serif" font-size="14" font-weight="bold" lengthAdjust="spacing" textLength="57.9209" x="111.4312" y="378.0811">Legend</text><text fill="#000000" font-family="sans-serif" font-size="14" lengthAdjust="spacing" textLength="4.4502" x="111.4312" y="394.3779">&#160;</text><text fill="#000000" font-family="sans-serif" font-size="14" lengthAdjust="spacing" textLength="435.3945" x="111.4312" y="410.6748">Types of communication and patterns used in the application.</text><text fill="#000000" font-family="sans-serif" font-size="14" lengthAdjust="spacing" textLength="4.4502" x="111.4312" y="426.9717">&#160;</text><text fill="#000000" font-family="sans-serif" font-size="14" lengthAdjust="spacing" textLength="4.4502" x="111.4312" y="445.2686">&#160;</text><text fill="#000000" font-family="sans-serif" font-size="14" font-weight="bold" lengthAdjust="spacing" textLength="41.2139" x="115.8813" y="445.2686">Color</text><text fill="#000000" font-family="sans-serif" font-size="14" lengthAdjust="spacing" textLength="4.4502" x="157.0952" y="445.2686">&#160;</text><text fill="#000000" font-family="sans-serif" font-size="14" lengthAdjust="spacing" textLength="4.4502" x="161.5454" y="445.2686">&#160;</text><text fill="#000000" font-family="sans-serif" font-size="14" font-weight="bold" lengthAdjust="spacing" textLength="38.1924" x="165.9956" y="445.2686">Type</text><text fill="#000000" font-family="sans-serif" font-size="14" lengthAdjust="spacing" textLength="8.9004" x="204.188" y="445.2686">&#160;&#160;</text><text fill="#000000" font-family="sans-serif" font-size="14" lengthAdjust="spacing" textLength="4.4502" x="233.7261" y="445.2686">&#160;</text><text fill="#000000" font-family="sans-serif" font-size="14" font-weight="bold" lengthAdjust="spacing" textLength="59.459" x="238.1763" y="445.2686">Pattern</text><text fill="#000000" font-family="sans-serif" font-size="14" lengthAdjust="spacing" textLength="26.7012" x="297.6353" y="445.2686">&#160;&#160;&#160;&#160;&#160;&#160;</text><rect fill="#FF0000" height="16.2969" style="stroke:none;stroke-width:1;" width="50.1143" x="111.4312" y="448.5703"/><text fill="#000000" font-family="sans-serif" font-size="14" lengthAdjust="spacing" textLength="17.8008" x="111.4312" y="461.5654">&#160;&#160;&#160;&#160;</text><text fill="#000000" font-family="sans-serif" font-size="14" lengthAdjust="spacing" textLength="63.2803" x="165.9956" y="461.5654">Multicast</text><text fill="#000000" font-family="sans-serif" font-size="14" lengthAdjust="spacing" textLength="103.79" x="238.1763" y="461.5654">Fire and forget</text><rect fill="#0000FF" height="16.2969" style="stroke:none;stroke-width:1;" width="50.1143" x="111.4312" y="464.8672"/><text fill="#000000" font-family="sans-serif" font-size="14" lengthAdjust="spacing" textLength="13.3506" x="111.4312" y="477.8623">&#160;&#160;&#160;</text><text fill="#000000" font-family="sans-serif" font-size="14" lengthAdjust="spacing" textLength="52.0693" x="165.9956" y="477.8623">Unicast</text><text fill="#000000" font-family="sans-serif" font-size="14" lengthAdjust="spacing" textLength="126.4443" x="238.1763" y="477.8623">Request-response</text><line style="stroke:#000000;stroke-width:1;" x1="111.4312" x2="369.0708" y1="432.2734" y2="432.2734"/><line style="stroke:#000000;stroke-width:1;" x1="111.4312" x2="369.0708" y1="448.5703" y2="448.5703"/><line style="stroke:#000000;stroke-width:1;" x1="111.4312" x2="369.0708" y1="464.8672" y2="464.8672"/><line style="stroke:#000000;stroke-width:1;" x1="111.4312" x2="369.0708" y1="481.1641" y2="481.1641"/><line style="stroke:#000000;stroke-width:1;" x1="111.4312" x2="111.4312" y1="432.2734" y2="481.1641"/><line style="stroke:#000000;stroke-width:1;" x1="161.5454" x2="161.5454" y1="432.2734" y2="481.1641"/><line style="stroke:#000000;stroke-width:1;" x1="233.7261" x2="233.7261" y1="432.2734" y2="481.1641"/><line style="stroke:#000000;stroke-width:1;" x1="369.0708" x2="369.0708" y1="432.2734" y2="481.1641"/><!--SRC=[TLB1QXj13BthArGNMbYmYGszX7YXBIuKwjOq6teeFSYxokwGdT5qPZPrGpw-cd4I7DhkOP5uJtfwqiGRupm5ihYNmuwwphWUbsTd49y0IuSjnqWzNvexnkMRKz19ueOFwUreUcVP9Mprn-644lddnAxbXoQ5YPq9t2OZxeJuAv3_Phequ4erQ4hY9hlNNl321-ejOMAvmnGc1aWcZOopXgtdG6aAZ5QSIHAo0_9-D2rb0VH1ahGouXmt1x9UorOQVtItD9fEUpvrc07e9CcqnfCwcMsiIUe5bpEaYBpyDxewegldw2M7Mmu5Yi-HBqLEZfW0hDUOMw7vUo1Shm5uYVDvhVBdUF6g7QMzgN6nMFm_AHNVNmRkVjGOpx7PR7VuZhiWOf40yirGT3gTh1bO3vH7nKuuPWoZ3iUO1ePSyJgYpZNn0k2pf25lroeEW-wONLGrrvLd031ohmbKrQSIL1L0yzkpkhp6LgoTtEDDI6iyvVMvY5FaJjrdnTF3gU0zLjLx6ILK5UOuTzEmnBjZUKxpTw_aY-ovBXbkfr5NJZ5f_44VMv6ybj1pUYJlrLLTo5VkICtnr_nSOve7ZbvSP2MhbmThVm00]--></g></svg>