<svg xmlns="http://www.w3.org/2000/svg" xmlns:xlink="http://www.w3.org/1999/xlink" contentStyleType="text/css" data-diagram-type="SEQUENCE" height="642px" preserveAspectRatio="none" style="width:638px;height:642px;background:#FFFFFF;" version="1.1" viewBox="0 0 638 642" width="638px" zoomAndPan="magnify"><title>Temperature monitoring application protocol - Example 4 - Invalid command</title><defs/><g><text fill="#000000" font-family="sans-serif" font-size="14" font-weight="bold" lengthAdjust="spacing" textLength="605.083" x="15" y="27.9951">Temperature monitoring application protocol - Example 4 - Invalid command</text><g><title>Emitter 1</title><rect fill="#000000" fill-opacity="0.00000" height="179.6641" width="8" x="137.3362" y="73.5938"/><line style="stroke:#181818;stroke-width:0.5;stroke-dasharray:5,5;" x1="140.8362" x2="140.8362" y1="73.5938" y2="253.2578"/></g><line style="stroke:#181818;stroke-width:0.5;stroke-dasharray:1,4;" x1="140.8362" x2="140.8362" y1="253.2578" y2="281.2578"/><g><title>Emitter 1</title><rect fill="#000000" fill-opacity="0.00000" height="169.6641" width="8" x="137.3362" y="281.2578"/><line style="stroke:#181818;stroke-width:0.5;stroke-dasharray:5,5;" x1="140.8362" x2="140.8362" y1="281.2578" y2="450.9219"/></g><g><title>Emitter 2</title><rect fill="#000000" fill-opacity="0.00000" height="179.6641" width="8" x="254.2341" y="73.5938"/><line style="stroke:#181818;stroke-width:0.5;stroke-dasharray:5,5;" x1="257.7341" x2="257.7341" y1="73.5938" y2="253.2578"/></g><line style="stroke:#181818;stroke-width:0.5;stroke-dasharray:1,4;" x1="257.7341" x2="257.7341" y1="253.2578" y2="281.2578"/><g><title>Emitter 2</title><rect fill="#000000" fill-opacity="0.00000" height="169.6641" width="8" x="254.2341" y="281.2578"/><line style="stroke:#181818;stroke-width:0.5;stroke-dasharray:5,5;" x1="257.7341" x2="257.7341" y1="281.2578" y2="450.9219"/></g><g><title>Server</title><rect fill="#000000" fill-opacity="0.00000" height="179.6641" width="8" x="333.7283" y="73.5938"/><line style="stroke:#181818;stroke-width:0.5;stroke-dasharray:5,5;" x1="337.2283" x2="337.2283" y1="73.5938" y2="253.2578"/></g><line style="stroke:#181818;stroke-width:0.5;stroke-dasharray:1,4;" x1="337.2283" x2="337.2283" y1="253.2578" y2="281.2578"/><g><title>Server</title><rect fill="#000000" fill-opacity="0.00000" height="169.6641" width="8" x="333.7283" y="281.2578"/><line style="stroke:#181818;stroke-width:0.5;stroke-dasharray:5,5;" x1="337.2283" x2="337.2283" y1="281.2578" y2="450.9219"/></g><g><title>Operator</title><rect fill="#000000" fill-opacity="0.00000" height="179.6641" width="8" x="492.9534" y="73.5938"/><line style="stroke:#181818;stroke-width:0.5;stroke-dasharray:5,5;" x1="496.4534" x2="496.4534" y1="73.5938" y2="253.2578"/></g><line style="stroke:#181818;stroke-width:0.5;stroke-dasharray:1,4;" x1="496.4534" x2="496.4534" y1="253.2578" y2="281.2578"/><g><title>Operator</title><rect fill="#000000" fill-opacity="0.00000" height="169.6641" width="8" x="492.9534" y="281.2578"/><line style="stroke:#181818;stroke-width:0.5;stroke-dasharray:5,5;" x1="496.4534" x2="496.4534" y1="281.2578" y2="450.9219"/></g><rect fill="#E2E2F0" height="30.2969" rx="2.5" ry="2.5" style="stroke:#181818;stroke-width:0.5;" width="79.0781" x="101.2971" y="42.2969"/><text fill="#000000" font-family="sans-serif" font-size="14" lengthAdjust="spacing" textLength="65.0781" x="108.2971" y="62.292">Emitter 1</text><rect fill="#E2E2F0" height="30.2969" rx="2.5" ry="2.5" style="stroke:#181818;stroke-width:0.5;" width="79.0781" x="218.1951" y="42.2969"/><text fill="#000000" font-family="sans-serif" font-size="14" lengthAdjust="spacing" textLength="65.0781" x="225.1951" y="62.292">Emitter 2</text><rect fill="#E2E2F0" height="30.2969" rx="2.5" ry="2.5" style="stroke:#181818;stroke-width:0.5;" width="59.9102" x="307.2732" y="42.2969"/><text fill="#000000" font-family="sans-serif" font-size="14" lengthAdjust="spacing" textLength="45.9102" x="314.2732" y="62.292">Server</text><rect fill="#E2E2F0" height="30.2969" rx="2.5" ry="2.5" style="stroke:#181818;stroke-width:0.5;" width="76.665" x="458.1208" y="42.2969"/><text fill="#000000" font-family="sans-serif" font-size="14" lengthAdjust="spacing" textLength="62.665" x="465.1208" y="62.292">Operator</text><rect fill="#E2E2F0" height="30.2969" rx="2.5" ry="2.5" style="stroke:#181818;stroke-width:0.5;" width="79.0781" x="101.2971" y="450.9219"/><text fill="#000000" font-family="sans-serif" font-size="14" lengthAdjust="spacing" textLength="65.0781" x="108.2971" y="470.917">Emitter 1</text><rect fill="#E2E2F0" height="30.2969" rx="2.5" ry="2.5" style="stroke:#181818;stroke-width:0.5;" width="79.0781" x="218.1951" y="450.9219"/><text fill="#000000" font-family="sans-serif" font-size="14" lengthAdjust="spacing" textLength="65.0781" x="225.1951" y="470.917">Emitter 2</text><rect fill="#E2E2F0" height="30.2969" rx="2.5" ry="2.5" style="stroke:#181818;stroke-width:0.5;" width="59.9102" x="307.2732" y="450.9219"/><text fill="#000000" font-family="sans-serif" font-size="14" lengthAdjust="spacing" textLength="45.9102" x="314.2732" y="470.917">Server</text><rect fill="#E2E2F0" height="30.2969" rx="2.5" ry="2.5" style="stroke:#181818;stroke-width:0.5;" width="76.665" x="458.1208" y="450.9219"/><text fill="#000000" font-family="sans-serif" font-size="14" lengthAdjust="spacing" textLength="62.665" x="465.1208" y="470.917">Operator</text><rect fill="#EEEEEE" height="3" style="stroke:#EEEEEE;stroke-width:1;" width="433.4888" x="101.2971" y="102.1602"/><line style="stroke:#000000;stroke-width:1;" x1="101.2971" x2="534.7859" y1="102.1602" y2="102.1602"/><line style="stroke:#000000;stroke-width:1;" x1="101.2971" x2="534.7859" y1="105.1602" y2="105.1602"/><rect fill="#EEEEEE" height="23.1328" style="stroke:#000000;stroke-width:2;" width="148.729" x="243.677" y="91.5938"/><text fill="#000000" font-family="sans-serif" font-size="13" font-weight="bold" lengthAdjust="spacing" textLength="130.2031" x="249.677" y="107.6606">Emit temperature</text><line style="stroke:#181818;stroke-width:1;stroke-dasharray:2,2;" x1="140.8362" x2="182.8362" y1="145.8594" y2="145.8594"/><line style="stroke:#181818;stroke-width:1;stroke-dasharray:2,2;" x1="182.8362" x2="182.8362" y1="145.8594" y2="158.8594"/><line style="stroke:#181818;stroke-width:1;stroke-dasharray:2,2;" x1="141.8362" x2="182.8362" y1="158.8594" y2="158.8594"/><polygon fill="#181818" points="151.8362,154.8594,141.8362,158.8594,151.8362,162.8594,147.8362,158.8594" style="stroke:#181818;stroke-width:1;"/><text fill="#000000" font-family="sans-serif" font-size="13" font-weight="bold" lengthAdjust="spacing" textLength="9.0454" x="147.8362" y="140.7935">1</text><path d="M166.2149,131.9427 C163.8316,131.9427 161.8816,133.8927 161.8816,136.276 C161.8816,138.6594 163.8316,140.6094 166.2149,140.6094 C168.5983,140.6094 170.5483,138.6594 170.5483,136.276 C170.5483,133.8927 168.5983,131.9427 166.2149,131.9427 M166.2149,133.026 C168.0133,133.026 169.4649,134.4777 169.4649,136.276 C169.4649,138.0744 168.0133,139.526 166.2149,139.526 C164.4166,139.526 162.9649,138.0744 162.9649,136.276 C162.9649,134.4777 164.4166,133.026 166.2149,133.026 M165.6733,134.1094 L165.6733,136.5144 L165.8466,136.6552 L166.3883,137.1969 L166.7566,137.6085 L167.5366,136.8285 L167.1249,136.4602 L166.7566,136.0919 L166.7566,134.131 L165.6733,134.131" fill="#000000"/><text fill="#000000" font-family="sans-serif" font-size="13" lengthAdjust="spacing" textLength="4.1323" x="171.5483" y="140.7935">&#160;</text><text fill="#000000" font-family="sans-serif" font-size="13" lengthAdjust="spacing" textLength="12.397" x="175.6806" y="140.7935">...</text><text fill="#000000" font-family="sans-serif" font-size="13" lengthAdjust="spacing" textLength="4.1323" x="188.0776" y="140.7935">&#160;</text><path d="M197.5432,131.9427 C195.1599,131.9427 193.2099,133.8927 193.2099,136.276 C193.2099,138.6594 195.1599,140.6094 197.5432,140.6094 C199.9265,140.6094 201.8765,138.6594 201.8765,136.276 C201.8765,133.8927 199.9265,131.9427 197.5432,131.9427 M197.5432,133.026 C199.3415,133.026 200.7932,134.4777 200.7932,136.276 C200.7932,138.0744 199.3415,139.526 197.5432,139.526 C195.7449,139.526 194.2932,138.0744 194.2932,136.276 C194.2932,134.4777 195.7449,133.026 197.5432,133.026 M197.0015,134.1094 L197.0015,136.5144 L197.1749,136.6552 L197.7165,137.1969 L198.0849,137.6085 L198.8649,136.8285 L198.4532,136.4602 L198.0849,136.0919 L198.0849,134.131 L197.0015,134.131" fill="#000000"/><text fill="#000000" font-family="sans-serif" font-size="13" lengthAdjust="spacing" textLength="4.1323" x="202.8765" y="140.7935">&#160;</text><text fill="#000000" font-family="sans-serif" font-size="13" lengthAdjust="spacing" textLength="12.397" x="207.0089" y="140.7935">...</text><text fill="#000000" font-family="sans-serif" font-size="13" lengthAdjust="spacing" textLength="4.1323" x="219.4058" y="140.7935">&#160;</text><path d="M228.8715,131.9427 C226.4882,131.9427 224.5382,133.8927 224.5382,136.276 C224.5382,138.6594 226.4882,140.6094 228.8715,140.6094 C231.2548,140.6094 233.2048,138.6594 233.2048,136.276 C233.2048,133.8927 231.2548,131.9427 228.8715,131.9427 M228.8715,133.026 C230.6698,133.026 232.1215,134.4777 232.1215,136.276 C232.1215,138.0744 230.6698,139.526 228.8715,139.526 C227.0732,139.526 225.6215,138.0744 225.6215,136.276 C225.6215,134.4777 227.0732,133.026 228.8715,133.026 M228.3298,134.1094 L228.3298,136.5144 L228.5032,136.6552 L229.0448,137.1969 L229.4132,137.6085 L230.1932,136.8285 L229.7815,136.4602 L229.4132,136.0919 L229.4132,134.131 L228.3298,134.131" fill="#000000"/><text fill="#000000" font-family="sans-serif" font-size="13" lengthAdjust="spacing" textLength="4.1323" x="234.2048" y="140.7935">&#160;</text><text fill="#000000" font-family="sans-serif" font-size="13" lengthAdjust="spacing" textLength="12.397" x="238.3372" y="140.7935">...</text><polygon fill="#FF0000" points="325.2283,183.9922,335.2283,187.9922,325.2283,191.9922,329.2283,187.9922" style="stroke:#FF0000;stroke-width:1;"/><line style="stroke:#FF0000;stroke-width:1;" x1="140.8362" x2="331.2283" y1="187.9922" y2="187.9922"/><text fill="#000000" font-family="sans-serif" font-size="13" font-weight="bold" lengthAdjust="spacing" textLength="9.0454" x="147.8362" y="182.9263">2</text><text fill="#000000" font-family="sans-serif" font-size="13" lengthAdjust="spacing" textLength="35.2104" x="160.8816" y="182.9263">TEMP</text><text fill="#000000" font-family="sans-serif" font-size="13" lengthAdjust="spacing" textLength="4.1323" x="196.092" y="182.9263">&#160;</text><text fill="#000000" font-family="sans-serif" font-size="13" lengthAdjust="spacing" textLength="48.8579" x="200.2244" y="182.9263">Kitchen</text><text fill="#000000" font-family="sans-serif" font-size="13" lengthAdjust="spacing" textLength="4.1323" x="249.0823" y="182.9263">&#160;</text><text fill="#000000" font-family="sans-serif" font-size="13" lengthAdjust="spacing" textLength="28.9453" x="253.2146" y="182.9263">21.2</text><line style="stroke:#181818;stroke-width:1;" x1="337.2283" x2="379.2283" y1="232.2578" y2="232.2578"/><line style="stroke:#181818;stroke-width:1;" x1="379.2283" x2="379.2283" y1="232.2578" y2="245.2578"/><line style="stroke:#181818;stroke-width:1;" x1="338.2283" x2="379.2283" y1="245.2578" y2="245.2578"/><polygon fill="#181818" points="348.2283,241.2578,338.2283,245.2578,348.2283,249.2578,344.2283,245.2578" style="stroke:#181818;stroke-width:1;"/><text fill="#000000" font-family="sans-serif" font-size="13" font-weight="bold" lengthAdjust="spacing" textLength="9.0454" x="344.2283" y="219.6255">3</text><text fill="#000000" font-family="sans-serif" font-size="13" lengthAdjust="spacing" textLength="34.6455" x="357.2737" y="212.0591">Store</text><text fill="#000000" font-family="sans-serif" font-size="13" lengthAdjust="spacing" textLength="4.1323" x="391.9192" y="212.0591">&#160;</text><text fill="#000000" font-family="sans-serif" font-size="13" lengthAdjust="spacing" textLength="21.3345" x="396.0515" y="212.0591">the</text><text fill="#000000" font-family="sans-serif" font-size="13" lengthAdjust="spacing" textLength="4.1323" x="417.386" y="212.0591">&#160;</text><text fill="#000000" font-family="sans-serif" font-size="13" lengthAdjust="spacing" textLength="44.2622" x="421.5183" y="212.0591">room's</text><text fill="#000000" font-family="sans-serif" font-size="13" lengthAdjust="spacing" textLength="81.999" x="357.2737" y="227.1919">temperature</text><rect fill="#EEEEEE" height="3" style="stroke:#EEEEEE;stroke-width:1;" width="433.4888" x="101.2971" y="301.8242"/><line style="stroke:#000000;stroke-width:1;" x1="101.2971" x2="534.7859" y1="301.8242" y2="301.8242"/><line style="stroke:#000000;stroke-width:1;" x1="101.2971" x2="534.7859" y1="304.8242" y2="304.8242"/><rect fill="#EEEEEE" height="23.1328" style="stroke:#000000;stroke-width:2;" width="175.7891" x="230.147" y="291.2578"/><text fill="#000000" font-family="sans-serif" font-size="13" font-weight="bold" lengthAdjust="spacing" textLength="157.2632" x="236.147" y="307.3247">Request temperature</text><polygon fill="#0000FF" points="348.2283,341.5234,338.2283,345.5234,348.2283,349.5234,344.2283,345.5234" style="stroke:#0000FF;stroke-width:1;"/><line style="stroke:#0000FF;stroke-width:1;" x1="342.2283" x2="495.4534" y1="345.5234" y2="345.5234"/><text fill="#000000" font-family="sans-serif" font-size="13" font-weight="bold" lengthAdjust="spacing" textLength="9.0454" x="354.2283" y="340.4575">4</text><text fill="#000000" font-family="sans-serif" font-size="13" lengthAdjust="spacing" textLength="69.1895" x="367.2737" y="340.4575">REQ_TEMP</text><text fill="#000000" font-family="sans-serif" font-size="13" lengthAdjust="spacing" textLength="4.1323" x="436.4631" y="340.4575">&#160;</text><text fill="#000000" font-family="sans-serif" font-size="13" lengthAdjust="spacing" textLength="48.8579" x="440.5955" y="340.4575">Kitchen</text><polygon fill="#0000FF" points="484.4534,370.6563,494.4534,374.6563,484.4534,378.6563,488.4534,374.6563" style="stroke:#0000FF;stroke-width:1;"/><line style="stroke:#0000FF;stroke-width:1;" x1="337.2283" x2="490.4534" y1="374.6563" y2="374.6563"/><text fill="#000000" font-family="sans-serif" font-size="13" font-weight="bold" lengthAdjust="spacing" textLength="9.0454" x="344.2283" y="369.5903">5</text><text fill="#000000" font-family="sans-serif" font-size="13" lengthAdjust="spacing" textLength="35.2104" x="357.2737" y="369.5903">TEMP</text><text fill="#000000" font-family="sans-serif" font-size="13" lengthAdjust="spacing" textLength="4.1323" x="392.4841" y="369.5903">&#160;</text><text fill="#000000" font-family="sans-serif" font-size="13" lengthAdjust="spacing" textLength="28.9453" x="396.6165" y="369.5903">21.2</text><polygon fill="#0000FF" points="348.2283,399.7891,338.2283,403.7891,348.2283,407.7891,344.2283,403.7891" style="stroke:#0000FF;stroke-width:1;"/><line style="stroke:#0000FF;stroke-width:1;" x1="342.2283" x2="495.4534" y1="403.7891" y2="403.7891"/><text fill="#000000" font-family="sans-serif" font-size="13" font-weight="bold" lengthAdjust="spacing" textLength="9.0454" x="395.9387" y="398.7231">6</text><text fill="#000000" font-family="sans-serif" font-size="13" lengthAdjust="spacing" textLength="27.479" x="408.9841" y="398.7231">REQ</text><text fill="#000000" font-family="sans-serif" font-size="13" lengthAdjust="spacing" textLength="4.1323" x="436.4631" y="398.7231">&#160;</text><text fill="#000000" font-family="sans-serif" font-size="13" lengthAdjust="spacing" textLength="48.8579" x="440.5955" y="398.7231">Kitchen</text><polygon fill="#0000FF" points="484.4534,428.9219,494.4534,432.9219,484.4534,436.9219,488.4534,432.9219" style="stroke:#0000FF;stroke-width:1;"/><line style="stroke:#0000FF;stroke-width:1;" x1="337.2283" x2="490.4534" y1="432.9219" y2="432.9219"/><text fill="#000000" font-family="sans-serif" font-size="13" font-weight="bold" lengthAdjust="spacing" textLength="9.0454" x="344.2283" y="427.856">7</text><text fill="#000000" font-family="sans-serif" font-size="13" lengthAdjust="spacing" textLength="45.5444" x="357.2737" y="427.856">ERROR</text><text fill="#000000" font-family="sans-serif" font-size="13" lengthAdjust="spacing" textLength="4.1323" x="402.8181" y="427.856">&#160;</text><text fill="#000000" font-family="sans-serif" font-size="13" lengthAdjust="spacing" textLength="12.9619" x="406.9504" y="427.856">-1</text><rect fill="#DDDDDD" height="128.0781" rx="7.5" ry="7.5" style="stroke:#000000;stroke-width:1;" width="445.3945" x="94.8442" y="494.2188"/><text fill="#000000" font-family="sans-serif" font-size="14" font-weight="bold" lengthAdjust="spacing" textLength="57.9209" x="99.8442" y="512.2139">Legend</text><text fill="#000000" font-family="sans-serif" font-size="14" lengthAdjust="spacing" textLength="4.4502" x="99.8442" y="528.5107">&#160;</text><text fill="#000000" font-family="sans-serif" font-size="14" lengthAdjust="spacing" textLength="435.3945" x="99.8442" y="544.8076">Types of communication and patterns used in the application.</text><text fill="#000000" font-family="sans-serif" font-size="14" lengthAdjust="spacing" textLength="4.4502" x="99.8442" y="561.1045">&#160;</text><text fill="#000000" font-family="sans-serif" font-size="14" lengthAdjust="spacing" textLength="4.4502" x="99.8442" y="579.4014">&#160;</text><text fill="#000000" font-family="sans-serif" font-size="14" font-weight="bold" lengthAdjust="spacing" textLength="41.2139" x="104.2944" y="579.4014">Color</text><text fill="#000000" font-family="sans-serif" font-size="14" lengthAdjust="spacing" textLength="4.4502" x="145.5083" y="579.4014">&#160;</text><text fill="#000000" font-family="sans-serif" font-size="14" lengthAdjust="spacing" textLength="4.4502" x="149.9585" y="579.4014">&#160;</text><text fill="#000000" font-family="sans-serif" font-size="14" font-weight="bold" lengthAdjust="spacing" textLength="38.1924" x="154.4087" y="579.4014">Type</text><text fill="#000000" font-family="sans-serif" font-size="14" lengthAdjust="spacing" textLength="8.9004" x="192.6011" y="579.4014">&#160;&#160;</text><text fill="#000000" font-family="sans-serif" font-size="14" lengthAdjust="spacing" textLength="4.4502" x="222.1392" y="579.4014">&#160;</text><text fill="#000000" font-family="sans-serif" font-size="14" font-weight="bold" lengthAdjust="spacing" textLength="59.459" x="226.5894" y="579.4014">Pattern</text><text fill="#000000" font-family="sans-serif" font-size="14" lengthAdjust="spacing" textLength="26.7012" x="286.0483" y="579.4014">&#160;&#160;&#160;&#160;&#160;&#160;</text><rect fill="#FF0000" height="16.2969" style="stroke:none;stroke-width:1;" width="50.1143" x="99.8442" y="582.7031"/><text fill="#000000" font-family="sans-serif" font-size="14" lengthAdjust="spacing" textLength="17.8008" x="99.8442" y="595.6982">&#160;&#160;&#160;&#160;</text><text fill="#000000" font-family="sans-serif" font-size="14" lengthAdjust="spacing" textLength="63.2803" x="154.4087" y="595.6982">Multicast</text><text fill="#000000" font-family="sans-serif" font-size="14" lengthAdjust="spacing" textLength="103.79" x="226.5894" y="595.6982">Fire and forget</text><rect fill="#0000FF" height="16.2969" style="stroke:none;stroke-width:1;" width="50.1143" x="99.8442" y="599"/><text fill="#000000" font-family="sans-serif" font-size="14" lengthAdjust="spacing" textLength="13.3506" x="99.8442" y="611.9951">&#160;&#160;&#160;</text><text fill="#000000" font-family="sans-serif" font-size="14" lengthAdjust="spacing" textLength="52.0693" x="154.4087" y="611.9951">Unicast</text><text fill="#000000" font-family="sans-serif" font-size="14" lengthAdjust="spacing" textLength="126.4443" x="226.5894" y="611.9951">Request-response</text><line style="stroke:#000000;stroke-width:1;" x1="99.8442" x2="357.4839" y1="566.4063" y2="566.4063"/><line style="stroke:#000000;stroke-width:1;" x1="99.8442" x2="357.4839" y1="582.7031" y2="582.7031"/><line style="stroke:#000000;stroke-width:1;" x1="99.8442" x2="357.4839" y1="599" y2="599"/><line style="stroke:#000000;stroke-width:1;" x1="99.8442" x2="357.4839" y1="615.2969" y2="615.2969"/><line style="stroke:#000000;stroke-width:1;" x1="99.8442" x2="99.8442" y1="566.4063" y2="615.2969"/><line style="stroke:#000000;stroke-width:1;" x1="149.9585" x2="149.9585" y1="566.4063" y2="615.2969"/><line style="stroke:#000000;stroke-width:1;" x1="222.1392" x2="222.1392" y1="566.4063" y2="615.2969"/><line style="stroke:#000000;stroke-width:1;" x1="357.4839" x2="357.4839" y1="566.4063" y2="615.2969"/><!--SRC=[TL9HQzim47xNhxXbi871eGxRIsaCOtWmjj3CoTZ3A4EnhuwefTCakSjAVlnESjgvjFM3kUFxxhxxxkHlbB7IIGqxEgnbsohJGN5s9lm3eELXXTxB3ZVg3g5uFmKD1TpY8NpeLMSqcW0D_z1DA1v_3sWQF3L9J6YLmoOeCXFY7oVj3zM6FInOGmw1pA1tt4kyiavsMa90keFW1XGYgD0ZpBQeBJeP1eUWoQX0BZgGrlQgaL40hAD03VMGGtMGsdBPEuu_crlPgnOQqbgQTYO4Jn5Kewna5xDAgy0-e9Y1z835y-XYH1UFqGswMtG9ye-HopGiZHW9iLn2RCN6_jjOBeN00lAyPDbpk7ZJzDJSb32VprzEKiNFrmxRgnByEMohrHg-gD3iqS2Yc2-4XpmX6vP727i4HwJV-gcs4B5LdAgEH_DF1wEeiki776NgwjklgLHKUS3fD4QIVwRofQAghYzho0iXUkpGj2BBlgOWouJO_hN8gxjETnlC_P7vWc1bl8dnC7XiGPbaSl8IsDaHikmZzUIo368Skt6OulLO7jFu7Pby4HTQfWnMGyztbBoJ8tpYrviahybr6Ex9qKAPoD_DI8tnQPMvGs_9U6GoUpbP-mS0]--></g></svg>