<svg xmlns="http://www.w3.org/2000/svg" xmlns:xlink="http://www.w3.org/1999/xlink" contentStyleType="text/css" data-diagram-type="SEQUENCE" height="886px" preserveAspectRatio="none" style="width:658px;height:886px;background:#FFFFFF;" version="1.1" viewBox="0 0 658 886" width="658px" zoomAndPan="magnify"><title>Temperature monitoring application protocol - Example 1 - Functional example</title><defs/><g><text fill="#000000" font-family="sans-serif" font-size="14" font-weight="bold" lengthAdjust="spacing" textLength="625.1807" x="15" y="27.9951">Temperature monitoring application protocol - Example 1 - Functional example</text><g><title>Emitter 1</title><rect fill="#000000" fill-opacity="0.00000" height="245.0625" width="8" x="97.7441" y="73.5938"/><line style="stroke:#181818;stroke-width:0.5;stroke-dasharray:5,5;" x1="101.2441" x2="101.2441" y1="73.5938" y2="318.6563"/></g><line style="stroke:#181818;stroke-width:0.5;stroke-dasharray:1,4;" x1="101.2441" x2="101.2441" y1="318.6563" y2="346.6563"/><g><title>Emitter 1</title><rect fill="#000000" fill-opacity="0.00000" height="128.5313" width="8" x="97.7441" y="346.6563"/><line style="stroke:#181818;stroke-width:0.5;stroke-dasharray:5,5;" x1="101.2441" x2="101.2441" y1="346.6563" y2="475.1875"/></g><line style="stroke:#181818;stroke-width:0.5;stroke-dasharray:1,4;" x1="101.2441" x2="101.2441" y1="475.1875" y2="503.1875"/><g><title>Emitter 1</title><rect fill="#000000" fill-opacity="0.00000" height="191.9297" width="8" x="97.7441" y="503.1875"/><line style="stroke:#181818;stroke-width:0.5;stroke-dasharray:5,5;" x1="101.2441" x2="101.2441" y1="503.1875" y2="695.1172"/></g><g><title>Emitter 2</title><rect fill="#000000" fill-opacity="0.00000" height="245.0625" width="8" x="214.6421" y="73.5938"/><line style="stroke:#181818;stroke-width:0.5;stroke-dasharray:5,5;" x1="218.1421" x2="218.1421" y1="73.5938" y2="318.6563"/></g><line style="stroke:#181818;stroke-width:0.5;stroke-dasharray:1,4;" x1="218.1421" x2="218.1421" y1="318.6563" y2="346.6563"/><g><title>Emitter 2</title><rect fill="#000000" fill-opacity="0.00000" height="128.5313" width="8" x="214.6421" y="346.6563"/><line style="stroke:#181818;stroke-width:0.5;stroke-dasharray:5,5;" x1="218.1421" x2="218.1421" y1="346.6563" y2="475.1875"/></g><line style="stroke:#181818;stroke-width:0.5;stroke-dasharray:1,4;" x1="218.1421" x2="218.1421" y1="475.1875" y2="503.1875"/><g><title>Emitter 2</title><rect fill="#000000" fill-opacity="0.00000" height="191.9297" width="8" x="214.6421" y="503.1875"/><line style="stroke:#181818;stroke-width:0.5;stroke-dasharray:5,5;" x1="218.1421" x2="218.1421" y1="503.1875" y2="695.1172"/></g><g><title>Server</title><rect fill="#000000" fill-opacity="0.00000" height="245.0625" width="8" x="383.1919" y="73.5938"/><line style="stroke:#181818;stroke-width:0.5;stroke-dasharray:5,5;" x1="386.6919" x2="386.6919" y1="73.5938" y2="318.6563"/></g><line style="stroke:#181818;stroke-width:0.5;stroke-dasharray:1,4;" x1="386.6919" x2="386.6919" y1="318.6563" y2="346.6563"/><g><title>Server</title><rect fill="#000000" fill-opacity="0.00000" height="128.5313" width="8" x="383.1919" y="346.6563"/><line style="stroke:#181818;stroke-width:0.5;stroke-dasharray:5,5;" x1="386.6919" x2="386.6919" y1="346.6563" y2="475.1875"/></g><line style="stroke:#181818;stroke-width:0.5;stroke-dasharray:1,4;" x1="386.6919" x2="386.6919" y1="475.1875" y2="503.1875"/><g><title>Server</title><rect fill="#000000" fill-opacity="0.00000" height="191.9297" width="8" x="383.1919" y="503.1875"/><line style="stroke:#181818;stroke-width:0.5;stroke-dasharray:5,5;" x1="386.6919" x2="386.6919" y1="503.1875" y2="695.1172"/></g><g><title>Operator</title><rect fill="#000000" fill-opacity="0.00000" height="245.0625" width="8" x="552.6431" y="73.5938"/><line style="stroke:#181818;stroke-width:0.5;stroke-dasharray:5,5;" x1="556.1431" x2="556.1431" y1="73.5938" y2="318.6563"/></g><line style="stroke:#181818;stroke-width:0.5;stroke-dasharray:1,4;" x1="556.1431" x2="556.1431" y1="318.6563" y2="346.6563"/><g><title>Operator</title><rect fill="#000000" fill-opacity="0.00000" height="128.5313" width="8" x="552.6431" y="346.6563"/><line style="stroke:#181818;stroke-width:0.5;stroke-dasharray:5,5;" x1="556.1431" x2="556.1431" y1="346.6563" y2="475.1875"/></g><line style="stroke:#181818;stroke-width:0.5;stroke-dasharray:1,4;" x1="556.1431" x2="556.1431" y1="475.1875" y2="503.1875"/><g><title>Operator</title><rect fill="#000000" fill-opacity="0.00000" height="191.9297" width="8" x="552.6431" y="503.1875"/><line style="stroke:#181818;stroke-width:0.5;stroke-dasharray:5,5;" x1="556.1431" x2="556.1431" y1="503.1875" y2="695.1172"/></g><rect fill="#E2E2F0" height="30.2969" rx="2.5" ry="2.5" style="stroke:#181818;stroke-width:0.5;" width="79.0781" x="61.7051" y="42.2969"/><text fill="#000000" font-family="sans-serif" font-size="14" lengthAdjust="spacing" textLength="65.0781" x="68.7051" y="62.292">Emitter 1</text><rect fill="#E2E2F0" height="30.2969" rx="2.5" ry="2.5" style="stroke:#181818;stroke-width:0.5;" width="79.0781" x="178.603" y="42.2969"/><text fill="#000000" font-family="sans-serif" font-size="14" lengthAdjust="spacing" textLength="65.0781" x="185.603" y="62.292">Emitter 2</text><rect fill="#E2E2F0" height="30.2969" rx="2.5" ry="2.5" style="stroke:#181818;stroke-width:0.5;" width="59.9102" x="356.7368" y="42.2969"/><text fill="#000000" font-family="sans-serif" font-size="14" lengthAdjust="spacing" textLength="45.9102" x="363.7368" y="62.292">Server</text><rect fill="#E2E2F0" height="30.2969" rx="2.5" ry="2.5" style="stroke:#181818;stroke-width:0.5;" width="76.665" x="517.8105" y="42.2969"/><text fill="#000000" font-family="sans-serif" font-size="14" lengthAdjust="spacing" textLength="62.665" x="524.8105" y="62.292">Operator</text><rect fill="#E2E2F0" height="30.2969" rx="2.5" ry="2.5" style="stroke:#181818;stroke-width:0.5;" width="79.0781" x="61.7051" y="695.1172"/><text fill="#000000" font-family="sans-serif" font-size="14" lengthAdjust="spacing" textLength="65.0781" x="68.7051" y="715.1123">Emitter 1</text><rect fill="#E2E2F0" height="30.2969" rx="2.5" ry="2.5" style="stroke:#181818;stroke-width:0.5;" width="79.0781" x="178.603" y="695.1172"/><text fill="#000000" font-family="sans-serif" font-size="14" lengthAdjust="spacing" textLength="65.0781" x="185.603" y="715.1123">Emitter 2</text><rect fill="#E2E2F0" height="30.2969" rx="2.5" ry="2.5" style="stroke:#181818;stroke-width:0.5;" width="59.9102" x="356.7368" y="695.1172"/><text fill="#000000" font-family="sans-serif" font-size="14" lengthAdjust="spacing" textLength="45.9102" x="363.7368" y="715.1123">Server</text><rect fill="#E2E2F0" height="30.2969" rx="2.5" ry="2.5" style="stroke:#181818;stroke-width:0.5;" width="76.665" x="517.8105" y="695.1172"/><text fill="#000000" font-family="sans-serif" font-size="14" lengthAdjust="spacing" textLength="62.665" x="524.8105" y="715.1123">Operator</text><rect fill="#EEEEEE" height="3" style="stroke:#EEEEEE;stroke-width:1;" width="532.7705" x="61.7051" y="102.1602"/><line style="stroke:#000000;stroke-width:1;" x1="61.7051" x2="594.4756" y1="102.1602" y2="102.1602"/><line style="stroke:#000000;stroke-width:1;" x1="61.7051" x2="594.4756" y1="105.1602" y2="105.1602"/><rect fill="#EEEEEE" height="23.1328" style="stroke:#000000;stroke-width:2;" width="148.729" x="253.7258" y="91.5938"/><text fill="#000000" font-family="sans-serif" font-size="13" font-weight="bold" lengthAdjust="spacing" textLength="130.2031" x="259.7258" y="107.6606">Emit temperature</text><path d="M71.4971,129.7266 L71.4971,184.7266 L415.4971,184.7266 L415.4971,139.7266 L405.4971,129.7266 L71.4971,129.7266" fill="#FEFFDD" style="stroke:#181818;stroke-width:0.5;"/><path d="M405.4971,129.7266 L405.4971,139.7266 L415.4971,139.7266 L405.4971,129.7266" fill="#FEFFDD" style="stroke:#181818;stroke-width:0.5;"/><text fill="#000000" font-family="sans-serif" font-size="13" lengthAdjust="spacing" textLength="17.1323" x="189.2925" y="146.7935">An</text><text fill="#000000" font-family="sans-serif" font-size="13" lengthAdjust="spacing" textLength="4.1323" x="206.4248" y="146.7935">&#160;</text><text fill="#000000" font-family="sans-serif" font-size="13" lengthAdjust="spacing" textLength="47.8105" x="210.5571" y="146.7935">emitter</text><text fill="#000000" font-family="sans-serif" font-size="13" lengthAdjust="spacing" textLength="4.1323" x="258.3677" y="146.7935">&#160;</text><text fill="#000000" font-family="sans-serif" font-size="13" lengthAdjust="spacing" textLength="36.1436" x="262.5" y="146.7935">emits</text><text fill="#000000" font-family="sans-serif" font-size="13" lengthAdjust="spacing" textLength="15.4819" x="193.1614" y="161.9263">its</text><text fill="#000000" font-family="sans-serif" font-size="13" lengthAdjust="spacing" textLength="4.1323" x="208.6433" y="161.9263">&#160;</text><text fill="#000000" font-family="sans-serif" font-size="13" lengthAdjust="spacing" textLength="81.999" x="212.7756" y="161.9263">temperature</text><text fill="#000000" font-family="sans-serif" font-size="13" lengthAdjust="spacing" textLength="79.187" x="204.3745" y="177.0591">periodically.</text><line style="stroke:#181818;stroke-width:1;stroke-dasharray:2,2;" x1="101.2441" x2="143.2441" y1="211.2578" y2="211.2578"/><line style="stroke:#181818;stroke-width:1;stroke-dasharray:2,2;" x1="143.2441" x2="143.2441" y1="211.2578" y2="224.2578"/><line style="stroke:#181818;stroke-width:1;stroke-dasharray:2,2;" x1="102.2441" x2="143.2441" y1="224.2578" y2="224.2578"/><polygon fill="#181818" points="112.2441,220.2578,102.2441,224.2578,112.2441,228.2578,108.2441,224.2578" style="stroke:#181818;stroke-width:1;"/><text fill="#000000" font-family="sans-serif" font-size="13" font-weight="bold" lengthAdjust="spacing" textLength="9.0454" x="108.2441" y="206.1919">1</text><path d="M126.6229,197.3411 C124.2396,197.3411 122.2896,199.2911 122.2896,201.6745 C122.2896,204.0578 124.2396,206.0078 126.6229,206.0078 C129.0062,206.0078 130.9562,204.0578 130.9562,201.6745 C130.9562,199.2911 129.0062,197.3411 126.6229,197.3411 M126.6229,198.4245 C128.4212,198.4245 129.8729,199.8761 129.8729,201.6745 C129.8729,203.4728 128.4212,204.9245 126.6229,204.9245 C124.8246,204.9245 123.3729,203.4728 123.3729,201.6745 C123.3729,199.8761 124.8246,198.4245 126.6229,198.4245 M126.0812,199.5078 L126.0812,201.9128 L126.2546,202.0536 L126.7962,202.5953 L127.1646,203.007 L127.9446,202.227 L127.5329,201.8586 L127.1646,201.4903 L127.1646,199.5295 L126.0812,199.5295" fill="#000000"/><text fill="#000000" font-family="sans-serif" font-size="13" lengthAdjust="spacing" textLength="4.1323" x="131.9562" y="206.1919">&#160;</text><text fill="#000000" font-family="sans-serif" font-size="13" lengthAdjust="spacing" textLength="12.397" x="136.0885" y="206.1919">...</text><text fill="#000000" font-family="sans-serif" font-size="13" lengthAdjust="spacing" textLength="4.1323" x="148.4855" y="206.1919">&#160;</text><path d="M157.9512,197.3411 C155.5678,197.3411 153.6178,199.2911 153.6178,201.6745 C153.6178,204.0578 155.5678,206.0078 157.9512,206.0078 C160.3345,206.0078 162.2845,204.0578 162.2845,201.6745 C162.2845,199.2911 160.3345,197.3411 157.9512,197.3411 M157.9512,198.4245 C159.7495,198.4245 161.2012,199.8761 161.2012,201.6745 C161.2012,203.4728 159.7495,204.9245 157.9512,204.9245 C156.1528,204.9245 154.7012,203.4728 154.7012,201.6745 C154.7012,199.8761 156.1528,198.4245 157.9512,198.4245 M157.4095,199.5078 L157.4095,201.9128 L157.5828,202.0536 L158.1245,202.5953 L158.4928,203.007 L159.2728,202.227 L158.8612,201.8586 L158.4928,201.4903 L158.4928,199.5295 L157.4095,199.5295" fill="#000000"/><text fill="#000000" font-family="sans-serif" font-size="13" lengthAdjust="spacing" textLength="4.1323" x="163.2845" y="206.1919">&#160;</text><text fill="#000000" font-family="sans-serif" font-size="13" lengthAdjust="spacing" textLength="12.397" x="167.4168" y="206.1919">...</text><text fill="#000000" font-family="sans-serif" font-size="13" lengthAdjust="spacing" textLength="4.1323" x="179.8138" y="206.1919">&#160;</text><path d="M189.2795,197.3411 C186.8961,197.3411 184.9461,199.2911 184.9461,201.6745 C184.9461,204.0578 186.8961,206.0078 189.2795,206.0078 C191.6628,206.0078 193.6128,204.0578 193.6128,201.6745 C193.6128,199.2911 191.6628,197.3411 189.2795,197.3411 M189.2795,198.4245 C191.0778,198.4245 192.5295,199.8761 192.5295,201.6745 C192.5295,203.4728 191.0778,204.9245 189.2795,204.9245 C187.4811,204.9245 186.0295,203.4728 186.0295,201.6745 C186.0295,199.8761 187.4811,198.4245 189.2795,198.4245 M188.7378,199.5078 L188.7378,201.9128 L188.9111,202.0536 L189.4528,202.5953 L189.8211,203.007 L190.6011,202.227 L190.1895,201.8586 L189.8211,201.4903 L189.8211,199.5295 L188.7378,199.5295" fill="#000000"/><text fill="#000000" font-family="sans-serif" font-size="13" lengthAdjust="spacing" textLength="4.1323" x="194.6128" y="206.1919">&#160;</text><text fill="#000000" font-family="sans-serif" font-size="13" lengthAdjust="spacing" textLength="12.397" x="198.7451" y="206.1919">...</text><polygon fill="#FF0000" points="374.6919,249.3906,384.6919,253.3906,374.6919,257.3906,378.6919,253.3906" style="stroke:#FF0000;stroke-width:1;"/><line style="stroke:#FF0000;stroke-width:1;" x1="101.2441" x2="380.6919" y1="253.3906" y2="253.3906"/><text fill="#000000" font-family="sans-serif" font-size="13" font-weight="bold" lengthAdjust="spacing" textLength="9.0454" x="108.2441" y="248.3247">2</text><text fill="#000000" font-family="sans-serif" font-size="13" lengthAdjust="spacing" textLength="35.2104" x="121.2896" y="248.3247">TEMP</text><text fill="#000000" font-family="sans-serif" font-size="13" lengthAdjust="spacing" textLength="4.1323" x="156.5" y="248.3247">&#160;</text><text fill="#000000" font-family="sans-serif" font-size="13" lengthAdjust="spacing" textLength="48.8579" x="160.6323" y="248.3247">Kitchen</text><text fill="#000000" font-family="sans-serif" font-size="13" lengthAdjust="spacing" textLength="4.1323" x="209.4902" y="248.3247">&#160;</text><text fill="#000000" font-family="sans-serif" font-size="13" lengthAdjust="spacing" textLength="28.9453" x="213.6226" y="248.3247">21.2</text><line style="stroke:#181818;stroke-width:1;" x1="386.6919" x2="428.6919" y1="297.6563" y2="297.6563"/><line style="stroke:#181818;stroke-width:1;" x1="428.6919" x2="428.6919" y1="297.6563" y2="310.6563"/><line style="stroke:#181818;stroke-width:1;" x1="387.6919" x2="428.6919" y1="310.6563" y2="310.6563"/><polygon fill="#181818" points="397.6919,306.6563,387.6919,310.6563,397.6919,314.6563,393.6919,310.6563" style="stroke:#181818;stroke-width:1;"/><text fill="#000000" font-family="sans-serif" font-size="13" font-weight="bold" lengthAdjust="spacing" textLength="9.0454" x="393.6919" y="285.0239">3</text><text fill="#000000" font-family="sans-serif" font-size="13" lengthAdjust="spacing" textLength="34.6455" x="406.7373" y="277.4575">Store</text><text fill="#000000" font-family="sans-serif" font-size="13" lengthAdjust="spacing" textLength="4.1323" x="441.3828" y="277.4575">&#160;</text><text fill="#000000" font-family="sans-serif" font-size="13" lengthAdjust="spacing" textLength="21.3345" x="445.5151" y="277.4575">the</text><text fill="#000000" font-family="sans-serif" font-size="13" lengthAdjust="spacing" textLength="4.1323" x="466.8496" y="277.4575">&#160;</text><text fill="#000000" font-family="sans-serif" font-size="13" lengthAdjust="spacing" textLength="44.2622" x="470.9819" y="277.4575">room's</text><text fill="#000000" font-family="sans-serif" font-size="13" lengthAdjust="spacing" textLength="81.999" x="406.7373" y="292.5903">temperature</text><line style="stroke:#181818;stroke-width:1;stroke-dasharray:2,2;" x1="218.1421" x2="260.1421" y1="367.7891" y2="367.7891"/><line style="stroke:#181818;stroke-width:1;stroke-dasharray:2,2;" x1="260.1421" x2="260.1421" y1="367.7891" y2="380.7891"/><line style="stroke:#181818;stroke-width:1;stroke-dasharray:2,2;" x1="219.1421" x2="260.1421" y1="380.7891" y2="380.7891"/><polygon fill="#181818" points="229.1421,376.7891,219.1421,380.7891,229.1421,384.7891,225.1421,380.7891" style="stroke:#181818;stroke-width:1;"/><text fill="#000000" font-family="sans-serif" font-size="13" font-weight="bold" lengthAdjust="spacing" textLength="9.0454" x="225.1421" y="362.7231">4</text><path d="M243.5208,353.8724 C241.1375,353.8724 239.1875,355.8224 239.1875,358.2057 C239.1875,360.5891 241.1375,362.5391 243.5208,362.5391 C245.9042,362.5391 247.8542,360.5891 247.8542,358.2057 C247.8542,355.8224 245.9042,353.8724 243.5208,353.8724 M243.5208,354.9557 C245.3192,354.9557 246.7708,356.4074 246.7708,358.2057 C246.7708,360.0041 245.3192,361.4557 243.5208,361.4557 C241.7225,361.4557 240.2708,360.0041 240.2708,358.2057 C240.2708,356.4074 241.7225,354.9557 243.5208,354.9557 M242.9792,356.0391 L242.9792,358.4441 L243.1525,358.5849 L243.6942,359.1266 L244.0625,359.5382 L244.8425,358.7582 L244.4308,358.3899 L244.0625,358.0216 L244.0625,356.0607 L242.9792,356.0607" fill="#000000"/><text fill="#000000" font-family="sans-serif" font-size="13" lengthAdjust="spacing" textLength="4.1323" x="248.8542" y="362.7231">&#160;</text><text fill="#000000" font-family="sans-serif" font-size="13" lengthAdjust="spacing" textLength="12.397" x="252.9865" y="362.7231">...</text><text fill="#000000" font-family="sans-serif" font-size="13" lengthAdjust="spacing" textLength="4.1323" x="265.3835" y="362.7231">&#160;</text><path d="M274.8491,353.8724 C272.4658,353.8724 270.5158,355.8224 270.5158,358.2057 C270.5158,360.5891 272.4658,362.5391 274.8491,362.5391 C277.2325,362.5391 279.1825,360.5891 279.1825,358.2057 C279.1825,355.8224 277.2325,353.8724 274.8491,353.8724 M274.8491,354.9557 C276.6475,354.9557 278.0991,356.4074 278.0991,358.2057 C278.0991,360.0041 276.6475,361.4557 274.8491,361.4557 C273.0508,361.4557 271.5991,360.0041 271.5991,358.2057 C271.5991,356.4074 273.0508,354.9557 274.8491,354.9557 M274.3075,356.0391 L274.3075,358.4441 L274.4808,358.5849 L275.0225,359.1266 L275.3908,359.5382 L276.1708,358.7582 L275.7591,358.3899 L275.3908,358.0216 L275.3908,356.0607 L274.3075,356.0607" fill="#000000"/><text fill="#000000" font-family="sans-serif" font-size="13" lengthAdjust="spacing" textLength="4.1323" x="280.1825" y="362.7231">&#160;</text><text fill="#000000" font-family="sans-serif" font-size="13" lengthAdjust="spacing" textLength="12.397" x="284.3148" y="362.7231">...</text><text fill="#000000" font-family="sans-serif" font-size="13" lengthAdjust="spacing" textLength="4.1323" x="296.7118" y="362.7231">&#160;</text><path d="M306.1774,353.8724 C303.7941,353.8724 301.8441,355.8224 301.8441,358.2057 C301.8441,360.5891 303.7941,362.5391 306.1774,362.5391 C308.5607,362.5391 310.5107,360.5891 310.5107,358.2057 C310.5107,355.8224 308.5607,353.8724 306.1774,353.8724 M306.1774,354.9557 C307.9757,354.9557 309.4274,356.4074 309.4274,358.2057 C309.4274,360.0041 307.9757,361.4557 306.1774,361.4557 C304.3791,361.4557 302.9274,360.0041 302.9274,358.2057 C302.9274,356.4074 304.3791,354.9557 306.1774,354.9557 M305.6357,356.0391 L305.6357,358.4441 L305.8091,358.5849 L306.3507,359.1266 L306.7191,359.5382 L307.4991,358.7582 L307.0874,358.3899 L306.7191,358.0216 L306.7191,356.0607 L305.6357,356.0607" fill="#000000"/><text fill="#000000" font-family="sans-serif" font-size="13" lengthAdjust="spacing" textLength="4.1323" x="311.5107" y="362.7231">&#160;</text><text fill="#000000" font-family="sans-serif" font-size="13" lengthAdjust="spacing" textLength="12.397" x="315.6431" y="362.7231">...</text><polygon fill="#FF0000" points="374.6919,405.9219,384.6919,409.9219,374.6919,413.9219,378.6919,409.9219" style="stroke:#FF0000;stroke-width:1;"/><line style="stroke:#FF0000;stroke-width:1;" x1="218.1421" x2="380.6919" y1="409.9219" y2="409.9219"/><text fill="#000000" font-family="sans-serif" font-size="13" font-weight="bold" lengthAdjust="spacing" textLength="9.0454" x="225.1421" y="404.856">5</text><text fill="#000000" font-family="sans-serif" font-size="13" lengthAdjust="spacing" textLength="35.2104" x="238.1875" y="404.856">TEMP</text><text fill="#000000" font-family="sans-serif" font-size="13" lengthAdjust="spacing" textLength="4.1323" x="273.3979" y="404.856">&#160;</text><text fill="#000000" font-family="sans-serif" font-size="13" lengthAdjust="spacing" textLength="59.084" x="277.5303" y="404.856">Bedroom</text><text fill="#000000" font-family="sans-serif" font-size="13" lengthAdjust="spacing" textLength="4.1323" x="336.6143" y="404.856">&#160;</text><text fill="#000000" font-family="sans-serif" font-size="13" lengthAdjust="spacing" textLength="28.9453" x="340.7466" y="404.856">18.4</text><line style="stroke:#181818;stroke-width:1;" x1="386.6919" x2="428.6919" y1="454.1875" y2="454.1875"/><line style="stroke:#181818;stroke-width:1;" x1="428.6919" x2="428.6919" y1="454.1875" y2="467.1875"/><line style="stroke:#181818;stroke-width:1;" x1="387.6919" x2="428.6919" y1="467.1875" y2="467.1875"/><polygon fill="#181818" points="397.6919,463.1875,387.6919,467.1875,397.6919,471.1875,393.6919,467.1875" style="stroke:#181818;stroke-width:1;"/><text fill="#000000" font-family="sans-serif" font-size="13" font-weight="bold" lengthAdjust="spacing" textLength="9.0454" x="393.6919" y="441.5552">6</text><text fill="#000000" font-family="sans-serif" font-size="13" lengthAdjust="spacing" textLength="34.6455" x="406.7373" y="433.9888">Store</text><text fill="#000000" font-family="sans-serif" font-size="13" lengthAdjust="spacing" textLength="4.1323" x="441.3828" y="433.9888">&#160;</text><text fill="#000000" font-family="sans-serif" font-size="13" lengthAdjust="spacing" textLength="21.3345" x="445.5151" y="433.9888">the</text><text fill="#000000" font-family="sans-serif" font-size="13" lengthAdjust="spacing" textLength="4.1323" x="466.8496" y="433.9888">&#160;</text><text fill="#000000" font-family="sans-serif" font-size="13" lengthAdjust="spacing" textLength="44.2622" x="470.9819" y="433.9888">room's</text><text fill="#000000" font-family="sans-serif" font-size="13" lengthAdjust="spacing" textLength="81.999" x="406.7373" y="449.1216">temperature</text><rect fill="#EEEEEE" height="3" style="stroke:#EEEEEE;stroke-width:1;" width="532.7705" x="61.7051" y="523.7539"/><line style="stroke:#000000;stroke-width:1;" x1="61.7051" x2="594.4756" y1="523.7539" y2="523.7539"/><line style="stroke:#000000;stroke-width:1;" x1="61.7051" x2="594.4756" y1="526.7539" y2="526.7539"/><rect fill="#EEEEEE" height="23.1328" style="stroke:#000000;stroke-width:2;" width="175.7891" x="240.1958" y="513.1875"/><text fill="#000000" font-family="sans-serif" font-size="13" font-weight="bold" lengthAdjust="spacing" textLength="157.2632" x="246.1958" y="529.2544">Request temperature</text><path d="M357.5481,551.3203 L357.5481,621.3203 L584.5481,621.3203 L584.5481,561.3203 L574.5481,551.3203 L357.5481,551.3203" fill="#FEFFDD" style="stroke:#181818;stroke-width:0.5;"/><path d="M574.5481,551.3203 L574.5481,561.3203 L584.5481,561.3203 L574.5481,551.3203" fill="#FEFFDD" style="stroke:#181818;stroke-width:0.5;"/><text fill="#000000" font-family="sans-serif" font-size="13" lengthAdjust="spacing" textLength="17.1323" x="419.0874" y="568.3872">An</text><text fill="#000000" font-family="sans-serif" font-size="13" lengthAdjust="spacing" textLength="4.1323" x="436.2197" y="568.3872">&#160;</text><text fill="#000000" font-family="sans-serif" font-size="13" lengthAdjust="spacing" textLength="55.9102" x="440.3521" y="568.3872">operator</text><text fill="#000000" font-family="sans-serif" font-size="13" lengthAdjust="spacing" textLength="4.1323" x="496.2622" y="568.3872">&#160;</text><text fill="#000000" font-family="sans-serif" font-size="13" lengthAdjust="spacing" textLength="23.353" x="500.3945" y="568.3872">can</text><text fill="#000000" font-family="sans-serif" font-size="13" lengthAdjust="spacing" textLength="49.7021" x="416.3198" y="583.52">request</text><text fill="#000000" font-family="sans-serif" font-size="13" lengthAdjust="spacing" textLength="4.1323" x="466.022" y="583.52">&#160;</text><text fill="#000000" font-family="sans-serif" font-size="13" lengthAdjust="spacing" textLength="7.9663" x="470.1543" y="583.52">a</text><text fill="#000000" font-family="sans-serif" font-size="13" lengthAdjust="spacing" textLength="4.1323" x="478.1206" y="583.52">&#160;</text><text fill="#000000" font-family="sans-serif" font-size="13" lengthAdjust="spacing" textLength="44.2622" x="482.2529" y="583.52">room's</text><text fill="#000000" font-family="sans-serif" font-size="13" lengthAdjust="spacing" textLength="81.999" x="421.8201" y="598.6528">temperature</text><text fill="#000000" font-family="sans-serif" font-size="13" lengthAdjust="spacing" textLength="4.1323" x="503.8191" y="598.6528">&#160;</text><text fill="#000000" font-family="sans-serif" font-size="13" lengthAdjust="spacing" textLength="13.0635" x="507.9514" y="598.6528">at</text><text fill="#000000" font-family="sans-serif" font-size="13" lengthAdjust="spacing" textLength="23.8989" x="440.6504" y="613.7856">any</text><text fill="#000000" font-family="sans-serif" font-size="13" lengthAdjust="spacing" textLength="4.1323" x="464.5493" y="613.7856">&#160;</text><text fill="#000000" font-family="sans-serif" font-size="13" lengthAdjust="spacing" textLength="33.5029" x="468.6816" y="613.7856">time.</text><polygon fill="#0000FF" points="397.6919,643.9844,387.6919,647.9844,397.6919,651.9844,393.6919,647.9844" style="stroke:#0000FF;stroke-width:1;"/><line style="stroke:#0000FF;stroke-width:1;" x1="391.6919" x2="555.1431" y1="647.9844" y2="647.9844"/><text fill="#000000" font-family="sans-serif" font-size="13" font-weight="bold" lengthAdjust="spacing" textLength="9.0454" x="403.6919" y="642.9185">7</text><text fill="#000000" font-family="sans-serif" font-size="13" lengthAdjust="spacing" textLength="69.1895" x="416.7373" y="642.9185">REQ_TEMP</text><text fill="#000000" font-family="sans-serif" font-size="13" lengthAdjust="spacing" textLength="4.1323" x="485.9268" y="642.9185">&#160;</text><text fill="#000000" font-family="sans-serif" font-size="13" lengthAdjust="spacing" textLength="59.084" x="490.0591" y="642.9185">Bedroom</text><polygon fill="#0000FF" points="544.1431,673.1172,554.1431,677.1172,544.1431,681.1172,548.1431,677.1172" style="stroke:#0000FF;stroke-width:1;"/><line style="stroke:#0000FF;stroke-width:1;" x1="386.6919" x2="550.1431" y1="677.1172" y2="677.1172"/><text fill="#000000" font-family="sans-serif" font-size="13" font-weight="bold" lengthAdjust="spacing" textLength="9.0454" x="393.6919" y="672.0513">8</text><text fill="#000000" font-family="sans-serif" font-size="13" lengthAdjust="spacing" textLength="35.2104" x="406.7373" y="672.0513">TEMP</text><text fill="#000000" font-family="sans-serif" font-size="13" lengthAdjust="spacing" textLength="4.1323" x="441.9478" y="672.0513">&#160;</text><text fill="#000000" font-family="sans-serif" font-size="13" lengthAdjust="spacing" textLength="28.9453" x="446.0801" y="672.0513">18.4</text><rect fill="#DDDDDD" height="128.0781" rx="7.5" ry="7.5" style="stroke:#000000;stroke-width:1;" width="445.3945" x="104.8931" y="738.4141"/><text fill="#000000" font-family="sans-serif" font-size="14" font-weight="bold" lengthAdjust="spacing" textLength="57.9209" x="109.8931" y="756.4092">Legend</text><text fill="#000000" font-family="sans-serif" font-size="14" lengthAdjust="spacing" textLength="4.4502" x="109.8931" y="772.7061">&#160;</text><text fill="#000000" font-family="sans-serif" font-size="14" lengthAdjust="spacing" textLength="435.3945" x="109.8931" y="789.0029">Types of communication and patterns used in the application.</text><text fill="#000000" font-family="sans-serif" font-size="14" lengthAdjust="spacing" textLength="4.4502" x="109.8931" y="805.2998">&#160;</text><text fill="#000000" font-family="sans-serif" font-size="14" lengthAdjust="spacing" textLength="4.4502" x="109.8931" y="823.5967">&#160;</text><text fill="#000000" font-family="sans-serif" font-size="14" font-weight="bold" lengthAdjust="spacing" textLength="41.2139" x="114.3433" y="823.5967">Color</text><text fill="#000000" font-family="sans-serif" font-size="14" lengthAdjust="spacing" textLength="4.4502" x="155.5571" y="823.5967">&#160;</text><text fill="#000000" font-family="sans-serif" font-size="14" lengthAdjust="spacing" textLength="4.4502" x="160.0073" y="823.5967">&#160;</text><text fill="#000000" font-family="sans-serif" font-size="14" font-weight="bold" lengthAdjust="spacing" textLength="38.1924" x="164.4575" y="823.5967">Type</text><text fill="#000000" font-family="sans-serif" font-size="14" lengthAdjust="spacing" textLength="8.9004" x="202.6499" y="823.5967">&#160;&#160;</text><text fill="#000000" font-family="sans-serif" font-size="14" lengthAdjust="spacing" textLength="4.4502" x="232.188" y="823.5967">&#160;</text><text fill="#000000" font-family="sans-serif" font-size="14" font-weight="bold" lengthAdjust="spacing" textLength="59.459" x="236.6382" y="823.5967">Pattern</text><text fill="#000000" font-family="sans-serif" font-size="14" lengthAdjust="spacing" textLength="26.7012" x="296.0972" y="823.5967">&#160;&#160;&#160;&#160;&#160;&#160;</text><rect fill="#FF0000" height="16.2969" style="stroke:none;stroke-width:1;" width="50.1143" x="109.8931" y="826.8984"/><text fill="#000000" font-family="sans-serif" font-size="14" lengthAdjust="spacing" textLength="17.8008" x="109.8931" y="839.8936">&#160;&#160;&#160;&#160;</text><text fill="#000000" font-family="sans-serif" font-size="14" lengthAdjust="spacing" textLength="63.2803" x="164.4575" y="839.8936">Multicast</text><text fill="#000000" font-family="sans-serif" font-size="14" lengthAdjust="spacing" textLength="103.79" x="236.6382" y="839.8936">Fire and forget</text><rect fill="#0000FF" height="16.2969" style="stroke:none;stroke-width:1;" width="50.1143" x="109.8931" y="843.1953"/><text fill="#000000" font-family="sans-serif" font-size="14" lengthAdjust="spacing" textLength="13.3506" x="109.8931" y="856.1904">&#160;&#160;&#160;</text><text fill="#000000" font-family="sans-serif" font-size="14" lengthAdjust="spacing" textLength="52.0693" x="164.4575" y="856.1904">Unicast</text><text fill="#000000" font-family="sans-serif" font-size="14" lengthAdjust="spacing" textLength="126.4443" x="236.6382" y="856.1904">Request-response</text><line style="stroke:#000000;stroke-width:1;" x1="109.8931" x2="367.5327" y1="810.6016" y2="810.6016"/><line style="stroke:#000000;stroke-width:1;" x1="109.8931" x2="367.5327" y1="826.8984" y2="826.8984"/><line style="stroke:#000000;stroke-width:1;" x1="109.8931" x2="367.5327" y1="843.1953" y2="843.1953"/><line style="stroke:#000000;stroke-width:1;" x1="109.8931" x2="367.5327" y1="859.4922" y2="859.4922"/><line style="stroke:#000000;stroke-width:1;" x1="109.8931" x2="109.8931" y1="810.6016" y2="859.4922"/><line style="stroke:#000000;stroke-width:1;" x1="160.0073" x2="160.0073" y1="810.6016" y2="859.4922"/><line style="stroke:#000000;stroke-width:1;" x1="232.188" x2="232.188" y1="810.6016" y2="859.4922"/><line style="stroke:#000000;stroke-width:1;" x1="367.5327" x2="367.5327" y1="810.6016" y2="859.4922"/><!--SRC=[bLBlQzim4Fr-VyKjWmrC4sgpmIXDe1lfbosiRJBsOOoXsDT4rD9vahmb9N_yJhBREUm7My3noU_klNkdytVQDiefWslUNQcgqdQ3-Uaf-4V0gDs2l5SRMkfxmlpb4BGSQ4MxS57hZJLa0vRoHswGukbhIxQadYHbOgKTbK6p7IH-TwhvgAkmnK8qL1lOjcOjNF2aSMfZ50RYUmok9O2WGqquMf5foAdGEaB3LWTsqO5gcbgNAWfWupXmoJMESRvJff6oNEBBrgO6L8tKVHu1I2D1bxfHOcGqDpg85Sn7g3nI_dkqwD3Y65sI-qOkGVuOUP_wvGvZWEaK8vLu- -baEWM8aqKM4b4-4P8BYzHBnhS7UOP5887cIbpNzNu2PAjqEG0aRiSpOJd3ysTbpUNT32UJoPyFgUBJKqVLvndwCrpD5rVuLeToInQBV5A0nt52bkA3C6m97RDvVjmFH2gWebCl_bsz-5NzDLLH0VDNanV_eox3lOdhv_ysNtyYzo3ZvVvci5GMN5-cUd8Orgi0okunQ4F3INDiV5str7L-Cx_-Ckm-Dlw8S-yiEOAQDa83MVOk1La6iDet90joYoKRqzg7RLQYrgYu1jPZwwb2RTCC1YilnW-OPM-uPfTb6EF89c6AhxhoU8o_WoIVntdFqWaNRItRgiJx0IzrT2kIj-ms51wIeuTPIlvWkzGOzvCUE_8DMq-IB5vwQpy0]--></g></svg>