<svg xmlns="http://www.w3.org/2000/svg" xmlns:xlink="http://www.w3.org/1999/xlink" contentStyleType="text/css" data-diagram-type="SEQUENCE" height="696px" preserveAspectRatio="none" style="width:855px;height:696px;background:#FFFFFF;" version="1.1" viewBox="0 0 855 696" width="855px" zoomAndPan="magnify"><title>SMTP Protocol</title><defs/><g><text fill="#000000" font-family="sans-serif" font-size="14" font-weight="bold" lengthAdjust="spacing" textLength="114.5088" x="369.4331" y="27.9951">SMTP Protocol</text><g><title>Sender mail client .MUA. </title><rect fill="#000000" fill-opacity="0.00000" height="37.1328" width="8" x="97.8525" y="120.8906"/><line style="stroke:#181818;stroke-width:0.5;stroke-dasharray:5,5;" x1="101.3525" x2="101.3525" y1="120.8906" y2="158.0234"/></g><line style="stroke:#181818;stroke-width:0.5;stroke-dasharray:1,4;" x1="101.3525" x2="101.3525" y1="158.0234" y2="186.0234"/><g><title>Sender mail client .MUA. </title><rect fill="#000000" fill-opacity="0.00000" height="503.2578" width="8" x="97.8525" y="186.0234"/><line style="stroke:#181818;stroke-width:0.5;stroke-dasharray:5,5;" x1="101.3525" x2="101.3525" y1="186.0234" y2="689.2813"/></g><g><title>Sender SMTP Server .MTA. </title><rect fill="#000000" fill-opacity="0.00000" height="37.1328" width="8" x="303.4209" y="120.8906"/><line style="stroke:#181818;stroke-width:0.5;stroke-dasharray:5,5;" x1="306.9209" x2="306.9209" y1="120.8906" y2="158.0234"/></g><line style="stroke:#181818;stroke-width:0.5;stroke-dasharray:1,4;" x1="306.9209" x2="306.9209" y1="158.0234" y2="186.0234"/><g><title>Sender SMTP Server .MTA. </title><rect fill="#000000" fill-opacity="0.00000" height="503.2578" width="8" x="303.4209" y="186.0234"/><line style="stroke:#181818;stroke-width:0.5;stroke-dasharray:5,5;" x1="306.9209" x2="306.9209" y1="186.0234" y2="689.2813"/></g><g><title>Recipient SMTP Server .MTA. </title><rect fill="#000000" fill-opacity="0.00000" height="37.1328" width="8" x="519.8779" y="120.8906"/><line style="stroke:#181818;stroke-width:0.5;stroke-dasharray:5,5;" x1="523.3779" x2="523.3779" y1="120.8906" y2="158.0234"/></g><line style="stroke:#181818;stroke-width:0.5;stroke-dasharray:1,4;" x1="523.3779" x2="523.3779" y1="158.0234" y2="186.0234"/><g><title>Recipient SMTP Server .MTA. </title><rect fill="#000000" fill-opacity="0.00000" height="503.2578" width="8" x="519.8779" y="186.0234"/><line style="stroke:#181818;stroke-width:0.5;stroke-dasharray:5,5;" x1="523.3779" x2="523.3779" y1="186.0234" y2="689.2813"/></g><g><title>Recipient mail client .MUA. </title><rect fill="#000000" fill-opacity="0.00000" height="37.1328" width="8" x="741.4971" y="120.8906"/><line style="stroke:#181818;stroke-width:0.5;stroke-dasharray:5,5;" x1="744.9971" x2="744.9971" y1="120.8906" y2="158.0234"/></g><line style="stroke:#181818;stroke-width:0.5;stroke-dasharray:1,4;" x1="744.9971" x2="744.9971" y1="158.0234" y2="186.0234"/><g><title>Recipient mail client .MUA. </title><rect fill="#000000" fill-opacity="0.00000" height="503.2578" width="8" x="741.4971" y="186.0234"/><line style="stroke:#181818;stroke-width:0.5;stroke-dasharray:5,5;" x1="744.9971" x2="744.9971" y1="186.0234" y2="689.2813"/></g><rect fill="#E2E2F0" height="46.5938" rx="2.5" ry="2.5" style="stroke:#181818;stroke-width:0.5;" width="192.7051" x="5" y="73.2969"/><text fill="#000000" font-family="sans-serif" font-size="14" lengthAdjust="spacing" textLength="174.2549" x="12" y="93.292">Sender mail client (MUA)</text><text fill="#000000" font-family="sans-serif" font-size="14" lengthAdjust="spacing" textLength="85.3604" x="60.8975" y="109.5889">e.g. Outlook</text><text fill="#000000" font-family="sans-serif" font-size="14" lengthAdjust="spacing" textLength="187.9814" x="207.7051" y="101.292">Sender SMTP Server (MTA)</text><text fill="#000000" font-family="sans-serif" font-size="14" lengthAdjust="spacing" textLength="124.9199" x="243.686" y="117.5889">e.g. MS Exchange</text><path d="M288.9209,52.2969 C288.9209,42.2969 306.9209,42.2969 306.9209,42.2969 C306.9209,42.2969 324.9209,42.2969 324.9209,52.2969 L324.9209,78.2969 C324.9209,88.2969 306.9209,88.2969 306.9209,88.2969 C306.9209,88.2969 288.9209,88.2969 288.9209,78.2969 L288.9209,52.2969" fill="#E2E2F0" style="stroke:#181818;stroke-width:0.5;"/><path d="M288.9209,52.2969 C288.9209,62.2969 306.9209,62.2969 306.9209,62.2969 C306.9209,62.2969 324.9209,62.2969 324.9209,52.2969" fill="none" style="stroke:#181818;stroke-width:0.5;"/><text fill="#000000" font-family="sans-serif" font-size="14" lengthAdjust="spacing" textLength="204.0322" x="416.1367" y="101.292">Recipient SMTP Server (MTA)</text><text fill="#000000" font-family="sans-serif" font-size="14" lengthAdjust="spacing" textLength="71.6953" x="486.7554" y="117.5889">e.g. Gmail</text><path d="M505.3779,52.2969 C505.3779,42.2969 523.3779,42.2969 523.3779,42.2969 C523.3779,42.2969 541.3779,42.2969 541.3779,52.2969 L541.3779,78.2969 C541.3779,88.2969 523.3779,88.2969 523.3779,88.2969 C523.3779,88.2969 505.3779,88.2969 505.3779,78.2969 L505.3779,52.2969" fill="#E2E2F0" style="stroke:#181818;stroke-width:0.5;"/><path d="M505.3779,52.2969 C505.3779,62.2969 523.3779,62.2969 523.3779,62.2969 C523.3779,62.2969 541.3779,62.2969 541.3779,52.2969" fill="none" style="stroke:#181818;stroke-width:0.5;"/><rect fill="#E2E2F0" height="46.5938" rx="2.5" ry="2.5" style="stroke:#181818;stroke-width:0.5;" width="208.7559" x="640.6191" y="73.2969"/><text fill="#000000" font-family="sans-serif" font-size="14" lengthAdjust="spacing" textLength="190.3057" x="647.6191" y="93.292">Recipient mail client (MUA)</text><text fill="#000000" font-family="sans-serif" font-size="14" lengthAdjust="spacing" textLength="116.6963" x="688.874" y="109.5889">e.g. Thunderbird</text><polygon fill="#FF0000" points="112.3525,146.0234,102.3525,150.0234,112.3525,154.0234,108.3525,150.0234" style="stroke:#FF0000;stroke-width:1;"/><polygon fill="#FF0000" points="294.9209,146.0234,304.9209,150.0234,294.9209,154.0234,298.9209,150.0234" style="stroke:#FF0000;stroke-width:1;"/><line style="stroke:#FF0000;stroke-width:1;stroke-dasharray:2,2;" x1="106.3525" x2="300.9209" y1="150.0234" y2="150.0234"/><text fill="#000000" font-family="sans-serif" font-size="13" font-weight="bold" lengthAdjust="spacing" textLength="40.6948" x="183.7893" y="144.9575">SMTP</text><polygon fill="#FF0000" points="317.9209,146.0234,307.9209,150.0234,317.9209,154.0234,313.9209,150.0234" style="stroke:#FF0000;stroke-width:1;"/><polygon fill="#FF0000" points="511.3779,146.0234,521.3779,150.0234,511.3779,154.0234,515.3779,150.0234" style="stroke:#FF0000;stroke-width:1;"/><line style="stroke:#FF0000;stroke-width:1;stroke-dasharray:2,2;" x1="311.9209" x2="517.3779" y1="150.0234" y2="150.0234"/><text fill="#000000" font-family="sans-serif" font-size="13" font-weight="bold" lengthAdjust="spacing" textLength="40.6948" x="394.802" y="144.9575">SMTP</text><polygon fill="#FF0000" points="534.3779,146.0234,524.3779,150.0234,534.3779,154.0234,530.3779,150.0234" style="stroke:#FF0000;stroke-width:1;"/><polygon fill="#FF0000" points="732.9971,146.0234,742.9971,150.0234,732.9971,154.0234,736.9971,150.0234" style="stroke:#FF0000;stroke-width:1;"/><line style="stroke:#FF0000;stroke-width:1;stroke-dasharray:2,2;" x1="528.3779" x2="738.9971" y1="150.0234" y2="150.0234"/><text fill="#000000" font-family="sans-serif" font-size="13" font-weight="bold" lengthAdjust="spacing" textLength="37.3623" x="589.0303" y="144.9575">IMAP</text><text fill="#000000" font-family="sans-serif" font-size="13" font-weight="bold" lengthAdjust="spacing" textLength="4.5259" x="626.3926" y="144.9575">&#160;</text><text fill="#000000" font-family="sans-serif" font-size="13" font-weight="bold" lengthAdjust="spacing" textLength="4.748" x="630.9185" y="144.9575">/</text><text fill="#000000" font-family="sans-serif" font-size="13" font-weight="bold" lengthAdjust="spacing" textLength="4.5259" x="635.6665" y="144.9575">&#160;</text><text fill="#000000" font-family="sans-serif" font-size="13" font-weight="bold" lengthAdjust="spacing" textLength="39.1523" x="640.1924" y="144.9575">POP3</text><polygon fill="#181818" points="294.9209,218.2891,304.9209,222.2891,294.9209,226.2891,298.9209,222.2891" style="stroke:#181818;stroke-width:1;"/><line style="stroke:#181818;stroke-width:1;" x1="101.3525" x2="300.9209" y1="222.2891" y2="222.2891"/><text fill="#000000" font-family="sans-serif" font-size="13" font-weight="bold" lengthAdjust="spacing" textLength="9.0454" x="108.3525" y="209.6567">1</text><text fill="#000000" font-family="sans-serif" font-size="13" lengthAdjust="spacing" textLength="53.752" x="121.3979" y="202.0903">Connect</text><text fill="#000000" font-family="sans-serif" font-size="13" lengthAdjust="spacing" textLength="4.1323" x="175.1499" y="202.0903">&#160;</text><text fill="#000000" font-family="sans-serif" font-size="13" lengthAdjust="spacing" textLength="13.0508" x="179.2822" y="202.0903">to</text><text fill="#000000" font-family="sans-serif" font-size="13" lengthAdjust="spacing" textLength="4.1323" x="192.333" y="202.0903">&#160;</text><text fill="#000000" font-family="sans-serif" font-size="13" lengthAdjust="spacing" textLength="35.2485" x="196.4653" y="202.0903">SMTP</text><text fill="#000000" font-family="sans-serif" font-size="13" lengthAdjust="spacing" textLength="42.6309" x="121.3979" y="217.2231">Server</text><polygon fill="#181818" points="294.9209,247.4219,304.9209,251.4219,294.9209,255.4219,298.9209,251.4219" style="stroke:#181818;stroke-width:1;"/><line style="stroke:#181818;stroke-width:1;" x1="101.3525" x2="300.9209" y1="251.4219" y2="251.4219"/><text fill="#000000" font-family="sans-serif" font-size="13" font-weight="bold" lengthAdjust="spacing" textLength="9.0454" x="108.3525" y="246.356">2</text><text fill="#000000" font-family="sans-serif" font-size="13" lengthAdjust="spacing" textLength="35.4644" x="121.3979" y="246.356">EHLO</text><polygon fill="#181818" points="294.9209,276.5547,304.9209,280.5547,294.9209,284.5547,298.9209,280.5547" style="stroke:#181818;stroke-width:1;"/><line style="stroke:#181818;stroke-width:1;" x1="101.3525" x2="300.9209" y1="280.5547" y2="280.5547"/><text fill="#000000" font-family="sans-serif" font-size="13" font-weight="bold" lengthAdjust="spacing" textLength="9.0454" x="108.3525" y="275.4888">3</text><text fill="#000000" font-family="sans-serif" font-size="13" lengthAdjust="spacing" textLength="31.186" x="121.3979" y="275.4888">MAIL</text><text fill="#000000" font-family="sans-serif" font-size="13" lengthAdjust="spacing" textLength="4.1323" x="152.584" y="275.4888">&#160;</text><text fill="#000000" font-family="sans-serif" font-size="13" lengthAdjust="spacing" textLength="37.959" x="156.7163" y="275.4888">FROM</text><polygon fill="#181818" points="294.9209,305.6875,304.9209,309.6875,294.9209,313.6875,298.9209,309.6875" style="stroke:#181818;stroke-width:1;"/><line style="stroke:#181818;stroke-width:1;" x1="101.3525" x2="300.9209" y1="309.6875" y2="309.6875"/><text fill="#000000" font-family="sans-serif" font-size="13" font-weight="bold" lengthAdjust="spacing" textLength="9.0454" x="108.3525" y="304.6216">4</text><text fill="#000000" font-family="sans-serif" font-size="13" lengthAdjust="spacing" textLength="33.8901" x="121.3979" y="304.6216">RCPT</text><text fill="#000000" font-family="sans-serif" font-size="13" lengthAdjust="spacing" textLength="4.1323" x="155.2881" y="304.6216">&#160;</text><text fill="#000000" font-family="sans-serif" font-size="13" lengthAdjust="spacing" textLength="18.1733" x="159.4204" y="304.6216">TO</text><polygon fill="#181818" points="294.9209,334.8203,304.9209,338.8203,294.9209,342.8203,298.9209,338.8203" style="stroke:#181818;stroke-width:1;"/><line style="stroke:#181818;stroke-width:1;" x1="101.3525" x2="300.9209" y1="338.8203" y2="338.8203"/><text fill="#000000" font-family="sans-serif" font-size="13" font-weight="bold" lengthAdjust="spacing" textLength="9.0454" x="108.3525" y="333.7544">5</text><text fill="#000000" font-family="sans-serif" font-size="13" lengthAdjust="spacing" textLength="35.7373" x="121.3979" y="333.7544">DATA</text><polygon fill="#181818" points="294.9209,363.9531,304.9209,367.9531,294.9209,371.9531,298.9209,367.9531" style="stroke:#181818;stroke-width:1;"/><line style="stroke:#181818;stroke-width:1;" x1="101.3525" x2="300.9209" y1="367.9531" y2="367.9531"/><text fill="#000000" font-family="sans-serif" font-size="13" font-weight="bold" lengthAdjust="spacing" textLength="9.0454" x="108.3525" y="362.8872">6</text><text fill="#000000" font-family="sans-serif" font-size="13" lengthAdjust="spacing" textLength="31.5225" x="121.3979" y="362.8872">QUIT</text><line style="stroke:#181818;stroke-width:1;" x1="306.9209" x2="348.9209" y1="397.0859" y2="397.0859"/><line style="stroke:#181818;stroke-width:1;" x1="348.9209" x2="348.9209" y1="397.0859" y2="410.0859"/><line style="stroke:#181818;stroke-width:1;" x1="307.9209" x2="348.9209" y1="410.0859" y2="410.0859"/><polygon fill="#181818" points="317.9209,406.0859,307.9209,410.0859,317.9209,414.0859,313.9209,410.0859" style="stroke:#181818;stroke-width:1;"/><text fill="#000000" font-family="sans-serif" font-size="13" font-weight="bold" lengthAdjust="spacing" textLength="9.0454" x="313.9209" y="392.02">7</text><text fill="#000000" font-family="sans-serif" font-size="13" lengthAdjust="spacing" textLength="34.6455" x="326.9663" y="392.02">Store</text><text fill="#000000" font-family="sans-serif" font-size="13" lengthAdjust="spacing" textLength="4.1323" x="361.6118" y="392.02">&#160;</text><text fill="#000000" font-family="sans-serif" font-size="13" lengthAdjust="spacing" textLength="27.8535" x="365.7441" y="392.02">mail</text><polygon fill="#181818" points="511.3779,450.3516,521.3779,454.3516,511.3779,458.3516,515.3779,454.3516" style="stroke:#181818;stroke-width:1;"/><line style="stroke:#181818;stroke-width:1;" x1="306.9209" x2="517.3779" y1="454.3516" y2="454.3516"/><text fill="#000000" font-family="sans-serif" font-size="13" font-weight="bold" lengthAdjust="spacing" textLength="9.0454" x="313.9209" y="441.7192">8</text><text fill="#000000" font-family="sans-serif" font-size="13" lengthAdjust="spacing" textLength="53.752" x="326.9663" y="434.1528">Connect</text><text fill="#000000" font-family="sans-serif" font-size="13" lengthAdjust="spacing" textLength="4.1323" x="380.7183" y="434.1528">&#160;</text><text fill="#000000" font-family="sans-serif" font-size="13" lengthAdjust="spacing" textLength="13.0508" x="384.8506" y="434.1528">to</text><text fill="#000000" font-family="sans-serif" font-size="13" lengthAdjust="spacing" textLength="4.1323" x="397.9014" y="434.1528">&#160;</text><text fill="#000000" font-family="sans-serif" font-size="13" lengthAdjust="spacing" textLength="35.2485" x="402.0337" y="434.1528">SMTP</text><text fill="#000000" font-family="sans-serif" font-size="13" lengthAdjust="spacing" textLength="42.6309" x="326.9663" y="449.2856">Server</text><polygon fill="#181818" points="511.3779,479.4844,521.3779,483.4844,511.3779,487.4844,515.3779,483.4844" style="stroke:#181818;stroke-width:1;"/><line style="stroke:#181818;stroke-width:1;" x1="306.9209" x2="517.3779" y1="483.4844" y2="483.4844"/><text fill="#000000" font-family="sans-serif" font-size="13" font-weight="bold" lengthAdjust="spacing" textLength="9.0454" x="313.9209" y="478.4185">9</text><text fill="#000000" font-family="sans-serif" font-size="13" lengthAdjust="spacing" textLength="35.4644" x="326.9663" y="478.4185">EHLO</text><polygon fill="#181818" points="511.3779,508.6172,521.3779,512.6172,511.3779,516.6172,515.3779,512.6172" style="stroke:#181818;stroke-width:1;"/><line style="stroke:#181818;stroke-width:1;" x1="306.9209" x2="517.3779" y1="512.6172" y2="512.6172"/><text fill="#000000" font-family="sans-serif" font-size="13" font-weight="bold" lengthAdjust="spacing" textLength="18.0908" x="313.9209" y="507.5513">10</text><text fill="#000000" font-family="sans-serif" font-size="13" lengthAdjust="spacing" textLength="31.186" x="336.0117" y="507.5513">MAIL</text><text fill="#000000" font-family="sans-serif" font-size="13" lengthAdjust="spacing" textLength="4.1323" x="367.1978" y="507.5513">&#160;</text><text fill="#000000" font-family="sans-serif" font-size="13" lengthAdjust="spacing" textLength="37.959" x="371.3301" y="507.5513">FROM</text><polygon fill="#181818" points="511.3779,537.75,521.3779,541.75,511.3779,545.75,515.3779,541.75" style="stroke:#181818;stroke-width:1;"/><line style="stroke:#181818;stroke-width:1;" x1="306.9209" x2="517.3779" y1="541.75" y2="541.75"/><text fill="#000000" font-family="sans-serif" font-size="13" font-weight="bold" lengthAdjust="spacing" textLength="18.0908" x="313.9209" y="536.6841">11</text><text fill="#000000" font-family="sans-serif" font-size="13" lengthAdjust="spacing" textLength="33.8901" x="336.0117" y="536.6841">RCPT</text><text fill="#000000" font-family="sans-serif" font-size="13" lengthAdjust="spacing" textLength="4.1323" x="369.9019" y="536.6841">&#160;</text><text fill="#000000" font-family="sans-serif" font-size="13" lengthAdjust="spacing" textLength="18.1733" x="374.0342" y="536.6841">TO</text><polygon fill="#181818" points="511.3779,566.8828,521.3779,570.8828,511.3779,574.8828,515.3779,570.8828" style="stroke:#181818;stroke-width:1;"/><line style="stroke:#181818;stroke-width:1;" x1="306.9209" x2="517.3779" y1="570.8828" y2="570.8828"/><text fill="#000000" font-family="sans-serif" font-size="13" font-weight="bold" lengthAdjust="spacing" textLength="18.0908" x="313.9209" y="565.8169">12</text><text fill="#000000" font-family="sans-serif" font-size="13" lengthAdjust="spacing" textLength="35.7373" x="336.0117" y="565.8169">DATA</text><polygon fill="#181818" points="511.3779,596.0156,521.3779,600.0156,511.3779,604.0156,515.3779,600.0156" style="stroke:#181818;stroke-width:1;"/><line style="stroke:#181818;stroke-width:1;" x1="306.9209" x2="517.3779" y1="600.0156" y2="600.0156"/><text fill="#000000" font-family="sans-serif" font-size="13" font-weight="bold" lengthAdjust="spacing" textLength="18.0908" x="313.9209" y="594.9497">13</text><text fill="#000000" font-family="sans-serif" font-size="13" lengthAdjust="spacing" textLength="31.5225" x="336.0117" y="594.9497">QUIT</text><line style="stroke:#181818;stroke-width:1;" x1="523.3779" x2="565.3779" y1="629.1484" y2="629.1484"/><line style="stroke:#181818;stroke-width:1;" x1="565.3779" x2="565.3779" y1="629.1484" y2="642.1484"/><line style="stroke:#181818;stroke-width:1;" x1="524.3779" x2="565.3779" y1="642.1484" y2="642.1484"/><polygon fill="#181818" points="534.3779,638.1484,524.3779,642.1484,534.3779,646.1484,530.3779,642.1484" style="stroke:#181818;stroke-width:1;"/><text fill="#000000" font-family="sans-serif" font-size="13" font-weight="bold" lengthAdjust="spacing" textLength="18.0908" x="530.3779" y="624.0825">14</text><text fill="#000000" font-family="sans-serif" font-size="13" lengthAdjust="spacing" textLength="34.6455" x="552.4688" y="624.0825">Store</text><text fill="#000000" font-family="sans-serif" font-size="13" lengthAdjust="spacing" textLength="4.1323" x="587.1143" y="624.0825">&#160;</text><text fill="#000000" font-family="sans-serif" font-size="13" lengthAdjust="spacing" textLength="27.8535" x="591.2466" y="624.0825">mail</text><polygon fill="#181818" points="534.3779,667.2813,524.3779,671.2813,534.3779,675.2813,530.3779,671.2813" style="stroke:#181818;stroke-width:1;"/><polygon fill="#181818" points="732.9971,667.2813,742.9971,671.2813,732.9971,675.2813,736.9971,671.2813" style="stroke:#181818;stroke-width:1;"/><line style="stroke:#181818;stroke-width:1;" x1="528.3779" x2="738.9971" y1="671.2813" y2="671.2813"/><text fill="#000000" font-family="sans-serif" font-size="13" font-weight="bold" lengthAdjust="spacing" textLength="18.0908" x="585.783" y="666.2153">15</text><text fill="#000000" font-family="sans-serif" font-size="13" lengthAdjust="spacing" textLength="35.9595" x="607.8738" y="666.2153">Fetch</text><text fill="#000000" font-family="sans-serif" font-size="13" lengthAdjust="spacing" textLength="4.1323" x="643.8333" y="666.2153">&#160;</text><text fill="#000000" font-family="sans-serif" font-size="13" lengthAdjust="spacing" textLength="34.6265" x="647.9656" y="666.2153">mails</text><!--SRC=[VP91RzGm48Nl_XN38g5sfOPkK2y88KNR5bPgj66JYWDmy2P3OZMnWps1LNzz7GEDDx2-H4dcyvitpsCUXEovvXtirI7ZLILa3QlBIsQU2nq_f6WChp4NZmYhAxye5M611qfQKSiE9K5f7wWznE2F0MM9VqGS2PNGM99GqWD_QTv_5XKr4DiUV20bXsvljHfH8NnNYgn7nbxqcjST1qBr2AG7P8m4jGYBF2qooBGYLQfsmPYL9L6AdbjRYnnbXTfE8reeMp5QFKllatFuAW6ZEeBjGArI3mlW1jOEIFf-nQuvyJqt-ApWkkIeVzhtixJm5D8SRWvbmsMDJcKaVuE-p0wj9TV_jDA7qUPC8pwUPv8vFLBH3AFblT3LyLWny_85GwfdR9ePtbryUQcn-dRntf_XBIoNu-TooLxv__-FnoVmsCSdGoEzIPCCNaEspTxOGxv3ZMRex4L7KNHaT6vmhQIqUmMa_7139su-tcr3zJJPtC7jRfk6eDqwAw08wbmdHHAgVxhV58pvgSw9d9H6Tza1BZwPGUY82o44J2c4gBynX1YNGmYO1n7_G_X1J0jarsh6tIALZUCCUm80]--></g></svg>