<?xml version="1.0" encoding="us-ascii" standalone="no"?><svg xmlns="http://www.w3.org/2000/svg" xmlns:xlink="http://www.w3.org/1999/xlink" contentStyleType="text/css" height="683px" preserveAspectRatio="none" style="width:285px;height:683px;background:#FFFFFF;" version="1.1" viewBox="0 0 285 683" width="285px" zoomAndPan="magnify"><defs/><g><text fill="#000000" font-family="sans-serif" font-size="14" font-weight="bold" lengthAdjust="spacing" textLength="255" x="12.5" y="27.9951">DAI Protocol Sequence Diagram</text><line style="stroke:#181818;stroke-width:0.5;stroke-dasharray:5.0,5.0;" x1="29" x2="29" y1="118.5938" y2="274.2578"/><line style="stroke:#A80036;stroke-width:1.0;stroke-dasharray:1.0,4.0;" x1="29" x2="29" y1="274.2578" y2="302.2578"/><line style="stroke:#181818;stroke-width:0.5;stroke-dasharray:5.0,5.0;" x1="29" x2="29" y1="302.2578" y2="447.9219"/><line style="stroke:#A80036;stroke-width:1.0;stroke-dasharray:1.0,4.0;" x1="29" x2="29" y1="447.9219" y2="475.9219"/><line style="stroke:#181818;stroke-width:0.5;stroke-dasharray:5.0,5.0;" x1="29" x2="29" y1="475.9219" y2="602.4531"/><line style="stroke:#181818;stroke-width:0.5;stroke-dasharray:5.0,5.0;" x1="249" x2="249" y1="118.5938" y2="274.2578"/><line style="stroke:#A80036;stroke-width:1.0;stroke-dasharray:1.0,4.0;" x1="249" x2="249" y1="274.2578" y2="302.2578"/><line style="stroke:#181818;stroke-width:0.5;stroke-dasharray:5.0,5.0;" x1="249" x2="249" y1="302.2578" y2="447.9219"/><line style="stroke:#A80036;stroke-width:1.0;stroke-dasharray:1.0,4.0;" x1="249" x2="249" y1="447.9219" y2="475.9219"/><line style="stroke:#181818;stroke-width:0.5;stroke-dasharray:5.0,5.0;" x1="249" x2="249" y1="475.9219" y2="602.4531"/><text fill="#000000" font-family="sans-serif" font-size="14" lengthAdjust="spacing" textLength="43" x="5" y="115.292">Client</text><ellipse cx="29.5" cy="50.7969" fill="#E2E2F0" rx="8" ry="8" style="stroke:#181818;stroke-width:0.5;"/><path d="M29.5,58.7969 L29.5,85.7969 M16.5,66.7969 L42.5,66.7969 M29.5,85.7969 L16.5,100.7969 M29.5,85.7969 L42.5,100.7969 " fill="none" style="stroke:#181818;stroke-width:0.5;"/><text fill="#000000" font-family="sans-serif" font-size="14" lengthAdjust="spacing" textLength="43" x="5" y="614.4482">Client</text><ellipse cx="29.5" cy="626.25" fill="#E2E2F0" rx="8" ry="8" style="stroke:#181818;stroke-width:0.5;"/><path d="M29.5,634.25 L29.5,661.25 M16.5,642.25 L42.5,642.25 M29.5,661.25 L16.5,676.25 M29.5,661.25 L42.5,676.25 " fill="none" style="stroke:#181818;stroke-width:0.5;"/><text fill="#000000" font-family="sans-serif" font-size="14" lengthAdjust="spacing" textLength="47" x="223" y="115.292">Server</text><ellipse cx="249.5" cy="50.7969" fill="#E2E2F0" rx="8" ry="8" style="stroke:#181818;stroke-width:0.5;"/><path d="M249.5,58.7969 L249.5,85.7969 M236.5,66.7969 L262.5,66.7969 M249.5,85.7969 L236.5,100.7969 M249.5,85.7969 L262.5,100.7969 " fill="none" style="stroke:#181818;stroke-width:0.5;"/><text fill="#000000" font-family="sans-serif" font-size="14" lengthAdjust="spacing" textLength="47" x="223" y="614.4482">Server</text><ellipse cx="249.5" cy="626.25" fill="#E2E2F0" rx="8" ry="8" style="stroke:#181818;stroke-width:0.5;"/><path d="M249.5,634.25 L249.5,661.25 M236.5,642.25 L262.5,642.25 M249.5,661.25 L236.5,676.25 M249.5,661.25 L262.5,676.25 " fill="none" style="stroke:#181818;stroke-width:0.5;"/><polygon fill="#181818" points="237.5,145.7266,247.5,149.7266,237.5,153.7266,241.5,149.7266" style="stroke:#181818;stroke-width:1.0;"/><line style="stroke:#181818;stroke-width:1.0;stroke-dasharray:2.0,2.0;" x1="29.5" x2="243.5" y1="149.7266" y2="149.7266"/><text fill="#000000" font-family="sans-serif" font-size="13" lengthAdjust="spacing" textLength="133" x="36.5" y="144.6606">Establish Connection</text><polygon fill="#181818" points="40.5,174.8594,30.5,178.8594,40.5,182.8594,36.5,178.8594" style="stroke:#181818;stroke-width:1.0;"/><line style="stroke:#181818;stroke-width:1.0;" x1="34.5" x2="248.5" y1="178.8594" y2="178.8594"/><text fill="#000000" font-family="sans-serif" font-size="13" lengthAdjust="spacing" textLength="18" x="46.5" y="173.7935">OK</text><polygon fill="#181818" points="237.5,203.9922,247.5,207.9922,237.5,211.9922,241.5,207.9922" style="stroke:#181818;stroke-width:1.0;"/><line style="stroke:#181818;stroke-width:1.0;" x1="29.5" x2="243.5" y1="207.9922" y2="207.9922"/><text fill="#000000" font-family="sans-serif" font-size="13" lengthAdjust="spacing" textLength="147" x="36.5" y="202.9263">SEND GET /data/file.txt</text><polygon fill="#181818" points="40.5,233.125,30.5,237.125,40.5,241.125,36.5,237.125" style="stroke:#181818;stroke-width:1.0;"/><line style="stroke:#181818;stroke-width:1.0;" x1="34.5" x2="248.5" y1="237.125" y2="237.125"/><text fill="#000000" font-family="sans-serif" font-size="13" lengthAdjust="spacing" textLength="196" x="46.5" y="232.0591">FILE /data/file.txt (Binary Data)</text><polygon fill="#181818" points="40.5,262.2578,30.5,266.2578,40.5,270.2578,36.5,266.2578" style="stroke:#181818;stroke-width:1.0;"/><line style="stroke:#181818;stroke-width:1.0;stroke-dasharray:2.0,2.0;" x1="34.5" x2="248.5" y1="266.2578" y2="266.2578"/><text fill="#000000" font-family="sans-serif" font-size="13" lengthAdjust="spacing" textLength="111" x="46.5" y="261.1919">Close Connection</text><polygon fill="#181818" points="237.5,319.3906,247.5,323.3906,237.5,327.3906,241.5,323.3906" style="stroke:#181818;stroke-width:1.0;"/><line style="stroke:#181818;stroke-width:1.0;stroke-dasharray:2.0,2.0;" x1="29.5" x2="243.5" y1="323.3906" y2="323.3906"/><text fill="#000000" font-family="sans-serif" font-size="13" lengthAdjust="spacing" textLength="133" x="36.5" y="318.3247">Establish Connection</text><polygon fill="#181818" points="40.5,348.5234,30.5,352.5234,40.5,356.5234,36.5,352.5234" style="stroke:#181818;stroke-width:1.0;"/><line style="stroke:#181818;stroke-width:1.0;" x1="34.5" x2="248.5" y1="352.5234" y2="352.5234"/><text fill="#000000" font-family="sans-serif" font-size="13" lengthAdjust="spacing" textLength="18" x="46.5" y="347.4575">OK</text><polygon fill="#181818" points="237.5,377.6563,247.5,381.6563,237.5,385.6563,241.5,381.6563" style="stroke:#181818;stroke-width:1.0;"/><line style="stroke:#181818;stroke-width:1.0;" x1="29.5" x2="243.5" y1="381.6563" y2="381.6563"/><text fill="#000000" font-family="sans-serif" font-size="13" lengthAdjust="spacing" textLength="190" x="36.5" y="376.5903">SEND GET /nonexistentfile.txt</text><polygon fill="#181818" points="40.5,406.7891,30.5,410.7891,40.5,414.7891,36.5,410.7891" style="stroke:#181818;stroke-width:1.0;"/><line style="stroke:#181818;stroke-width:1.0;" x1="34.5" x2="248.5" y1="410.7891" y2="410.7891"/><text fill="#000000" font-family="sans-serif" font-size="13" lengthAdjust="spacing" textLength="73" x="46.5" y="405.7231">ERROR 404</text><polygon fill="#181818" points="40.5,435.9219,30.5,439.9219,40.5,443.9219,36.5,439.9219" style="stroke:#181818;stroke-width:1.0;"/><line style="stroke:#181818;stroke-width:1.0;stroke-dasharray:2.0,2.0;" x1="34.5" x2="248.5" y1="439.9219" y2="439.9219"/><text fill="#000000" font-family="sans-serif" font-size="13" lengthAdjust="spacing" textLength="111" x="46.5" y="434.856">Close Connection</text><polygon fill="#181818" points="237.5,493.0547,247.5,497.0547,237.5,501.0547,241.5,497.0547" style="stroke:#181818;stroke-width:1.0;"/><line style="stroke:#181818;stroke-width:1.0;stroke-dasharray:2.0,2.0;" x1="29.5" x2="243.5" y1="497.0547" y2="497.0547"/><text fill="#000000" font-family="sans-serif" font-size="13" lengthAdjust="spacing" textLength="133" x="36.5" y="491.9888">Establish Connection</text><polygon fill="#181818" points="40.5,522.1875,30.5,526.1875,40.5,530.1875,36.5,526.1875" style="stroke:#181818;stroke-width:1.0;"/><line style="stroke:#181818;stroke-width:1.0;" x1="34.5" x2="248.5" y1="526.1875" y2="526.1875"/><text fill="#000000" font-family="sans-serif" font-size="13" lengthAdjust="spacing" textLength="18" x="46.5" y="521.1216">OK</text><polygon fill="#181818" points="237.5,551.3203,247.5,555.3203,237.5,559.3203,241.5,555.3203" style="stroke:#181818;stroke-width:1.0;"/><line style="stroke:#181818;stroke-width:1.0;" x1="29.5" x2="243.5" y1="555.3203" y2="555.3203"/><text fill="#000000" font-family="sans-serif" font-size="13" lengthAdjust="spacing" textLength="30" x="36.5" y="550.2544">QUIT</text><polygon fill="#181818" points="237.5,580.4531,247.5,584.4531,237.5,588.4531,241.5,584.4531" style="stroke:#181818;stroke-width:1.0;"/><line style="stroke:#181818;stroke-width:1.0;stroke-dasharray:2.0,2.0;" x1="29.5" x2="243.5" y1="584.4531" y2="584.4531"/><text fill="#000000" font-family="sans-serif" font-size="13" lengthAdjust="spacing" textLength="111" x="36.5" y="579.3872">Close Connection</text><!--SRC=[nO_13e8m44Jl_OezwW7qm8c3YK8rH2CA-06rhjgajh6i1lzU4eaIGhmPZpixRp93YZH2F4rWuonPQJNaUBsXaRMgnCc92sD2adKGQOM6cYD7TqV7s4i4pviq4eJ0In9xhSepHDOObAIiOSstzZL82EdomxVmdAzZMF02HWT1OdHK6dsgg2zXdgnunmQ3cJB2FI2krI5xKsqiqhR4TZdc-_wFjnXhi58brOvlYtYMfHa4u-3FnRUxfEZDxLPu0W00]--></g></svg>