<?xml version="1.0" encoding="us-ascii" standalone="no"?><svg xmlns="http://www.w3.org/2000/svg" xmlns:xlink="http://www.w3.org/1999/xlink" contentStyleType="text/css" height="528px" preserveAspectRatio="none" style="width:1120px;height:528px;background:#FFFFFF;" version="1.1" viewBox="0 0 1120 528" width="1120px" zoomAndPan="magnify"><defs/><g><ellipse cx="516" cy="20" fill="#222222" rx="10" ry="10" style="stroke:#222222;stroke-width:1.0;"/><polygon fill="#F1F1F1" points="472.5,50,559.5,50,571.5,62,559.5,74,472.5,74,460.5,62,472.5,50" style="stroke:#181818;stroke-width:0.5;"/><text fill="#000000" font-family="sans-serif" font-size="11" lengthAdjust="spacing" textLength="87" x="472.5" y="65.8081">Binary or Text?</text><text fill="#000000" font-family="sans-serif" font-size="11" lengthAdjust="spacing" textLength="35" x="425.5" y="59.4058">binary</text><text fill="#000000" font-family="sans-serif" font-size="11" lengthAdjust="spacing" textLength="23" x="571.5" y="59.4058">text</text><rect fill="#F1F1F1" height="33.9688" rx="12.5" ry="12.5" style="stroke:#181818;stroke-width:0.5;" width="160" x="145" y="84"/><text fill="#000000" font-family="sans-serif" font-size="12" lengthAdjust="spacing" textLength="140" x="155" y="105.1387">Binary Input and Output</text><rect fill="#F1F1F1" height="75.875" rx="12.5" ry="12.5" style="stroke:#181818;stroke-width:0.5;" width="225" x="112.5" y="137.9688"/><text fill="#000000" font-family="sans-serif" font-size="12" font-weight="bold" lengthAdjust="spacing" textLength="158" x="122.5" y="159.1074">Java IO abstract class</text><text fill="#000000" font-family="sans-serif" font-size="12" lengthAdjust="spacing" textLength="4" x="122.5" y="173.0762">&#160;</text><text fill="#000000" font-family="sans-serif" font-size="12" lengthAdjust="spacing" textLength="192" x="122.5" y="187.0449">InputStream - Read byte stream</text><text fill="#000000" font-family="sans-serif" font-size="12" lengthAdjust="spacing" textLength="205" x="122.5" y="201.0137">OutputStream - Write byte stream</text><line style="stroke:#181818;stroke-width:1.5;" x1="89" x2="317" y1="233.8438" y2="233.8438"/><rect fill="#F1F1F1" height="75.875" rx="12.5" ry="12.5" style="stroke:#181818;stroke-width:0.5;" width="156" x="11" y="253.8438"/><text fill="#000000" font-family="sans-serif" font-size="12" font-weight="bold" lengthAdjust="spacing" textLength="136" x="21" y="274.9824">File read and write</text><text fill="#000000" font-family="sans-serif" font-size="12" lengthAdjust="spacing" textLength="4" x="21" y="288.9512">&#160;</text><text fill="#000000" font-family="sans-serif" font-size="12" lengthAdjust="spacing" textLength="93" x="21" y="302.9199">FileInputStream</text><text fill="#000000" font-family="sans-serif" font-size="12" lengthAdjust="spacing" textLength="104" x="21" y="316.8887">FileOutputStream</text><rect fill="#F1F1F1" height="75.875" rx="12.5" ry="12.5" style="stroke:#181818;stroke-width:0.5;" width="244" x="195" y="253.8438"/><text fill="#000000" font-family="sans-serif" font-size="12" font-weight="bold" lengthAdjust="spacing" textLength="224" x="205" y="274.9824">Arrays of bytes read and write</text><text fill="#000000" font-family="sans-serif" font-size="12" lengthAdjust="spacing" textLength="4" x="205" y="288.9512">&#160;</text><text fill="#000000" font-family="sans-serif" font-size="12" lengthAdjust="spacing" textLength="131" x="205" y="302.9199">ByteArrayInputStream</text><text fill="#000000" font-family="sans-serif" font-size="12" lengthAdjust="spacing" textLength="142" x="205" y="316.8887">ByteArrayOutputStream</text><line style="stroke:#181818;stroke-width:1.5;" x1="89" x2="317" y1="349.7188" y2="349.7188"/><rect fill="#F1F1F1" height="75.875" rx="12.5" ry="12.5" style="stroke:#181818;stroke-width:0.5;" width="174" x="138" y="369.7188"/><text fill="#000000" font-family="sans-serif" font-size="12" font-weight="bold" lengthAdjust="spacing" textLength="70" x="148" y="390.8574">Buffering</text><text fill="#000000" font-family="sans-serif" font-size="12" lengthAdjust="spacing" textLength="4" x="148" y="404.8262">&#160;</text><text fill="#000000" font-family="sans-serif" font-size="12" lengthAdjust="spacing" textLength="143" x="148" y="418.7949">BufferedInputStream(...)</text><text fill="#000000" font-family="sans-serif" font-size="12" lengthAdjust="spacing" textLength="154" x="148" y="432.7637">BufferedOutputStream(...)</text><rect fill="#F1F1F1" height="33.9688" rx="12.5" ry="12.5" style="stroke:#181818;stroke-width:0.5;" width="150" x="714" y="84"/><text fill="#000000" font-family="sans-serif" font-size="12" lengthAdjust="spacing" textLength="130" x="724" y="105.1387">Text Input And Output</text><rect fill="#F1F1F1" height="75.875" rx="12.5" ry="12.5" style="stroke:#181818;stroke-width:0.5;" width="182" x="698" y="137.9688"/><text fill="#000000" font-family="sans-serif" font-size="12" lengthAdjust="spacing" textLength="4" x="708" y="159.1074">&#160;</text><text fill="#000000" font-family="sans-serif" font-size="12" font-weight="bold" lengthAdjust="spacing" textLength="158" x="712" y="159.1074">Java IO abstract class</text><text fill="#000000" font-family="sans-serif" font-size="12" lengthAdjust="spacing" textLength="4" x="708" y="173.0762">&#160;</text><text fill="#000000" font-family="sans-serif" font-size="12" lengthAdjust="spacing" textLength="154" x="708" y="187.0449">Reader - Read characters</text><text fill="#000000" font-family="sans-serif" font-size="12" lengthAdjust="spacing" textLength="150" x="708" y="201.0137">Writer - Write characters</text><line style="stroke:#181818;stroke-width:1.5;" x1="565" x2="987" y1="233.8438" y2="233.8438"/><rect fill="#F1F1F1" height="75.875" rx="12.5" ry="12.5" style="stroke:#181818;stroke-width:0.5;" width="156" x="487" y="253.8438"/><text fill="#000000" font-family="sans-serif" font-size="12" font-weight="bold" lengthAdjust="spacing" textLength="136" x="497" y="274.9824">File read and write</text><text fill="#000000" font-family="sans-serif" font-size="12" lengthAdjust="spacing" textLength="4" x="497" y="288.9512">&#160;</text><text fill="#000000" font-family="sans-serif" font-size="12" lengthAdjust="spacing" textLength="64" x="497" y="302.9199">FileReader</text><text fill="#000000" font-family="sans-serif" font-size="12" lengthAdjust="spacing" textLength="58" x="497" y="316.8887">FileWriter</text><rect fill="#F1F1F1" height="75.875" rx="12.5" ry="12.5" style="stroke:#181818;stroke-width:0.5;" width="184" x="653" y="253.8438"/><text fill="#000000" font-family="sans-serif" font-size="12" font-weight="bold" lengthAdjust="spacing" textLength="164" x="663" y="274.9824">Strings read and write</text><text fill="#000000" font-family="sans-serif" font-size="12" lengthAdjust="spacing" textLength="4" x="663" y="288.9512">&#160;</text><text fill="#000000" font-family="sans-serif" font-size="12" lengthAdjust="spacing" textLength="78" x="663" y="302.9199">StringReader</text><text fill="#000000" font-family="sans-serif" font-size="12" lengthAdjust="spacing" textLength="72" x="663" y="316.8887">StringWriter</text><rect fill="#F1F1F1" height="75.875" rx="12.5" ry="12.5" style="stroke:#181818;stroke-width:0.5;" width="244" x="865" y="253.8438"/><text fill="#000000" font-family="sans-serif" font-size="12" font-weight="bold" lengthAdjust="spacing" textLength="224" x="875" y="274.9824">Arrays of chars read and write</text><text fill="#000000" font-family="sans-serif" font-size="12" lengthAdjust="spacing" textLength="4" x="875" y="288.9512">&#160;</text><text fill="#000000" font-family="sans-serif" font-size="12" lengthAdjust="spacing" textLength="102" x="875" y="302.9199">CharArrayReader</text><text fill="#000000" font-family="sans-serif" font-size="12" lengthAdjust="spacing" textLength="96" x="875" y="316.8887">CharArrayWriter</text><line style="stroke:#181818;stroke-width:1.5;" x1="565" x2="987" y1="349.7188" y2="349.7188"/><rect fill="#F1F1F1" height="75.875" rx="12.5" ry="12.5" style="stroke:#181818;stroke-width:0.5;" width="134" x="722" y="369.7188"/><text fill="#000000" font-family="sans-serif" font-size="12" font-weight="bold" lengthAdjust="spacing" textLength="70" x="732" y="390.8574">Buffering</text><text fill="#000000" font-family="sans-serif" font-size="12" lengthAdjust="spacing" textLength="4" x="732" y="404.8262">&#160;</text><text fill="#000000" font-family="sans-serif" font-size="12" lengthAdjust="spacing" textLength="114" x="732" y="418.7949">BufferedReader(...)</text><text fill="#000000" font-family="sans-serif" font-size="12" lengthAdjust="spacing" textLength="108" x="732" y="432.7637">BufferedWriter(...)</text><polygon fill="#F1F1F1" points="516,451.5938,528,463.5938,516,475.5938,504,463.5938,516,451.5938" style="stroke:#181818;stroke-width:0.5;"/><ellipse cx="516" cy="506.5938" fill="none" rx="11" ry="11" style="stroke:#222222;stroke-width:1.0;"/><ellipse cx="516" cy="506.5938" fill="#222222" rx="6" ry="6" style="stroke:#222222;stroke-width:1.0;"/><line style="stroke:#181818;stroke-width:1.0;" x1="225" x2="225" y1="117.9688" y2="137.9688"/><polygon fill="#181818" points="221,127.9688,225,137.9688,229,127.9688,225,131.9688" style="stroke:#181818;stroke-width:1.0;"/><line style="stroke:#181818;stroke-width:1.0;" x1="89" x2="89" y1="235.3438" y2="253.8438"/><polygon fill="#181818" points="85,243.8438,89,253.8438,93,243.8438,89,247.8438" style="stroke:#181818;stroke-width:1.0;"/><line style="stroke:#181818;stroke-width:1.0;" x1="317" x2="317" y1="235.3438" y2="253.8438"/><polygon fill="#181818" points="313,243.8438,317,253.8438,321,243.8438,317,247.8438" style="stroke:#181818;stroke-width:1.0;"/><line style="stroke:#181818;stroke-width:1.0;" x1="89" x2="89" y1="329.7188" y2="349.7188"/><polygon fill="#181818" points="85,339.7188,89,349.7188,93,339.7188,89,343.7188" style="stroke:#181818;stroke-width:1.0;"/><line style="stroke:#181818;stroke-width:1.0;" x1="317" x2="317" y1="329.7188" y2="349.7188"/><polygon fill="#181818" points="313,339.7188,317,349.7188,321,339.7188,317,343.7188" style="stroke:#181818;stroke-width:1.0;"/><line style="stroke:#181818;stroke-width:1.0;" x1="225" x2="225" y1="213.8438" y2="233.8438"/><polygon fill="#181818" points="221,223.8438,225,233.8438,229,223.8438,225,227.8438" style="stroke:#181818;stroke-width:1.0;"/><line style="stroke:#181818;stroke-width:1.0;" x1="225" x2="225" y1="351.2188" y2="369.7188"/><polygon fill="#181818" points="221,359.7188,225,369.7188,229,359.7188,225,363.7188" style="stroke:#181818;stroke-width:1.0;"/><line style="stroke:#181818;stroke-width:1.0;" x1="789" x2="789" y1="117.9688" y2="137.9688"/><polygon fill="#181818" points="785,127.9688,789,137.9688,793,127.9688,789,131.9688" style="stroke:#181818;stroke-width:1.0;"/><line style="stroke:#181818;stroke-width:1.0;" x1="565" x2="565" y1="235.3438" y2="253.8438"/><polygon fill="#181818" points="561,243.8438,565,253.8438,569,243.8438,565,247.8438" style="stroke:#181818;stroke-width:1.0;"/><line style="stroke:#181818;stroke-width:1.0;" x1="745" x2="745" y1="235.3438" y2="253.8438"/><polygon fill="#181818" points="741,243.8438,745,253.8438,749,243.8438,745,247.8438" style="stroke:#181818;stroke-width:1.0;"/><line style="stroke:#181818;stroke-width:1.0;" x1="987" x2="987" y1="235.3438" y2="253.8438"/><polygon fill="#181818" points="983,243.8438,987,253.8438,991,243.8438,987,247.8438" style="stroke:#181818;stroke-width:1.0;"/><line style="stroke:#181818;stroke-width:1.0;" x1="565" x2="565" y1="329.7188" y2="349.7188"/><polygon fill="#181818" points="561,339.7188,565,349.7188,569,339.7188,565,343.7188" style="stroke:#181818;stroke-width:1.0;"/><line style="stroke:#181818;stroke-width:1.0;" x1="745" x2="745" y1="329.7188" y2="349.7188"/><polygon fill="#181818" points="741,339.7188,745,349.7188,749,339.7188,745,343.7188" style="stroke:#181818;stroke-width:1.0;"/><line style="stroke:#181818;stroke-width:1.0;" x1="987" x2="987" y1="329.7188" y2="349.7188"/><polygon fill="#181818" points="983,339.7188,987,349.7188,991,339.7188,987,343.7188" style="stroke:#181818;stroke-width:1.0;"/><line style="stroke:#181818;stroke-width:1.0;" x1="789" x2="789" y1="213.8438" y2="233.8438"/><polygon fill="#181818" points="785,223.8438,789,233.8438,793,223.8438,789,227.8438" style="stroke:#181818;stroke-width:1.0;"/><line style="stroke:#181818;stroke-width:1.0;" x1="789" x2="789" y1="351.2188" y2="369.7188"/><polygon fill="#181818" points="785,359.7188,789,369.7188,793,359.7188,789,363.7188" style="stroke:#181818;stroke-width:1.0;"/><line style="stroke:#181818;stroke-width:1.0;" x1="460.5" x2="225" y1="62" y2="62"/><line style="stroke:#181818;stroke-width:1.0;" x1="225" x2="225" y1="62" y2="84"/><polygon fill="#181818" points="221,74,225,84,229,74,225,78" style="stroke:#181818;stroke-width:1.0;"/><line style="stroke:#181818;stroke-width:1.0;" x1="571.5" x2="789" y1="62" y2="62"/><line style="stroke:#181818;stroke-width:1.0;" x1="789" x2="789" y1="62" y2="84"/><polygon fill="#181818" points="785,74,789,84,793,74,789,78" style="stroke:#181818;stroke-width:1.0;"/><line style="stroke:#181818;stroke-width:1.0;" x1="225" x2="225" y1="445.5938" y2="463.5938"/><line style="stroke:#181818;stroke-width:1.0;" x1="225" x2="504" y1="463.5938" y2="463.5938"/><polygon fill="#181818" points="494,459.5938,504,463.5938,494,467.5938,498,463.5938" style="stroke:#181818;stroke-width:1.0;"/><line style="stroke:#181818;stroke-width:1.0;" x1="789" x2="789" y1="445.5938" y2="463.5938"/><line style="stroke:#181818;stroke-width:1.0;" x1="789" x2="528" y1="463.5938" y2="463.5938"/><polygon fill="#181818" points="538,459.5938,528,463.5938,538,467.5938,534,463.5938" style="stroke:#181818;stroke-width:1.0;"/><line style="stroke:#181818;stroke-width:1.0;" x1="516" x2="516" y1="30" y2="50"/><polygon fill="#181818" points="512,40,516,50,520,40,516,44" style="stroke:#181818;stroke-width:1.0;"/><line style="stroke:#181818;stroke-width:1.0;" x1="516" x2="516" y1="475.5938" y2="495.5938"/><polygon fill="#181818" points="512,485.5938,516,495.5938,520,485.5938,516,489.5938" style="stroke:#181818;stroke-width:1.0;"/><!--SRC=[bP7BReCm44NtVCKi2LBp0SsY2fKgfPj8RQMk1nWIIyI9nfEs_7t7Td2SIEbZ1SmTpWKV9yXI5AQ7iZOMUOGzmnjzoSCCP4iMoYQCPmN0_MbZPGz70RGTh8-YjmkVLTKpVY2ire2D4yPMe1tGkQegD0wll0eJxk0ENWWxQ4OXS66a2v6KDjxPQ9gjB3p57GOZUWrrJsOWO4_oN_BfNuXT03xA6jCiBrbCFC0D6ZjHbymuEjZteTpTAAWr2vlNBIcuhY95nC-FXrKV-vxOs4r4naVgCbuvdyzdMPGJGwP7GeCZA4Lr1J_UsydEyj8E_Ap72o6UpBHRz0l4JgDWWfEIS_Pl8x4aFKRmcNBfGVzJ3-VM-SSq0yR1XFp5hF-7M-H7pS9c1a-pC_-FEYFascJ498UsCttXP7_u1W00]--></g></svg>