<?xml version="1.0" encoding="us-ascii" standalone="no"?><svg xmlns="http://www.w3.org/2000/svg" xmlns:xlink="http://www.w3.org/1999/xlink" contentStyleType="text/css" height="528px" preserveAspectRatio="none" style="width:1390px;height:528px;background:#FFFFFF;" version="1.1" viewBox="0 0 1390 528" width="1390px" zoomAndPan="magnify"><defs/><g><ellipse cx="557.75" cy="20" fill="#222222" rx="10" ry="10" style="stroke:#222222;stroke-width:1.0;"/><polygon fill="#F1F1F1" points="514.25,50,601.25,50,613.25,62,601.25,74,514.25,74,502.25,62,514.25,50" style="stroke:#181818;stroke-width:0.5;"/><text fill="#000000" font-family="sans-serif" font-size="11" lengthAdjust="spacing" textLength="87" x="514.25" y="65.8081">Binary or Text?</text><text fill="#000000" font-family="sans-serif" font-size="11" lengthAdjust="spacing" textLength="35" x="467.25" y="59.4058">binary</text><text fill="#000000" font-family="sans-serif" font-size="11" lengthAdjust="spacing" textLength="23" x="613.25" y="59.4058">text</text><rect fill="#F1F1F1" height="33.9688" rx="12.5" ry="12.5" style="stroke:#181818;stroke-width:0.5;" width="160" x="145" y="84"/><text fill="#000000" font-family="sans-serif" font-size="12" lengthAdjust="spacing" textLength="140" x="155" y="105.1387">Binary Input and Output</text><rect fill="#F1F1F1" height="75.875" rx="12.5" ry="12.5" style="stroke:#181818;stroke-width:0.5;" width="225" x="112.5" y="137.9688"/><text fill="#000000" font-family="sans-serif" font-size="12" font-weight="bold" lengthAdjust="spacing" textLength="158" x="122.5" y="159.1074">Java IO abstract class</text><text fill="#000000" font-family="sans-serif" font-size="12" lengthAdjust="spacing" textLength="4" x="122.5" y="173.0762">&#160;</text><text fill="#000000" font-family="sans-serif" font-size="12" lengthAdjust="spacing" textLength="192" x="122.5" y="187.0449">InputStream - Read byte stream</text><text fill="#000000" font-family="sans-serif" font-size="12" lengthAdjust="spacing" textLength="205" x="122.5" y="201.0137">OutputStream - Write byte stream</text><line style="stroke:#181818;stroke-width:1.5;" x1="89" x2="317" y1="233.8438" y2="233.8438"/><rect fill="#F1F1F1" height="75.875" rx="12.5" ry="12.5" style="stroke:#181818;stroke-width:0.5;" width="156" x="11" y="253.8438"/><text fill="#000000" font-family="sans-serif" font-size="12" font-weight="bold" lengthAdjust="spacing" textLength="136" x="21" y="274.9824">File read and write</text><text fill="#000000" font-family="sans-serif" font-size="12" lengthAdjust="spacing" textLength="4" x="21" y="288.9512">&#160;</text><text fill="#000000" font-family="sans-serif" font-size="12" lengthAdjust="spacing" textLength="93" x="21" y="302.9199">FileInputStream</text><text fill="#000000" font-family="sans-serif" font-size="12" lengthAdjust="spacing" textLength="104" x="21" y="316.8887">FileOutputStream</text><rect fill="#F1F1F1" height="75.875" rx="12.5" ry="12.5" style="stroke:#181818;stroke-width:0.5;" width="244" x="195" y="253.8438"/><text fill="#000000" font-family="sans-serif" font-size="12" font-weight="bold" lengthAdjust="spacing" textLength="224" x="205" y="274.9824">Arrays of bytes read and write</text><text fill="#000000" font-family="sans-serif" font-size="12" lengthAdjust="spacing" textLength="4" x="205" y="288.9512">&#160;</text><text fill="#000000" font-family="sans-serif" font-size="12" lengthAdjust="spacing" textLength="131" x="205" y="302.9199">ByteArrayInputStream</text><text fill="#000000" font-family="sans-serif" font-size="12" lengthAdjust="spacing" textLength="142" x="205" y="316.8887">ByteArrayOutputStream</text><line style="stroke:#181818;stroke-width:1.5;" x1="89" x2="317" y1="349.7188" y2="349.7188"/><rect fill="#F1F1F1" height="75.875" rx="12.5" ry="12.5" style="stroke:#181818;stroke-width:0.5;" width="174" x="138" y="369.7188"/><text fill="#000000" font-family="sans-serif" font-size="12" font-weight="bold" lengthAdjust="spacing" textLength="70" x="148" y="390.8574">Buffering</text><text fill="#000000" font-family="sans-serif" font-size="12" lengthAdjust="spacing" textLength="4" x="148" y="404.8262">&#160;</text><text fill="#000000" font-family="sans-serif" font-size="12" lengthAdjust="spacing" textLength="143" x="148" y="418.7949">BufferedInputStream(...)</text><text fill="#000000" font-family="sans-serif" font-size="12" lengthAdjust="spacing" textLength="154" x="148" y="432.7637">BufferedOutputStream(...)</text><rect fill="#F1F1F1" height="33.9688" rx="12.5" ry="12.5" style="stroke:#181818;stroke-width:0.5;" width="150" x="843" y="84"/><text fill="#000000" font-family="sans-serif" font-size="12" lengthAdjust="spacing" textLength="130" x="853" y="105.1387">Text Input And Output</text><rect fill="#F1F1F1" height="75.875" rx="12.5" ry="12.5" style="stroke:#181818;stroke-width:0.5;" width="182" x="827" y="137.9688"/><text fill="#000000" font-family="sans-serif" font-size="12" lengthAdjust="spacing" textLength="4" x="837" y="159.1074">&#160;</text><text fill="#000000" font-family="sans-serif" font-size="12" font-weight="bold" lengthAdjust="spacing" textLength="158" x="841" y="159.1074">Java IO abstract class</text><text fill="#000000" font-family="sans-serif" font-size="12" lengthAdjust="spacing" textLength="4" x="837" y="173.0762">&#160;</text><text fill="#000000" font-family="sans-serif" font-size="12" lengthAdjust="spacing" textLength="154" x="837" y="187.0449">Reader - Read characters</text><text fill="#000000" font-family="sans-serif" font-size="12" lengthAdjust="spacing" textLength="150" x="837" y="201.0137">Writer - Write characters</text><line style="stroke:#181818;stroke-width:1.5;" x1="527" x2="1234" y1="233.8438" y2="233.8438"/><rect fill="#F1F1F1" height="75.875" rx="12.5" ry="12.5" style="stroke:#181818;stroke-width:0.5;" width="156" x="449" y="253.8438"/><text fill="#000000" font-family="sans-serif" font-size="12" font-weight="bold" lengthAdjust="spacing" textLength="136" x="459" y="274.9824">File read and write</text><text fill="#000000" font-family="sans-serif" font-size="12" lengthAdjust="spacing" textLength="4" x="459" y="288.9512">&#160;</text><text fill="#000000" font-family="sans-serif" font-size="12" lengthAdjust="spacing" textLength="64" x="459" y="302.9199">FileReader</text><text fill="#000000" font-family="sans-serif" font-size="12" lengthAdjust="spacing" textLength="58" x="459" y="316.8887">FileWriter</text><rect fill="#F1F1F1" height="75.875" rx="12.5" ry="12.5" style="stroke:#181818;stroke-width:0.5;" width="184" x="633" y="253.8438"/><text fill="#000000" font-family="sans-serif" font-size="12" font-weight="bold" lengthAdjust="spacing" textLength="164" x="643" y="274.9824">Strings read and write</text><text fill="#000000" font-family="sans-serif" font-size="12" lengthAdjust="spacing" textLength="4" x="643" y="288.9512">&#160;</text><text fill="#000000" font-family="sans-serif" font-size="12" lengthAdjust="spacing" textLength="78" x="643" y="302.9199">StringReader</text><text fill="#000000" font-family="sans-serif" font-size="12" lengthAdjust="spacing" textLength="72" x="643" y="316.8887">StringWriter</text><rect fill="#F1F1F1" height="75.875" rx="12.5" ry="12.5" style="stroke:#181818;stroke-width:0.5;" width="244" x="834.5" y="253.8438"/><text fill="#000000" font-family="sans-serif" font-size="12" font-weight="bold" lengthAdjust="spacing" textLength="224" x="844.5" y="274.9824">Arrays of chars read and write</text><text fill="#000000" font-family="sans-serif" font-size="12" lengthAdjust="spacing" textLength="4" x="844.5" y="288.9512">&#160;</text><text fill="#000000" font-family="sans-serif" font-size="12" lengthAdjust="spacing" textLength="102" x="844.5" y="302.9199">CharArrayReader</text><text fill="#000000" font-family="sans-serif" font-size="12" lengthAdjust="spacing" textLength="96" x="844.5" y="316.8887">CharArrayWriter</text><rect fill="#F1F1F1" height="61.9063" rx="12.5" ry="12.5" style="stroke:#181818;stroke-width:0.5;" width="291" x="1088.5" y="260.8281"/><text fill="#000000" font-family="sans-serif" font-size="12" font-weight="bold" lengthAdjust="spacing" textLength="123" x="1098.5" y="281.9668">Text from Binary</text><text fill="#000000" font-family="sans-serif" font-size="12" lengthAdjust="spacing" textLength="266" x="1098.5" y="295.9355">InputStreamReader - Convert bytes to chars</text><text fill="#000000" font-family="sans-serif" font-size="12" lengthAdjust="spacing" textLength="271" x="1098.5" y="309.9043">OutputStreamWriter - Convert chars to bytes</text><line style="stroke:#181818;stroke-width:1.5;" x1="527" x2="1234" y1="349.7188" y2="349.7188"/><rect fill="#F1F1F1" height="75.875" rx="12.5" ry="12.5" style="stroke:#181818;stroke-width:0.5;" width="134" x="851" y="369.7188"/><text fill="#000000" font-family="sans-serif" font-size="12" font-weight="bold" lengthAdjust="spacing" textLength="70" x="861" y="390.8574">Buffering</text><text fill="#000000" font-family="sans-serif" font-size="12" lengthAdjust="spacing" textLength="4" x="861" y="404.8262">&#160;</text><text fill="#000000" font-family="sans-serif" font-size="12" lengthAdjust="spacing" textLength="114" x="861" y="418.7949">BufferedReader(...)</text><text fill="#000000" font-family="sans-serif" font-size="12" lengthAdjust="spacing" textLength="108" x="861" y="432.7637">BufferedWriter(...)</text><polygon fill="#F1F1F1" points="557.75,451.5938,569.75,463.5938,557.75,475.5938,545.75,463.5938,557.75,451.5938" style="stroke:#181818;stroke-width:0.5;"/><ellipse cx="557.75" cy="506.5938" fill="none" rx="11" ry="11" style="stroke:#222222;stroke-width:1.0;"/><ellipse cx="557.75" cy="506.5938" fill="#222222" rx="6" ry="6" style="stroke:#222222;stroke-width:1.0;"/><line style="stroke:#181818;stroke-width:1.0;" x1="225" x2="225" y1="117.9688" y2="137.9688"/><polygon fill="#181818" points="221,127.9688,225,137.9688,229,127.9688,225,131.9688" style="stroke:#181818;stroke-width:1.0;"/><line style="stroke:#181818;stroke-width:1.0;" x1="89" x2="89" y1="235.3438" y2="253.8438"/><polygon fill="#181818" points="85,243.8438,89,253.8438,93,243.8438,89,247.8438" style="stroke:#181818;stroke-width:1.0;"/><line style="stroke:#181818;stroke-width:1.0;" x1="317" x2="317" y1="235.3438" y2="253.8438"/><polygon fill="#181818" points="313,243.8438,317,253.8438,321,243.8438,317,247.8438" style="stroke:#181818;stroke-width:1.0;"/><line style="stroke:#181818;stroke-width:1.0;" x1="89" x2="89" y1="329.7188" y2="349.7188"/><polygon fill="#181818" points="85,339.7188,89,349.7188,93,339.7188,89,343.7188" style="stroke:#181818;stroke-width:1.0;"/><line style="stroke:#181818;stroke-width:1.0;" x1="317" x2="317" y1="329.7188" y2="349.7188"/><polygon fill="#181818" points="313,339.7188,317,349.7188,321,339.7188,317,343.7188" style="stroke:#181818;stroke-width:1.0;"/><line style="stroke:#181818;stroke-width:1.0;" x1="225" x2="225" y1="213.8438" y2="233.8438"/><polygon fill="#181818" points="221,223.8438,225,233.8438,229,223.8438,225,227.8438" style="stroke:#181818;stroke-width:1.0;"/><line style="stroke:#181818;stroke-width:1.0;" x1="225" x2="225" y1="351.2188" y2="369.7188"/><polygon fill="#181818" points="221,359.7188,225,369.7188,229,359.7188,225,363.7188" style="stroke:#181818;stroke-width:1.0;"/><line style="stroke:#181818;stroke-width:1.0;" x1="918" x2="918" y1="117.9688" y2="137.9688"/><polygon fill="#181818" points="914,127.9688,918,137.9688,922,127.9688,918,131.9688" style="stroke:#181818;stroke-width:1.0;"/><line style="stroke:#181818;stroke-width:1.0;" x1="527" x2="527" y1="235.3438" y2="253.8438"/><polygon fill="#181818" points="523,243.8438,527,253.8438,531,243.8438,527,247.8438" style="stroke:#181818;stroke-width:1.0;"/><line style="stroke:#181818;stroke-width:1.0;" x1="725" x2="725" y1="235.3438" y2="253.8438"/><polygon fill="#181818" points="721,243.8438,725,253.8438,729,243.8438,725,247.8438" style="stroke:#181818;stroke-width:1.0;"/><line style="stroke:#181818;stroke-width:1.0;" x1="956.5" x2="956.5" y1="235.3438" y2="253.8438"/><polygon fill="#181818" points="952.5,243.8438,956.5,253.8438,960.5,243.8438,956.5,247.8438" style="stroke:#181818;stroke-width:1.0;"/><line style="stroke:#181818;stroke-width:1.0;" x1="1234" x2="1234" y1="235.3438" y2="260.8281"/><polygon fill="#181818" points="1230,250.8281,1234,260.8281,1238,250.8281,1234,254.8281" style="stroke:#181818;stroke-width:1.0;"/><line style="stroke:#181818;stroke-width:1.0;" x1="527" x2="527" y1="329.7188" y2="349.7188"/><polygon fill="#181818" points="523,339.7188,527,349.7188,531,339.7188,527,343.7188" style="stroke:#181818;stroke-width:1.0;"/><line style="stroke:#181818;stroke-width:1.0;" x1="725" x2="725" y1="329.7188" y2="349.7188"/><polygon fill="#181818" points="721,339.7188,725,349.7188,729,339.7188,725,343.7188" style="stroke:#181818;stroke-width:1.0;"/><line style="stroke:#181818;stroke-width:1.0;" x1="956.5" x2="956.5" y1="329.7188" y2="349.7188"/><polygon fill="#181818" points="952.5,339.7188,956.5,349.7188,960.5,339.7188,956.5,343.7188" style="stroke:#181818;stroke-width:1.0;"/><line style="stroke:#181818;stroke-width:1.0;" x1="1234" x2="1234" y1="322.7344" y2="349.7188"/><polygon fill="#181818" points="1230,339.7188,1234,349.7188,1238,339.7188,1234,343.7188" style="stroke:#181818;stroke-width:1.0;"/><line style="stroke:#181818;stroke-width:1.0;" x1="918" x2="918" y1="213.8438" y2="233.8438"/><polygon fill="#181818" points="914,223.8438,918,233.8438,922,223.8438,918,227.8438" style="stroke:#181818;stroke-width:1.0;"/><line style="stroke:#181818;stroke-width:1.0;" x1="918" x2="918" y1="351.2188" y2="369.7188"/><polygon fill="#181818" points="914,359.7188,918,369.7188,922,359.7188,918,363.7188" style="stroke:#181818;stroke-width:1.0;"/><line style="stroke:#181818;stroke-width:1.0;" x1="502.25" x2="225" y1="62" y2="62"/><line style="stroke:#181818;stroke-width:1.0;" x1="225" x2="225" y1="62" y2="84"/><polygon fill="#181818" points="221,74,225,84,229,74,225,78" style="stroke:#181818;stroke-width:1.0;"/><line style="stroke:#181818;stroke-width:1.0;" x1="613.25" x2="918" y1="62" y2="62"/><line style="stroke:#181818;stroke-width:1.0;" x1="918" x2="918" y1="62" y2="84"/><polygon fill="#181818" points="914,74,918,84,922,74,918,78" style="stroke:#181818;stroke-width:1.0;"/><line style="stroke:#181818;stroke-width:1.0;" x1="225" x2="225" y1="445.5938" y2="463.5938"/><line style="stroke:#181818;stroke-width:1.0;" x1="225" x2="545.75" y1="463.5938" y2="463.5938"/><polygon fill="#181818" points="535.75,459.5938,545.75,463.5938,535.75,467.5938,539.75,463.5938" style="stroke:#181818;stroke-width:1.0;"/><line style="stroke:#181818;stroke-width:1.0;" x1="918" x2="918" y1="445.5938" y2="463.5938"/><line style="stroke:#181818;stroke-width:1.0;" x1="918" x2="569.75" y1="463.5938" y2="463.5938"/><polygon fill="#181818" points="579.75,459.5938,569.75,463.5938,579.75,467.5938,575.75,463.5938" style="stroke:#181818;stroke-width:1.0;"/><line style="stroke:#181818;stroke-width:1.0;" x1="557.75" x2="557.75" y1="30" y2="50"/><polygon fill="#181818" points="553.75,40,557.75,50,561.75,40,557.75,44" style="stroke:#181818;stroke-width:1.0;"/><line style="stroke:#181818;stroke-width:1.0;" x1="557.75" x2="557.75" y1="475.5938" y2="495.5938"/><polygon fill="#181818" points="553.75,485.5938,557.75,495.5938,561.75,485.5938,557.75,489.5938" style="stroke:#181818;stroke-width:1.0;"/><!--SRC=[bPF1Ri8m44Jl-OezXaZb0ygX0gHAS45gA_Lio0Oi1GUj5rh-lcilCIOIL9n8FECtpexnR8YBmZPGpgmpT8QEu0j_-Mq4l4C7vJekZmg0rujZuGv71kDgM1rP7YT1gwgbEHbOhC2iFPFPC6nQutrL5IB7BPzCQFRm0XzeQbYV6S779J4eAJc-oOgQMIQ1uW-jPVcDSU-sHQ102YVv2Hiq2o18MM9QoqCcFG_CrbZNKwT4vkoXQsAulnCm4oqwXob964QX8FJuEgpPiMcGhDigKb-npdZbU3mUPL9EZ9gC15kFKBBK5Vi9lLtQcTws0u_h2OKWzSriTYOOaBn8iGbAbLorfnlHaFIgu2lbjWVvJXdElVchcW5reKV-qspuXdlakMZHcS7JsaD-77v3tHxqRoB4e6IDfYdFEtT2uiiLuqvF5ErvosdqlLyFBlwuyObhfSd36wNyT9TSRPl2StVu0m00]--></g></svg>