<svg xmlns="http://www.w3.org/2000/svg" xmlns:xlink="http://www.w3.org/1999/xlink" contentStyleType="text/css" data-diagram-type="DESCRIPTION" height="399px" preserveAspectRatio="none" style="width:536px;height:399px;background:#FFFFFF;" version="1.1" viewBox="0 0 536 399" width="536px" zoomAndPan="magnify"><title>Forward proxy</title><defs/><g><g class="title" data-source-line="12"><text fill="#000000" font-family="sans-serif" font-size="14" font-weight="bold" lengthAdjust="spacing" textLength="114.9668" x="203.8981" y="22.9951">Forward proxy</text></g><!--cluster clientsLan--><g class="cluster" data-entity="clientsLan" data-source-line="18" data-uid="ent0005" id="cluster_clientsLan"><rect fill="none" height="349" rx="2.5" ry="2.5" style="stroke:#181818;stroke-width:1;" width="296.1" x="7" y="44.2969"/><text fill="#000000" font-family="sans-serif" font-size="14" font-weight="bold" lengthAdjust="spacing" textLength="90.7061" x="109.697" y="59.292">Clients LAN</text></g><!--cluster forwardProxy--><g class="cluster" data-entity="forwardProxy" data-source-line="23" data-uid="ent0009" id="cluster_forwardProxy"><rect fill="none" height="81" rx="2.5" ry="2.5" style="stroke:#181818;stroke-width:1;" width="156.65" x="122.45" y="178.2969"/><text fill="#000000" font-family="sans-serif" font-size="14" font-weight="bold" lengthAdjust="spacing" textLength="114.9668" x="143.2916" y="193.292">Forward proxy</text></g><!--entity clientN--><g class="entity" data-entity="clientN" data-source-line="19" data-uid="ent0006" id="entity_clientN"><ellipse cx="50.7266" cy="309.6469" fill="#F1F1F1" rx="8" ry="8" style="stroke:#181818;stroke-width:0.5;"/><path d="M50.7266,317.6469 L50.7266,344.6469 M37.7266,325.6469 L63.7266,325.6469 M50.7266,344.6469 L37.7266,359.6469 M50.7266,344.6469 L63.7266,359.6469" fill="none" style="stroke:#181818;stroke-width:0.5;"/><text fill="#000000" font-family="sans-serif" font-size="14" lengthAdjust="spacing" textLength="40.5303" x="23" y="374.142">Client</text><text fill="#000000" font-family="sans-serif" font-size="14" lengthAdjust="spacing" textLength="4.4502" x="63.5303" y="374.142">&#160;</text><text fill="#000000" font-family="sans-serif" font-size="14" lengthAdjust="spacing" textLength="10.4727" x="67.9805" y="374.142">N</text></g><!--entity client2--><g class="entity" data-entity="client2" data-source-line="20" data-uid="ent0007" id="entity_client2"><ellipse cx="50.7238" cy="198.6469" fill="#F1F1F1" rx="8" ry="8" style="stroke:#181818;stroke-width:0.5;"/><path d="M50.7238,206.6469 L50.7238,233.6469 M37.7238,214.6469 L63.7238,214.6469 M50.7238,233.6469 L37.7238,248.6469 M50.7238,233.6469 L63.7238,248.6469" fill="none" style="stroke:#181818;stroke-width:0.5;"/><text fill="#000000" font-family="sans-serif" font-size="14" lengthAdjust="spacing" textLength="40.5303" x="23.78" y="263.142">Client</text><text fill="#000000" font-family="sans-serif" font-size="14" lengthAdjust="spacing" textLength="4.4502" x="64.3103" y="263.142">&#160;</text><text fill="#000000" font-family="sans-serif" font-size="14" lengthAdjust="spacing" textLength="8.9072" x="68.7605" y="263.142">2</text></g><!--entity client1--><g class="entity" data-entity="client1" data-source-line="21" data-uid="ent0008" id="entity_client1"><ellipse cx="50.7238" cy="87.6469" fill="#F1F1F1" rx="8" ry="8" style="stroke:#181818;stroke-width:0.5;"/><path d="M50.7238,95.6469 L50.7238,122.6469 M37.7238,103.6469 L63.7238,103.6469 M50.7238,122.6469 L37.7238,137.6469 M50.7238,122.6469 L63.7238,137.6469" fill="none" style="stroke:#181818;stroke-width:0.5;"/><text fill="#000000" font-family="sans-serif" font-size="14" lengthAdjust="spacing" textLength="40.5303" x="23.78" y="152.142">Client</text><text fill="#000000" font-family="sans-serif" font-size="14" lengthAdjust="spacing" textLength="4.4502" x="64.3103" y="152.142">&#160;</text><text fill="#000000" font-family="sans-serif" font-size="14" lengthAdjust="spacing" textLength="8.9072" x="68.7605" y="152.142">1</text></g><!--entity Exit the LAN--><g class="entity" data-entity="Exit the LAN" data-source-line="24" data-uid="ent0010" id="entity_Exit the LAN"><ellipse cx="200.7717" cy="228.3012" fill="#F1F1F1" rx="62.3217" ry="14.8643" style="stroke:#181818;stroke-width:0.5;"/><text fill="#000000" font-family="sans-serif" font-size="14" lengthAdjust="spacing" textLength="26.5098" x="157.654" y="232.9496">Exit</text><text fill="#000000" font-family="sans-serif" font-size="14" lengthAdjust="spacing" textLength="4.4502" x="184.1638" y="232.9496">&#160;</text><text fill="#000000" font-family="sans-serif" font-size="14" lengthAdjust="spacing" textLength="22.9756" x="188.6139" y="232.9496">the</text><text fill="#000000" font-family="sans-serif" font-size="14" lengthAdjust="spacing" textLength="4.4502" x="211.5895" y="232.9496">&#160;</text><text fill="#000000" font-family="sans-serif" font-size="14" lengthAdjust="spacing" textLength="27.8496" x="216.0397" y="232.9496">LAN</text></g><!--entity internet--><g class="entity" data-entity="internet" data-source-line="30" data-uid="ent0014" id="entity_internet"><path d="M332.8718,214.0275 C335.9675,208.9934 339.8961,208.7283 343.7035,213.2181 C346.8115,207.0462 351.1558,207.1469 355.3975,212.0176 C358.3135,206.695 362.5813,206.2176 366.1613,211.3329 C369.9098,206.4085 373.7667,205.3078 377.754,211.0739 C382.7972,205.8105 387.0282,205.9592 389.8707,213.2055 C393.9283,208.038 398.5861,208.3125 402.2725,213.644 C409.6104,216.4834 411.3477,223.8395 405.0329,229.1149 C410.8375,235.5165 410.683,240.6002 402.687,244.9584 C400.7328,251.119 395.199,251.5271 391.4502,246.8127 C388.5104,255.086 384.0431,256.128 377.9192,249.7543 C376.9868,255.4705 372.2934,257.6534 367.4054,254.381 C362.8073,258.5792 357.5243,258.0393 355.5621,251.4792 C349.0423,256.3147 345.8172,253.6806 343.6099,247.0024 C339.4016,251.458 334.3343,250.9896 331.6627,245.2089 C322.0047,244.2362 318.7838,237.0127 325.3799,229.5277 C319.2629,220.5454 322.3557,214.9704 332.8718,214.0275" fill="#F1F1F1" style="stroke:#181818;stroke-width:0.5;"/><text fill="#000000" font-family="sans-serif" font-size="14" lengthAdjust="spacing" textLength="55.8359" x="338.1" y="233.142">Internet</text></g><!--entity server1--><g class="entity" data-entity="server1" data-source-line="14" data-uid="ent0002" id="entity_server1"><ellipse cx="499.3538" cy="87.6469" fill="#F1F1F1" rx="8" ry="8" style="stroke:#181818;stroke-width:0.5;"/><path d="M499.3538,95.6469 L499.3538,122.6469 M486.3538,103.6469 L512.3538,103.6469 M499.3538,122.6469 L486.3538,137.6469 M499.3538,122.6469 L512.3538,137.6469" fill="none" style="stroke:#181818;stroke-width:0.5;"/><text fill="#000000" font-family="sans-serif" font-size="14" lengthAdjust="spacing" textLength="45.9102" x="469.72" y="152.142">Server</text><text fill="#000000" font-family="sans-serif" font-size="14" lengthAdjust="spacing" textLength="4.4502" x="515.6302" y="152.142">&#160;</text><text fill="#000000" font-family="sans-serif" font-size="14" lengthAdjust="spacing" textLength="8.9072" x="520.0804" y="152.142">1</text></g><!--entity server2--><g class="entity" data-entity="server2" data-source-line="15" data-uid="ent0003" id="entity_server2"><ellipse cx="499.3538" cy="198.6469" fill="#F1F1F1" rx="8" ry="8" style="stroke:#181818;stroke-width:0.5;"/><path d="M499.3538,206.6469 L499.3538,233.6469 M486.3538,214.6469 L512.3538,214.6469 M499.3538,233.6469 L486.3538,248.6469 M499.3538,233.6469 L512.3538,248.6469" fill="none" style="stroke:#181818;stroke-width:0.5;"/><text fill="#000000" font-family="sans-serif" font-size="14" lengthAdjust="spacing" textLength="45.9102" x="469.72" y="263.142">Server</text><text fill="#000000" font-family="sans-serif" font-size="14" lengthAdjust="spacing" textLength="4.4502" x="515.6302" y="263.142">&#160;</text><text fill="#000000" font-family="sans-serif" font-size="14" lengthAdjust="spacing" textLength="8.9072" x="520.0804" y="263.142">2</text></g><!--entity serverN--><g class="entity" data-entity="serverN" data-source-line="16" data-uid="ent0004" id="entity_serverN"><ellipse cx="499.3465" cy="309.6469" fill="#F1F1F1" rx="8" ry="8" style="stroke:#181818;stroke-width:0.5;"/><path d="M499.3465,317.6469 L499.3465,344.6469 M486.3465,325.6469 L512.3465,325.6469 M499.3465,344.6469 L486.3465,359.6469 M499.3465,344.6469 L512.3465,359.6469" fill="none" style="stroke:#181818;stroke-width:0.5;"/><text fill="#000000" font-family="sans-serif" font-size="14" lengthAdjust="spacing" textLength="45.9102" x="468.93" y="374.142">Server</text><text fill="#000000" font-family="sans-serif" font-size="14" lengthAdjust="spacing" textLength="4.4502" x="514.8402" y="374.142">&#160;</text><text fill="#000000" font-family="sans-serif" font-size="14" lengthAdjust="spacing" textLength="10.4727" x="519.2904" y="374.142">N</text></g><!--link client1 to Exit the LAN--><g class="link" data-entity-1="client1" data-entity-2="Exit the LAN" data-source-line="24" data-uid="lnk11" id="link_client1_Exit the LAN"><path d="M77.85,136.8869 C107.24,158.9169 154.27,194.1869 180.5,213.8469" fill="none" id="client1-Exit the LAN" style="stroke:#181818;stroke-width:1;"/></g><!--link client2 to Exit the LAN--><g class="link" data-entity-1="client2" data-entity-2="Exit the LAN" data-source-line="25" data-uid="lnk12" id="link_client2_Exit the LAN"><path d="M77.85,228.2969 C94.62,228.2969 117.14,228.2969 138.25,228.2969" fill="none" id="client2-Exit the LAN" style="stroke:#181818;stroke-width:1;"/></g><!--link clientN to Exit the LAN--><g class="link" data-entity-1="clientN" data-entity-2="Exit the LAN" data-source-line="26" data-uid="lnk13" id="link_clientN_Exit the LAN"><path d="M78.88,318.9369 C108.43,296.7769 154.91,261.9369 180.78,242.5369" fill="none" id="clientN-Exit the LAN" style="stroke:#181818;stroke-width:1;"/></g><!--link Exit the LAN to internet--><g class="link" data-entity-1="Exit the LAN" data-entity-2="internet" data-source-line="31" data-uid="lnk15" id="link_Exit the LAN_internet"><path d="M263.49,228.2969 C283.35,228.2969 304.89,228.2969 323,228.2969" fill="none" id="Exit the LAN-internet" style="stroke:#181818;stroke-width:1;"/></g><!--link internet to server1--><g class="link" data-entity-1="internet" data-entity-2="server1" data-source-line="32" data-uid="lnk16" id="link_internet_server1"><path d="M394.87,204.7569 C416.85,186.1769 447.42,160.3369 469.63,141.5669" fill="none" id="internet-server1" style="stroke:#181818;stroke-width:1;"/></g><!--link internet to server2--><g class="link" data-entity-1="internet" data-entity-2="server2" data-source-line="33" data-uid="lnk17" id="link_internet_server2"><path d="M409.29,228.2969 C428.94,228.2969 451.8,228.2969 469.44,228.2969" fill="none" id="internet-server2" style="stroke:#181818;stroke-width:1;"/></g><!--link internet to serverN--><g class="link" data-entity-1="internet" data-entity-2="serverN" data-source-line="34" data-uid="lnk18" id="link_internet_serverN"><path d="M394.87,251.8369 C416.55,270.1669 446.58,295.5469 468.71,314.2469" fill="none" id="internet-serverN" style="stroke:#181818;stroke-width:1;"/></g><!--SRC=[XPBHQi8m58RlprESzMfU26t77a361WDN10Uxpj9Z3RP9bnvdTVZkIzfCeYZBHI3vlfpyfsbDAqOsQ5MrPYoL9SdAQEWsIhV2YWPR8JUYeYNlQqAFXQvgYeHFqoz4MIfTOPQc4MX4_qPTvm-h0-736TI6wPrwdjMgqWrfHkacif7IqTUMjAHGP32lHjnPqNweajUOFwO0TwqLLIEGoHoGxPO0MB5BdxmOknEsnDQQVfy02Cd6Oh8a-qqMimH5vsxrY-o2vH7BBrWHiGBWz8qmUQgLQwh3-MnqvBYU2uq_W6w4GgE7iLHSuNd4yoiyYtW6Wn25EM_UcwjnP-4tGY0_GW6SJl7-kLVk_rYJRs5oOUJ_6iKDumX705cRROd9gtzrJJmaKc4HqfmVzSN-X06VR7zBUBV9BPBV92xKyHS0]--></g></svg>