<svg xmlns="http://www.w3.org/2000/svg" xmlns:xlink="http://www.w3.org/1999/xlink" contentStyleType="text/css" data-diagram-type="SEQUENCE" height="491px" preserveAspectRatio="none" style="width:692px;height:491px;background:#FFFFFF;" version="1.1" viewBox="0 0 692 491" width="692px" zoomAndPan="magnify"><title>HTTP without the //Host// header</title><defs/><g><text fill="#000000" font-family="sans-serif" font-size="14" font-weight="bold" lengthAdjust="spacing" textLength="137.6484" x="225.5115" y="27.9951">HTTP without the</text><text fill="#000000" font-family="sans-serif" font-size="14" font-style="italic" font-weight="bold" lengthAdjust="spacing" textLength="36.3604" x="368.0339" y="27.9951">Host</text><text fill="#000000" font-family="sans-serif" font-size="14" font-weight="bold" lengthAdjust="spacing" textLength="55.3301" x="409.2683" y="27.9951">header</text><g><title>client</title><rect fill="#000000" fill-opacity="0.00000" height="124.5313" width="8" x="23.7261" y="118.5938"/><line style="stroke:#181818;stroke-width:0.5;stroke-dasharray:5,5;" x1="27.2261" x2="27.2261" y1="118.5938" y2="243.125"/></g><line style="stroke:#181818;stroke-width:0.5;stroke-dasharray:1,4;" x1="27.2261" x2="27.2261" y1="243.125" y2="283.9297"/><g><title>client</title><rect fill="#000000" fill-opacity="0.00000" height="126.5313" width="8" x="23.7261" y="283.9297"/><line style="stroke:#181818;stroke-width:0.5;stroke-dasharray:5,5;" x1="27.2261" x2="27.2261" y1="283.9297" y2="410.4609"/></g><g><title>DNS server</title><rect fill="#000000" fill-opacity="0.00000" height="124.5313" width="8" x="336.4502" y="118.5938"/><line style="stroke:#181818;stroke-width:0.5;stroke-dasharray:5,5;" x1="339.9502" x2="339.9502" y1="118.5938" y2="243.125"/></g><line style="stroke:#181818;stroke-width:0.5;stroke-dasharray:1,4;" x1="339.9502" x2="339.9502" y1="243.125" y2="283.9297"/><g><title>DNS server</title><rect fill="#000000" fill-opacity="0.00000" height="126.5313" width="8" x="336.4502" y="283.9297"/><line style="stroke:#181818;stroke-width:0.5;stroke-dasharray:5,5;" x1="339.9502" x2="339.9502" y1="283.9297" y2="410.4609"/></g><g><title>Web server 1</title><rect fill="#000000" fill-opacity="0.00000" height="124.5313" width="8" x="466.7319" y="118.5938"/><line style="stroke:#181818;stroke-width:0.5;stroke-dasharray:5,5;" x1="470.2319" x2="470.2319" y1="118.5938" y2="243.125"/></g><line style="stroke:#181818;stroke-width:0.5;stroke-dasharray:1,4;" x1="470.2319" x2="470.2319" y1="243.125" y2="283.9297"/><g><title>Web server 1</title><rect fill="#000000" fill-opacity="0.00000" height="126.5313" width="8" x="466.7319" y="283.9297"/><line style="stroke:#181818;stroke-width:0.5;stroke-dasharray:5,5;" x1="470.2319" x2="470.2319" y1="283.9297" y2="410.4609"/></g><g><title>Web server 2</title><rect fill="#000000" fill-opacity="0.00000" height="124.5313" width="8" x="616.585" y="118.5938"/><line style="stroke:#181818;stroke-width:0.5;stroke-dasharray:5,5;" x1="620.085" x2="620.085" y1="118.5938" y2="243.125"/></g><line style="stroke:#181818;stroke-width:0.5;stroke-dasharray:1,4;" x1="620.085" x2="620.085" y1="243.125" y2="283.9297"/><g><title>Web server 2</title><rect fill="#000000" fill-opacity="0.00000" height="126.5313" width="8" x="616.585" y="283.9297"/><line style="stroke:#181818;stroke-width:0.5;stroke-dasharray:5,5;" x1="620.085" x2="620.085" y1="283.9297" y2="410.4609"/></g><text fill="#000000" font-family="sans-serif" font-size="14" lengthAdjust="spacing" textLength="38.4521" x="5" y="115.292">client</text><ellipse cx="27.2261" cy="50.7969" fill="#E2E2F0" rx="8" ry="8" style="stroke:#181818;stroke-width:0.5;"/><path d="M27.2261,58.7969 L27.2261,85.7969 M14.2261,66.7969 L40.2261,66.7969 M27.2261,85.7969 L14.2261,100.7969 M27.2261,85.7969 L40.2261,100.7969" fill="none" style="stroke:#181818;stroke-width:0.5;"/><rect fill="#E2E2F0" height="46.5938" rx="2.5" ry="2.5" style="stroke:#181818;stroke-width:0.5;" width="92.9072" x="293.4966" y="71"/><text fill="#000000" font-family="sans-serif" font-size="14" lengthAdjust="spacing" textLength="78.9072" x="300.4966" y="90.9951">DNS server</text><text fill="#000000" font-family="sans-serif" font-size="14" lengthAdjust="spacing" textLength="48.9795" x="315.4604" y="107.292">9.9.9.9</text><rect fill="#E2E2F0" height="62.8906" rx="2.5" ry="2.5" style="stroke:#181818;stroke-width:0.5;" width="147.6563" x="396.4038" y="54.7031"/><text fill="#000000" font-family="sans-serif" font-size="14" lengthAdjust="spacing" textLength="93.4678" x="423.498" y="74.6982">Web server 1</text><text fill="#000000" font-family="sans-serif" font-size="14" lengthAdjust="spacing" textLength="133.6563" x="403.4038" y="90.9951">www.example.com</text><text fill="#000000" font-family="sans-serif" font-size="14" lengthAdjust="spacing" textLength="102.4229" x="419.0205" y="107.292">93.184.216.34</text><rect fill="#E2E2F0" height="62.8906" rx="2.5" ry="2.5" style="stroke:#181818;stroke-width:0.5;" width="132.0498" x="554.0601" y="54.7031"/><text fill="#000000" font-family="sans-serif" font-size="14" lengthAdjust="spacing" textLength="93.4678" x="573.3511" y="74.6982">Web server 2</text><text fill="#000000" font-family="sans-serif" font-size="14" lengthAdjust="spacing" textLength="118.0498" x="561.0601" y="90.9951">www.github.com</text><text fill="#000000" font-family="sans-serif" font-size="14" lengthAdjust="spacing" textLength="93.5156" x="573.3271" y="107.292">140.82.121.3</text><text fill="#000000" font-family="sans-serif" font-size="14" lengthAdjust="spacing" textLength="38.4521" x="5" y="483.4561">client</text><ellipse cx="27.2261" cy="418.9609" fill="#E2E2F0" rx="8" ry="8" style="stroke:#181818;stroke-width:0.5;"/><path d="M27.2261,426.9609 L27.2261,453.9609 M14.2261,434.9609 L40.2261,434.9609 M27.2261,453.9609 L14.2261,468.9609 M27.2261,453.9609 L40.2261,468.9609" fill="none" style="stroke:#181818;stroke-width:0.5;"/><rect fill="#E2E2F0" height="46.5938" rx="2.5" ry="2.5" style="stroke:#181818;stroke-width:0.5;" width="92.9072" x="293.4966" y="410.4609"/><text fill="#000000" font-family="sans-serif" font-size="14" lengthAdjust="spacing" textLength="78.9072" x="300.4966" y="430.4561">DNS server</text><text fill="#000000" font-family="sans-serif" font-size="14" lengthAdjust="spacing" textLength="48.9795" x="315.4604" y="446.7529">9.9.9.9</text><rect fill="#E2E2F0" height="62.8906" rx="2.5" ry="2.5" style="stroke:#181818;stroke-width:0.5;" width="147.6563" x="396.4038" y="410.4609"/><text fill="#000000" font-family="sans-serif" font-size="14" lengthAdjust="spacing" textLength="93.4678" x="423.498" y="430.4561">Web server 1</text><text fill="#000000" font-family="sans-serif" font-size="14" lengthAdjust="spacing" textLength="133.6563" x="403.4038" y="446.7529">www.example.com</text><text fill="#000000" font-family="sans-serif" font-size="14" lengthAdjust="spacing" textLength="102.4229" x="419.0205" y="463.0498">93.184.216.34</text><rect fill="#E2E2F0" height="62.8906" rx="2.5" ry="2.5" style="stroke:#181818;stroke-width:0.5;" width="132.0498" x="554.0601" y="410.4609"/><text fill="#000000" font-family="sans-serif" font-size="14" lengthAdjust="spacing" textLength="93.4678" x="573.3511" y="430.4561">Web server 2</text><text fill="#000000" font-family="sans-serif" font-size="14" lengthAdjust="spacing" textLength="118.0498" x="561.0601" y="446.7529">www.github.com</text><text fill="#000000" font-family="sans-serif" font-size="14" lengthAdjust="spacing" textLength="93.5156" x="573.3271" y="463.0498">140.82.121.3</text><polygon fill="#181818" points="327.9502,143.7266,337.9502,147.7266,327.9502,151.7266,331.9502,147.7266" style="stroke:#181818;stroke-width:1;"/><line style="stroke:#181818;stroke-width:1;" x1="27.2261" x2="333.9502" y1="147.7266" y2="147.7266"/><text fill="#000000" font-family="sans-serif" font-size="13" font-weight="bold" lengthAdjust="spacing" textLength="9.0454" x="34.2261" y="142.6606">1</text><text fill="#000000" font-family="sans-serif" font-size="13" lengthAdjust="spacing" textLength="11.6733" x="47.2715" y="142.6606">IP</text><text fill="#000000" font-family="sans-serif" font-size="13" lengthAdjust="spacing" textLength="4.1323" x="58.9448" y="142.6606">&#160;</text><text fill="#000000" font-family="sans-serif" font-size="13" lengthAdjust="spacing" textLength="17.875" x="63.0771" y="142.6606">for</text><text fill="#000000" font-family="sans-serif" font-size="13" lengthAdjust="spacing" textLength="4.1323" x="80.9521" y="142.6606">&#160;</text><text fill="#000000" font-family="sans-serif" font-size="13" lengthAdjust="spacing" textLength="131.0093" x="85.0845" y="142.6606">www.example.com?</text><polygon fill="#181818" points="38.2261,172.8594,28.2261,176.8594,38.2261,180.8594,34.2261,176.8594" style="stroke:#181818;stroke-width:1;"/><line style="stroke:#181818;stroke-width:1;" x1="32.2261" x2="338.9502" y1="176.8594" y2="176.8594"/><text fill="#000000" font-family="sans-serif" font-size="13" font-weight="bold" lengthAdjust="spacing" textLength="9.0454" x="44.2261" y="171.7935">2</text><text fill="#000000" font-family="sans-serif" font-size="13" lengthAdjust="spacing" textLength="11.6733" x="57.2715" y="171.7935">IP</text><text fill="#000000" font-family="sans-serif" font-size="13" lengthAdjust="spacing" textLength="4.1323" x="68.9448" y="171.7935">&#160;</text><text fill="#000000" font-family="sans-serif" font-size="13" lengthAdjust="spacing" textLength="17.875" x="73.0771" y="171.7935">for</text><text fill="#000000" font-family="sans-serif" font-size="13" lengthAdjust="spacing" textLength="4.1323" x="90.9521" y="171.7935">&#160;</text><text fill="#000000" font-family="sans-serif" font-size="13" lengthAdjust="spacing" textLength="124.1094" x="95.0845" y="171.7935">www.example.com</text><text fill="#000000" font-family="sans-serif" font-size="13" lengthAdjust="spacing" textLength="4.1323" x="219.1938" y="171.7935">&#160;</text><text fill="#000000" font-family="sans-serif" font-size="13" lengthAdjust="spacing" textLength="10.3848" x="223.3262" y="171.7935">is</text><text fill="#000000" font-family="sans-serif" font-size="13" lengthAdjust="spacing" textLength="4.1323" x="233.7109" y="171.7935">&#160;</text><text fill="#000000" font-family="sans-serif" font-size="13" lengthAdjust="spacing" textLength="95.1069" x="237.8433" y="171.7935">93.184.216.34</text><polygon fill="#181818" points="458.2319,201.9922,468.2319,205.9922,458.2319,209.9922,462.2319,205.9922" style="stroke:#181818;stroke-width:1;"/><line style="stroke:#181818;stroke-width:1;" x1="27.2261" x2="464.2319" y1="205.9922" y2="205.9922"/><text fill="#000000" font-family="sans-serif" font-size="13" font-weight="bold" lengthAdjust="spacing" textLength="9.0454" x="34.2261" y="200.9263">3</text><text fill="#000000" font-family="sans-serif" font-size="13" lengthAdjust="spacing" textLength="26.2285" x="47.2715" y="200.9263">GET</text><text fill="#000000" font-family="sans-serif" font-size="13" lengthAdjust="spacing" textLength="4.1323" x="73.5" y="200.9263">&#160;</text><text fill="#000000" font-family="sans-serif" font-size="13" lengthAdjust="spacing" textLength="4.3799" x="77.6323" y="200.9263">/</text><text fill="#000000" font-family="sans-serif" font-size="13" lengthAdjust="spacing" textLength="4.1323" x="82.0122" y="200.9263">&#160;</text><text fill="#000000" font-family="sans-serif" font-size="13" lengthAdjust="spacing" textLength="58.5508" x="86.1445" y="200.9263">HTTP/1.1</text><polygon fill="#181818" points="38.2261,231.125,28.2261,235.125,38.2261,239.125,34.2261,235.125" style="stroke:#181818;stroke-width:1;"/><line style="stroke:#181818;stroke-width:1;" x1="32.2261" x2="469.2319" y1="235.125" y2="235.125"/><text fill="#000000" font-family="sans-serif" font-size="13" font-weight="bold" lengthAdjust="spacing" textLength="9.0454" x="364.855" y="230.0591">4</text><text fill="#000000" font-family="sans-serif" font-size="13" lengthAdjust="spacing" textLength="33.4966" x="377.9004" y="230.0591">HTTP</text><text fill="#000000" font-family="sans-serif" font-size="13" lengthAdjust="spacing" textLength="4.1323" x="411.397" y="230.0591">&#160;</text><text fill="#000000" font-family="sans-serif" font-size="13" lengthAdjust="spacing" textLength="24.813" x="415.5293" y="230.0591">200</text><text fill="#000000" font-family="sans-serif" font-size="13" lengthAdjust="spacing" textLength="4.1323" x="440.3423" y="230.0591">&#160;</text><text fill="#000000" font-family="sans-serif" font-size="13" lengthAdjust="spacing" textLength="18.7573" x="444.4746" y="230.0591">OK</text><text fill="#000000" font-family="sans-serif" font-size="11" lengthAdjust="spacing" textLength="3.4966" x="278.9285" y="267.3354">&#160;</text><path d="M287.0918,259.8464 C285.0751,259.8464 283.4251,261.4964 283.4251,263.513 C283.4251,265.5297 285.0751,267.1797 287.0918,267.1797 C289.1085,267.1797 290.7585,265.5297 290.7585,263.513 C290.7585,261.4964 289.1085,259.8464 287.0918,259.8464 M287.0918,260.763 C288.6135,260.763 289.8418,261.9914 289.8418,263.513 C289.8418,265.0347 288.6135,266.263 287.0918,266.263 C285.5701,266.263 284.3418,265.0347 284.3418,263.513 C284.3418,261.9914 285.5701,260.763 287.0918,260.763 M286.6335,261.6797 L286.6335,263.7147 L286.7801,263.8339 L287.2385,264.2922 L287.5501,264.6405 L288.2101,263.9805 L287.8618,263.6689 L287.5501,263.3572 L287.5501,261.698 L286.6335,261.698" fill="#000000"/><text fill="#000000" font-family="sans-serif" font-size="11" lengthAdjust="spacing" textLength="69.6309" x="295.255" y="267.3354">Time flows...</text><polygon fill="#181818" points="327.9502,301.0625,337.9502,305.0625,327.9502,309.0625,331.9502,305.0625" style="stroke:#181818;stroke-width:1;"/><line style="stroke:#181818;stroke-width:1;" x1="27.2261" x2="333.9502" y1="305.0625" y2="305.0625"/><text fill="#000000" font-family="sans-serif" font-size="13" font-weight="bold" lengthAdjust="spacing" textLength="9.0454" x="34.2261" y="299.9966">5</text><text fill="#000000" font-family="sans-serif" font-size="13" lengthAdjust="spacing" textLength="11.6733" x="47.2715" y="299.9966">IP</text><text fill="#000000" font-family="sans-serif" font-size="13" lengthAdjust="spacing" textLength="4.1323" x="58.9448" y="299.9966">&#160;</text><text fill="#000000" font-family="sans-serif" font-size="13" lengthAdjust="spacing" textLength="17.875" x="63.0771" y="299.9966">for</text><text fill="#000000" font-family="sans-serif" font-size="13" lengthAdjust="spacing" textLength="4.1323" x="80.9521" y="299.9966">&#160;</text><text fill="#000000" font-family="sans-serif" font-size="13" lengthAdjust="spacing" textLength="116.5176" x="85.0845" y="299.9966">www.github.com?</text><polygon fill="#181818" points="38.2261,330.1953,28.2261,334.1953,38.2261,338.1953,34.2261,334.1953" style="stroke:#181818;stroke-width:1;"/><line style="stroke:#181818;stroke-width:1;" x1="32.2261" x2="338.9502" y1="334.1953" y2="334.1953"/><text fill="#000000" font-family="sans-serif" font-size="13" font-weight="bold" lengthAdjust="spacing" textLength="9.0454" x="66.9888" y="329.1294">6</text><text fill="#000000" font-family="sans-serif" font-size="13" lengthAdjust="spacing" textLength="11.6733" x="80.0342" y="329.1294">IP</text><text fill="#000000" font-family="sans-serif" font-size="13" lengthAdjust="spacing" textLength="4.1323" x="91.7075" y="329.1294">&#160;</text><text fill="#000000" font-family="sans-serif" font-size="13" lengthAdjust="spacing" textLength="17.875" x="95.8398" y="329.1294">for</text><text fill="#000000" font-family="sans-serif" font-size="13" lengthAdjust="spacing" textLength="4.1323" x="113.7148" y="329.1294">&#160;</text><text fill="#000000" font-family="sans-serif" font-size="13" lengthAdjust="spacing" textLength="109.6177" x="117.8472" y="329.1294">www.github.com</text><text fill="#000000" font-family="sans-serif" font-size="13" lengthAdjust="spacing" textLength="4.1323" x="227.4648" y="329.1294">&#160;</text><text fill="#000000" font-family="sans-serif" font-size="13" lengthAdjust="spacing" textLength="10.3848" x="231.5972" y="329.1294">is</text><text fill="#000000" font-family="sans-serif" font-size="13" lengthAdjust="spacing" textLength="4.1323" x="241.9819" y="329.1294">&#160;</text><text fill="#000000" font-family="sans-serif" font-size="13" lengthAdjust="spacing" textLength="86.8359" x="246.1143" y="329.1294">140.82.121.3</text><polygon fill="#181818" points="608.085,359.3281,618.085,363.3281,608.085,367.3281,612.085,363.3281" style="stroke:#181818;stroke-width:1;"/><line style="stroke:#181818;stroke-width:1;" x1="27.2261" x2="614.085" y1="363.3281" y2="363.3281"/><text fill="#000000" font-family="sans-serif" font-size="13" font-weight="bold" lengthAdjust="spacing" textLength="9.0454" x="34.2261" y="358.2622">7</text><text fill="#000000" font-family="sans-serif" font-size="13" lengthAdjust="spacing" textLength="26.2285" x="47.2715" y="358.2622">GET</text><text fill="#000000" font-family="sans-serif" font-size="13" lengthAdjust="spacing" textLength="4.1323" x="73.5" y="358.2622">&#160;</text><text fill="#000000" font-family="sans-serif" font-size="13" lengthAdjust="spacing" textLength="4.3799" x="77.6323" y="358.2622">/</text><text fill="#000000" font-family="sans-serif" font-size="13" lengthAdjust="spacing" textLength="4.1323" x="82.0122" y="358.2622">&#160;</text><text fill="#000000" font-family="sans-serif" font-size="13" lengthAdjust="spacing" textLength="58.5508" x="86.1445" y="358.2622">HTTP/1.1</text><polygon fill="#181818" points="38.2261,388.4609,28.2261,392.4609,38.2261,396.4609,34.2261,392.4609" style="stroke:#181818;stroke-width:1;"/><line style="stroke:#181818;stroke-width:1;" x1="32.2261" x2="619.085" y1="392.4609" y2="392.4609"/><text fill="#000000" font-family="sans-serif" font-size="13" font-weight="bold" lengthAdjust="spacing" textLength="9.0454" x="514.708" y="387.395">8</text><text fill="#000000" font-family="sans-serif" font-size="13" lengthAdjust="spacing" textLength="33.4966" x="527.7534" y="387.395">HTTP</text><text fill="#000000" font-family="sans-serif" font-size="13" lengthAdjust="spacing" textLength="4.1323" x="561.25" y="387.395">&#160;</text><text fill="#000000" font-family="sans-serif" font-size="13" lengthAdjust="spacing" textLength="24.813" x="565.3823" y="387.395">200</text><text fill="#000000" font-family="sans-serif" font-size="13" lengthAdjust="spacing" textLength="4.1323" x="590.1953" y="387.395">&#160;</text><text fill="#000000" font-family="sans-serif" font-size="13" lengthAdjust="spacing" textLength="18.7573" x="594.3276" y="387.395">OK</text><!--SRC=[VP5HIyCm58NVyokkVV3DjCccw115K5H47QpWos2awRKBjabDKZlswqrNqKws4PA7t2_dddFZFfIkXHKLP6Or5NckT04iIOZxBLHYzOpEYG9dQeqmsYfgup75bRyfLQ4hr1vaED0E48UV3Mg9Fo8R4d9bKNfbz01ihQZVLEwNm4yJ8XflT5DbGOiSrLOKbG2FPWtUDaY8Lxv4Y1xIT0gjyalJUF1BX3X-CCx7CInHv6WZGeJqne8iLJ16GYUlfAf5S1hTlio2E_k5Tgulw6P581pascs3RvZzWC3ckcrRYYjHrILIQQhmTaJP-PXoTaP7uur2YzcYVx1WUwLuBrK4zqtMAx5nGiyvPPpHqNyXJaWV0awkEeiJU9p2UuZspyyr2SMEwUbz62W7MyO7waFx4xY_Io66Rj8neumCYyCscw_WIGAlJuHGIk7oM9P6Vbn1gYg4zzAqhhiE-r2Ilt4S2l97TJc6OziTWn-AmNUd-0O0]--></g></svg>