<svg xmlns="http://www.w3.org/2000/svg" xmlns:xlink="http://www.w3.org/1999/xlink" contentStyleType="text/css" data-diagram-type="DESCRIPTION" height="399px" preserveAspectRatio="none" style="width:543px;height:399px;background:#FFFFFF;" version="1.1" viewBox="0 0 543 399" width="543px" zoomAndPan="magnify"><title>Reverse proxy</title><defs/><g><g class="title" data-source-line="12"><text fill="#000000" font-family="sans-serif" font-size="14" font-weight="bold" lengthAdjust="spacing" textLength="113.2031" x="207.9184" y="22.9951">Reverse proxy</text></g><!--cluster serversLan--><g class="cluster" data-entity="serversLan" data-source-line="24" data-uid="ent0009" id="cluster_serversLan"><rect fill="none" height="349" rx="2.5" ry="2.5" style="stroke:#181818;stroke-width:1;" width="309.75" x="227.29" y="44.2969"/><text fill="#000000" font-family="sans-serif" font-size="14" font-weight="bold" lengthAdjust="spacing" textLength="96.6875" x="333.8212" y="59.292">Servers LAN</text></g><!--cluster reverseProxy--><g class="cluster" data-entity="reverseProxy" data-source-line="29" data-uid="ent0013" id="cluster_reverseProxy"><rect fill="none" height="83" rx="2.5" ry="2.5" style="stroke:#181818;stroke-width:1;" width="164.91" x="251.29" y="177.2969"/><text fill="#000000" font-family="sans-serif" font-size="14" font-weight="bold" lengthAdjust="spacing" textLength="113.2031" x="277.1434" y="192.292">Reverse proxy</text></g><!--entity internet--><g class="entity" data-entity="internet" data-source-line="18" data-uid="ent0005" id="entity_internet"><path d="M131.2218,214.0275 C134.3175,208.9934 138.2461,208.7283 142.0535,213.2181 C145.1615,207.0462 149.5058,207.1469 153.7475,212.0176 C156.6635,206.695 160.9313,206.2176 164.5113,211.3329 C168.2598,206.4085 172.1167,205.3078 176.104,211.0739 C181.1472,205.8105 185.3782,205.9592 188.2207,213.2055 C192.2783,208.038 196.9361,208.3125 200.6225,213.644 C207.9604,216.4834 209.6977,223.8395 203.3829,229.1149 C209.1875,235.5165 209.033,240.6002 201.037,244.9584 C199.0828,251.119 193.549,251.5271 189.8002,246.8127 C186.8604,255.086 182.3931,256.128 176.2692,249.7543 C175.3368,255.4705 170.6434,257.6534 165.7554,254.381 C161.1573,258.5792 155.8743,258.0393 153.9121,251.4792 C147.3923,256.3147 144.1672,253.6806 141.9599,247.0024 C137.7516,251.458 132.6843,250.9896 130.0127,245.2089 C120.3547,244.2362 117.1338,237.0127 123.7299,229.5277 C117.6129,220.5454 120.7057,214.9704 131.2218,214.0275" fill="#F1F1F1" style="stroke:#181818;stroke-width:0.5;"/><text fill="#000000" font-family="sans-serif" font-size="14" lengthAdjust="spacing" textLength="55.8359" x="136.45" y="233.142">Internet</text></g><!--entity serverN--><g class="entity" data-entity="serverN" data-source-line="25" data-uid="ent0010" id="entity_serverN"><ellipse cx="490.6165" cy="309.6469" fill="#F1F1F1" rx="8" ry="8" style="stroke:#181818;stroke-width:0.5;"/><path d="M490.6165,317.6469 L490.6165,344.6469 M477.6165,325.6469 L503.6165,325.6469 M490.6165,344.6469 L477.6165,359.6469 M490.6165,344.6469 L503.6165,359.6469" fill="none" style="stroke:#181818;stroke-width:0.5;"/><text fill="#000000" font-family="sans-serif" font-size="14" lengthAdjust="spacing" textLength="45.9102" x="460.2" y="374.142">Server</text><text fill="#000000" font-family="sans-serif" font-size="14" lengthAdjust="spacing" textLength="4.4502" x="506.1102" y="374.142">&#160;</text><text fill="#000000" font-family="sans-serif" font-size="14" lengthAdjust="spacing" textLength="10.4727" x="510.5604" y="374.142">N</text></g><!--entity server2--><g class="entity" data-entity="server2" data-source-line="26" data-uid="ent0011" id="entity_server2"><ellipse cx="490.6238" cy="198.6469" fill="#F1F1F1" rx="8" ry="8" style="stroke:#181818;stroke-width:0.5;"/><path d="M490.6238,206.6469 L490.6238,233.6469 M477.6238,214.6469 L503.6238,214.6469 M490.6238,233.6469 L477.6238,248.6469 M490.6238,233.6469 L503.6238,248.6469" fill="none" style="stroke:#181818;stroke-width:0.5;"/><text fill="#000000" font-family="sans-serif" font-size="14" lengthAdjust="spacing" textLength="45.9102" x="460.99" y="263.142">Server</text><text fill="#000000" font-family="sans-serif" font-size="14" lengthAdjust="spacing" textLength="4.4502" x="506.9002" y="263.142">&#160;</text><text fill="#000000" font-family="sans-serif" font-size="14" lengthAdjust="spacing" textLength="8.9072" x="511.3504" y="263.142">2</text></g><!--entity server1--><g class="entity" data-entity="server1" data-source-line="27" data-uid="ent0012" id="entity_server1"><ellipse cx="490.6238" cy="87.6469" fill="#F1F1F1" rx="8" ry="8" style="stroke:#181818;stroke-width:0.5;"/><path d="M490.6238,95.6469 L490.6238,122.6469 M477.6238,103.6469 L503.6238,103.6469 M490.6238,122.6469 L477.6238,137.6469 M490.6238,122.6469 L503.6238,137.6469" fill="none" style="stroke:#181818;stroke-width:0.5;"/><text fill="#000000" font-family="sans-serif" font-size="14" lengthAdjust="spacing" textLength="45.9102" x="460.99" y="152.142">Server</text><text fill="#000000" font-family="sans-serif" font-size="14" lengthAdjust="spacing" textLength="4.4502" x="506.9002" y="152.142">&#160;</text><text fill="#000000" font-family="sans-serif" font-size="14" lengthAdjust="spacing" textLength="8.9072" x="511.3504" y="152.142">1</text></g><!--entity Enter the LAN--><g class="entity" data-entity="Enter the LAN" data-source-line="30" data-uid="ent0014" id="entity_Enter the LAN"><ellipse cx="333.7477" cy="228.2984" fill="#F1F1F1" rx="66.4577" ry="15.6915" style="stroke:#181818;stroke-width:0.5;"/><text fill="#000000" font-family="sans-serif" font-size="14" lengthAdjust="spacing" textLength="37.5771" x="285.0963" y="232.9469">Enter</text><text fill="#000000" font-family="sans-serif" font-size="14" lengthAdjust="spacing" textLength="4.4502" x="322.6735" y="232.9469">&#160;</text><text fill="#000000" font-family="sans-serif" font-size="14" lengthAdjust="spacing" textLength="22.9756" x="327.1237" y="232.9469">the</text><text fill="#000000" font-family="sans-serif" font-size="14" lengthAdjust="spacing" textLength="4.4502" x="350.0993" y="232.9469">&#160;</text><text fill="#000000" font-family="sans-serif" font-size="14" lengthAdjust="spacing" textLength="27.8496" x="354.5495" y="232.9469">LAN</text></g><!--entity client1--><g class="entity" data-entity="client1" data-source-line="14" data-uid="ent0002" id="entity_client1"><ellipse cx="33.7238" cy="87.6469" fill="#F1F1F1" rx="8" ry="8" style="stroke:#181818;stroke-width:0.5;"/><path d="M33.7238,95.6469 L33.7238,122.6469 M20.7238,103.6469 L46.7238,103.6469 M33.7238,122.6469 L20.7238,137.6469 M33.7238,122.6469 L46.7238,137.6469" fill="none" style="stroke:#181818;stroke-width:0.5;"/><text fill="#000000" font-family="sans-serif" font-size="14" lengthAdjust="spacing" textLength="40.5303" x="6.78" y="152.142">Client</text><text fill="#000000" font-family="sans-serif" font-size="14" lengthAdjust="spacing" textLength="4.4502" x="47.3103" y="152.142">&#160;</text><text fill="#000000" font-family="sans-serif" font-size="14" lengthAdjust="spacing" textLength="8.9072" x="51.7605" y="152.142">1</text></g><!--entity client2--><g class="entity" data-entity="client2" data-source-line="15" data-uid="ent0003" id="entity_client2"><ellipse cx="33.7238" cy="198.6469" fill="#F1F1F1" rx="8" ry="8" style="stroke:#181818;stroke-width:0.5;"/><path d="M33.7238,206.6469 L33.7238,233.6469 M20.7238,214.6469 L46.7238,214.6469 M33.7238,233.6469 L20.7238,248.6469 M33.7238,233.6469 L46.7238,248.6469" fill="none" style="stroke:#181818;stroke-width:0.5;"/><text fill="#000000" font-family="sans-serif" font-size="14" lengthAdjust="spacing" textLength="40.5303" x="6.78" y="263.142">Client</text><text fill="#000000" font-family="sans-serif" font-size="14" lengthAdjust="spacing" textLength="4.4502" x="47.3103" y="263.142">&#160;</text><text fill="#000000" font-family="sans-serif" font-size="14" lengthAdjust="spacing" textLength="8.9072" x="51.7605" y="263.142">2</text></g><!--entity clientN--><g class="entity" data-entity="clientN" data-source-line="16" data-uid="ent0004" id="entity_clientN"><ellipse cx="33.7266" cy="309.6469" fill="#F1F1F1" rx="8" ry="8" style="stroke:#181818;stroke-width:0.5;"/><path d="M33.7266,317.6469 L33.7266,344.6469 M20.7266,325.6469 L46.7266,325.6469 M33.7266,344.6469 L20.7266,359.6469 M33.7266,344.6469 L46.7266,359.6469" fill="none" style="stroke:#181818;stroke-width:0.5;"/><text fill="#000000" font-family="sans-serif" font-size="14" lengthAdjust="spacing" textLength="40.5303" x="6" y="374.142">Client</text><text fill="#000000" font-family="sans-serif" font-size="14" lengthAdjust="spacing" textLength="4.4502" x="46.5303" y="374.142">&#160;</text><text fill="#000000" font-family="sans-serif" font-size="14" lengthAdjust="spacing" textLength="10.4727" x="50.9805" y="374.142">N</text></g><!--link client1 to internet--><g class="link" data-entity-1="client1" data-entity-2="internet" data-source-line="19" data-uid="lnk6" id="link_client1_internet"><path d="M61.07,140.0269 C82.98,158.9269 114.04,185.7269 136.18,204.8369" fill="none" id="client1-internet" style="stroke:#181818;stroke-width:1;"/></g><!--link client2 to internet--><g class="link" data-entity-1="client2" data-entity-2="internet" data-source-line="20" data-uid="lnk7" id="link_client2_internet"><path d="M61.07,228.2969 C78.34,228.2969 101.31,228.2969 121.11,228.2969" fill="none" id="client2-internet" style="stroke:#181818;stroke-width:1;"/></g><!--link clientN to internet--><g class="link" data-entity-1="clientN" data-entity-2="internet" data-source-line="21" data-uid="lnk8" id="link_clientN_internet"><path d="M61.69,316.0269 C83.5,297.2069 114.08,270.8269 136,251.9169" fill="none" id="clientN-internet" style="stroke:#181818;stroke-width:1;"/></g><!--link internet to Enter the LAN--><g class="link" data-entity-1="internet" data-entity-2="Enter the LAN" data-source-line="30" data-uid="lnk15" id="link_internet_Enter the LAN"><path d="M207.61,228.2969 C225.62,228.2969 247.06,228.2969 267.06,228.2969" fill="none" id="internet-Enter the LAN" style="stroke:#181818;stroke-width:1;"/></g><!--link Enter the LAN to server1--><g class="link" data-entity-1="Enter the LAN" data-entity-2="server1" data-source-line="31" data-uid="lnk16" id="link_Enter the LAN_server1"><path d="M355.96,213.0969 C383.05,193.6769 430.06,159.9869 460.49,138.1769" fill="none" id="Enter the LAN-server1" style="stroke:#181818;stroke-width:1;"/></g><!--link Enter the LAN to server2--><g class="link" data-entity-1="Enter the LAN" data-entity-2="server2" data-source-line="32" data-uid="lnk17" id="link_Enter the LAN_server2"><path d="M400.43,228.2969 C421.53,228.2969 443.83,228.2969 460.85,228.2969" fill="none" id="Enter the LAN-server2" style="stroke:#181818;stroke-width:1;"/></g><!--link Enter the LAN to serverN--><g class="link" data-entity-1="Enter the LAN" data-entity-2="serverN" data-source-line="33" data-uid="lnk18" id="link_Enter the LAN_serverN"><path d="M355.96,243.4969 C382.88,262.7969 429.48,296.1969 459.93,318.0169" fill="none" id="Enter the LAN-serverN" style="stroke:#181818;stroke-width:1;"/></g><!--SRC=[XP71Ri8m38RlVWgl9pWWqKnx03JjC8bLQ4pQEKkz4j4cNMAsmiIxhscxAY0GELIolw_rxxIaJqQsw7InOSor8yNQ6l1RRMhfP8MrL5jPq9ht9M70qXGbHSA7RLOopxKfC9tF8r39veMy3o_h0-7z2JIMwOqQNfIwC1KPHjK-o4MAfwyT6KN3HphpOiGV9-jtdVC6nSCSuAvsigWaCja3ijiH06jkqoUlz4tE4zREDli4G2gs3fF7KeS0QOBIe-gAz8o9Y8apbaKi0r2btUMOF8Tj3747zL3WBs1x9iEGASvc8uk9k4goKt846Fy99cjoOK5SBlfClg-NqWo3X-2zXx6KNU0Yuk82JoEUGYT4OKulEvYkxwn2OmWKpdWvxMAJfr0WRoWiCHsTitvG_-VULCHjfT_-2CS_]--></g></svg>