<svg xmlns="http://www.w3.org/2000/svg" xmlns:xlink="http://www.w3.org/1999/xlink" contentStyleType="text/css" data-diagram-type="DESCRIPTION" height="358px" preserveAspectRatio="none" style="width:670px;height:358px;background:#FFFFFF;" version="1.1" viewBox="0 0 670 358" width="670px" zoomAndPan="magnify"><title>Practical Work 2 - TCP network application - Architecture</title><defs/><g><g class="title" data-source-line="13"><text fill="#000000" font-family="sans-serif" font-size="14" font-weight="bold" lengthAdjust="spacing" textLength="451.8418" x="102.5517" y="22.9951">Practical Work 2 - TCP network application - Architecture</text></g><!--cluster dp--><g class="cluster" data-entity="dp" data-source-line="19" data-uid="ent0005" id="cluster_dp"><rect fill="none" height="68" rx="2.5" ry="2.5" style="stroke:#181818;stroke-width:1;" width="267" x="255.89" y="88.2969"/><text fill="#000000" font-family="sans-serif" font-size="14" font-weight="bold" lengthAdjust="spacing" textLength="127.9072" x="325.4364" y="103.292">DaiFileTransfert</text><text fill="#000000" font-family="sans-serif" font-size="14" font-weight="bold" lengthAdjust="spacing" textLength="64.8047" x="356.9877" y="119.5889">(Server)</text></g><g class="entity" data-entity="12345" data-source-line="20" data-uid="ent0006" id="entity_12345"><text fill="#000000" font-family="sans-serif" font-size="14" lengthAdjust="spacing" textLength="44.5361" x="233.6219" y="100.9951">12345</text><rect fill="#F1F1F1" height="12" style="stroke:#181818;stroke-width:1.5;" width="12" x="249.89" y="116.2969"/></g><g class="entity" data-entity="internal" data-source-line="21" data-uid="ent0007" id="entity_internal"><text fill="#000000" font-family="sans-serif" font-size="14" lengthAdjust="spacing" textLength="4.4502" x="520.6649" y="100.9951">&#160;</text><rect fill="#F1F1F1" height="12" style="stroke:#181818;stroke-width:1.5;" width="12" x="516.89" y="116.2969"/></g><!--entity file1--><g class="entity" data-entity="file1" data-source-line="15" data-uid="ent0002" id="entity_file1"><ellipse cx="630.89" cy="51.2969" fill="#F1F1F1" rx="8" ry="8" style="stroke:#181818;stroke-width:0.5;"/><text fill="#000000" font-family="sans-serif" font-size="14" lengthAdjust="spacing" textLength="53.9424" x="603.9188" y="81.292">file1.txt</text></g><!--entity file2--><g class="entity" data-entity="file2" data-source-line="16" data-uid="ent0003" id="entity_file2"><ellipse cx="630.89" cy="122.2969" fill="#F1F1F1" rx="8" ry="8" style="stroke:#181818;stroke-width:0.5;"/><text fill="#000000" font-family="sans-serif" font-size="14" lengthAdjust="spacing" textLength="66.1104" x="597.8348" y="152.292">file2.mp3</text></g><!--entity file3--><g class="entity" data-entity="file3" data-source-line="17" data-uid="ent0004" id="entity_file3"><ellipse cx="630.89" cy="193.2969" fill="#F1F1F1" rx="8" ry="8" style="stroke:#181818;stroke-width:0.5;"/><text fill="#000000" font-family="sans-serif" font-size="14" lengthAdjust="spacing" textLength="66.1104" x="597.8348" y="223.292">file3.mp4</text></g><!--entity client1--><g class="entity" data-entity="client1" data-source-line="24" data-uid="ent0008" id="entity_client1"><rect fill="#F1F1F1" height="36.2969" rx="2.5" ry="2.5" style="stroke:#181818;stroke-width:0.5;" width="73.8877" x="7" y="69.1469"/><text fill="#000000" font-family="sans-serif" font-size="14" lengthAdjust="spacing" textLength="40.5303" x="17" y="92.142">Client</text><text fill="#000000" font-family="sans-serif" font-size="14" lengthAdjust="spacing" textLength="4.4502" x="57.5303" y="92.142">&#160;</text><text fill="#000000" font-family="sans-serif" font-size="14" lengthAdjust="spacing" textLength="8.9072" x="61.9805" y="92.142">1</text></g><!--entity client2--><g class="entity" data-entity="client2" data-source-line="25" data-uid="ent0009" id="entity_client2"><rect fill="#F1F1F1" height="36.2969" rx="2.5" ry="2.5" style="stroke:#181818;stroke-width:0.5;" width="73.8877" x="7" y="140.1469"/><text fill="#000000" font-family="sans-serif" font-size="14" lengthAdjust="spacing" textLength="40.5303" x="17" y="163.142">Client</text><text fill="#000000" font-family="sans-serif" font-size="14" lengthAdjust="spacing" textLength="4.4502" x="57.5303" y="163.142">&#160;</text><text fill="#000000" font-family="sans-serif" font-size="14" lengthAdjust="spacing" textLength="8.9072" x="61.9805" y="163.142">2</text></g><!--link client1 to 12345--><g class="link" data-entity-1="client1" data-entity-2="12345" data-source-line="27" data-uid="lnk10" id="link_client1_12345"><path d="M86.9484,94.3029 C139.7084,103.0929 222.1913,116.8527 244.2613,120.5227" fill="none" id="client1-12345" style="stroke:#FF0000;stroke-width:1;"/><polygon fill="#FF0000" points="81.03,93.3169,89.2503,98.7415,85.962,94.1386,90.565,90.8503,81.03,93.3169" style="stroke:#FF0000;stroke-width:1;"/><polygon fill="#FF0000" points="250.18,121.5069,241.9581,116.0847,245.2477,120.6867,240.6458,123.9764,250.18,121.5069" style="stroke:#FF0000;stroke-width:1;"/><text fill="#000000" font-family="sans-serif" font-size="13" lengthAdjust="spacing" textLength="58.354" x="125.89" y="94.6838">localhost</text></g><!--link client2 to 12345--><g class="link" data-entity-1="client2" data-entity-2="12345" data-source-line="28" data-uid="lnk11" id="link_client2_12345"><path d="M87.2507,154.5248 C118.6107,151.4148 159.03,146.5269 198.89,138.2969 C218.1,134.3269 234.6603,129.0913 244.3103,125.8613" fill="none" id="client2-12345" style="stroke:#FF0000;stroke-width:1;"/><polygon fill="#FF0000" points="81.28,155.1169,90.6308,158.2092,86.2556,154.6234,89.8413,150.2482,81.28,155.1169" style="stroke:#FF0000;stroke-width:1;"/><polygon fill="#FF0000" points="250,123.9569,240.1958,123.0204,245.2586,125.5439,242.735,130.6067,250,123.9569" style="stroke:#FF0000;stroke-width:1;"/><text fill="#000000" font-family="sans-serif" font-size="13" lengthAdjust="spacing" textLength="86.8359" x="111.89" y="134.3638">192.168.1.26</text></g><!--link internal to file1--><g class="link" data-entity-1="internal" data-entity-2="file1" data-source-line="31" data-uid="lnk13" id="link_internal_file1"><path d="M533.9992,114.4502 C540.7992,109.2002 548.16,103.6669 558.89,96.2969 C581.5,80.7669 604.0551,66.8805 617.1751,58.9505" fill="none" id="internal-file1" style="stroke:#0000FF;stroke-width:1;"/><polygon fill="#0000FF" points="529.25,118.1169,538.8183,115.783,533.2077,115.0613,533.9294,109.4507,529.25,118.1169" style="stroke:#0000FF;stroke-width:1;"/><polygon fill="#0000FF" points="622.31,55.8469,612.5385,57.0791,618.0309,58.4332,616.6767,63.9256,622.31,55.8469" style="stroke:#0000FF;stroke-width:1;"/></g><!--link internal to file2--><g class="link" data-entity-1="internal" data-entity-2="file2" data-source-line="32" data-uid="lnk15" id="link_internal_file2"><path d="M535.29,122.2969 C552.76,122.2969 595.75,122.2969 616.16,122.2969" fill="none" id="internal-file2" style="stroke:#0000FF;stroke-width:1;"/><polygon fill="#0000FF" points="529.29,122.2969,538.29,126.2969,534.29,122.2969,538.29,118.2969,529.29,122.2969" style="stroke:#0000FF;stroke-width:1;"/><polygon fill="#0000FF" points="622.16,122.2969,613.16,118.2969,617.16,122.2969,613.16,126.2969,622.16,122.2969" style="stroke:#0000FF;stroke-width:1;"/></g><!--link internal to file3--><g class="link" data-entity-1="internal" data-entity-2="file3" data-source-line="33" data-uid="lnk17" id="link_internal_file3"><path d="M534.2753,129.2556 C551.7453,140.9556 596.766,171.1063 617.176,184.7863" fill="none" id="internal-file3" style="stroke:#0000FF;stroke-width:1;"/><polygon fill="#0000FF" points="529.29,125.9169,534.5421,134.2485,533.4444,128.6992,538.9937,127.6015,529.29,125.9169" style="stroke:#0000FF;stroke-width:1;"/><polygon fill="#0000FF" points="622.16,188.1269,616.911,179.7933,618.0066,185.3431,612.4569,186.4387,622.16,188.1269" style="stroke:#0000FF;stroke-width:1;"/></g><g class="legend" data-source-line="35"><rect fill="#DDDDDD" height="95.4844" rx="7.5" ry="7.5" style="stroke:#000000;stroke-width:1;" width="197.7422" x="447.203" y="242.792"/><text fill="#000000" font-family="sans-serif" font-size="14" font-weight="bold" lengthAdjust="spacing" textLength="57.9209" x="452.203" y="260.7871">Legend</text><text fill="#000000" font-family="sans-serif" font-size="14" lengthAdjust="spacing" textLength="4.4502" x="452.203" y="277.084">&#160;</text><text fill="#000000" font-family="sans-serif" font-size="14" lengthAdjust="spacing" textLength="36.5518" x="452.203" y="295.3809">Color</text><text fill="#000000" font-family="sans-serif" font-size="14" lengthAdjust="spacing" textLength="48.1729" x="493.2049" y="295.3809">Access</text><text fill="#000000" font-family="sans-serif" font-size="14" lengthAdjust="spacing" textLength="42.3145" x="560.4364" y="295.3809">Origin</text><rect fill="#FF0000" height="16.2969" style="stroke:none;stroke-width:1;" width="36.5518" x="452.203" y="298.6826"/><text fill="#000000" font-family="sans-serif" font-size="14" lengthAdjust="spacing" textLength="4.4502" x="452.203" y="311.6777">&#160;</text><text fill="#000000" font-family="sans-serif" font-size="14" lengthAdjust="spacing" textLength="58.3311" x="493.2049" y="311.6777">External</text><text fill="#000000" font-family="sans-serif" font-size="14" lengthAdjust="spacing" textLength="66.459" x="560.4364" y="311.6777">LAN/WAN</text><rect fill="#0000FF" height="16.2969" style="stroke:none;stroke-width:1;" width="36.5518" x="452.203" y="314.9795"/><text fill="#000000" font-family="sans-serif" font-size="14" lengthAdjust="spacing" textLength="4.4502" x="452.203" y="327.9746">&#160;</text><text fill="#000000" font-family="sans-serif" font-size="14" lengthAdjust="spacing" textLength="54.2021" x="493.2049" y="327.9746">Internal</text><text fill="#000000" font-family="sans-serif" font-size="14" lengthAdjust="spacing" textLength="75.0586" x="560.4364" y="327.9746">Filesystem</text><line style="stroke:#000000;stroke-width:1;" x1="452.203" x2="639.9452" y1="282.3857" y2="282.3857"/><line style="stroke:#000000;stroke-width:1;" x1="452.203" x2="639.9452" y1="298.6826" y2="298.6826"/><line style="stroke:#000000;stroke-width:1;" x1="452.203" x2="639.9452" y1="314.9795" y2="314.9795"/><line style="stroke:#000000;stroke-width:1;" x1="452.203" x2="639.9452" y1="331.2764" y2="331.2764"/><line style="stroke:#000000;stroke-width:1;" x1="452.203" x2="452.203" y1="282.3857" y2="331.2764"/><line style="stroke:#000000;stroke-width:1;" x1="488.7547" x2="488.7547" y1="282.3857" y2="331.2764"/><line style="stroke:#000000;stroke-width:1;" x1="555.9862" x2="555.9862" y1="282.3857" y2="331.2764"/><line style="stroke:#000000;stroke-width:1;" x1="639.9452" x2="639.9452" y1="282.3857" y2="331.2764"/></g><!--SRC=[VP9HRzCm4CVV_IcExWKgDJJEDW6Q9aK59AGnAhLI7mOFNd9DhJcsSIwisy9tvvACB9iAUN1qz_lV_ouN6zmIa8EWYnr1hWDcf9qLehhHrgkWIhXs-wNASsqBaFDHFdEbTnOj_QNnGRgYEuFG-YfR61n9IhN_YbMb2bpfUuHaFgwtZd2DUqgDBcp9Ff3nWM4agV1dZJR3HvDEEVg49-5jK7wZSzg1F9aBySe7LPGA2DqzKAXH2DB4GqwMGN5jfWniNBW12JDOBvPWaMxRM7blcBRkJDAGxJHniphWH0ZTJhTL6TjijS4ueZrDG5NGHI-nZ4gV35Y-n0dZum4dGWphXCb7fJzpSXsKhROOwBjzlSBm2yERhY3ty2207-y2QGknJ8vFXeIhsG4wOTVIAYD-FxDV6Ds-uqwJTK5yWCiHbspG2-5iTdKKCFynE-yRmmSmZXUwSnKzYkGXKVnUHl7fkoYEvAaGejiPwsf_TNHjQcobmxpTnlu7atz1OR10c_UtNKod5rqudGhHB9nneO4qo_WsGGFVMCFRQqHprivwti2dVU_2y2AzVBj9BtlQTc7ynGwu_JtLNKLOie8Rz5t_0000]--></g></svg>