<?xml version="1.0" encoding="windows-1252" standalone="no"?>
<svg xmlns="http://www.w3.org/2000/svg" xmlns:xlink="http://www.w3.org/1999/xlink" contentStyleType="text/css" height="443px" preserveAspectRatio="none" style="width:702px;height:443px;background:#FFFFFF;" version="1.1" viewBox="0 0 702 443" width="702px" zoomAndPan="magnify"><defs/><g><!--cluster Local Working Directory--><g id="cluster_Local Working Directory"><path d="M487.5,6 L682.5,6 A3.75,3.75 0 0 1 685,8.5 L692,28.2969 L692.5,28.2969 A2.5,2.5 0 0 1 695,30.7969 L695,206.5 A2.5,2.5 0 0 1 692.5,209 L487.5,209 A2.5,2.5 0 0 1 485,206.5 L485,8.5 A2.5,2.5 0 0 1 487.5,6 " fill="none" style="stroke:#000000;stroke-width:1.5;"/><line style="stroke:#000000;stroke-width:1.5;" x1="485" x2="692" y1="28.2969" y2="28.2969"/><text fill="#000000" font-family="sans-serif" font-size="14" font-weight="bold" lengthAdjust="spacing" textLength="194" x="489" y="20.9951">Local Working Directory</text></g><!--cluster Local Repository--><g id="cluster_Local Repository"><path d="M8.5,339 L145.5,339 A3.75,3.75 0 0 1 148,341.5 L155,361.2969 L195.5,361.2969 A2.5,2.5 0 0 1 198,363.7969 L198,433.5 A2.5,2.5 0 0 1 195.5,436 L8.5,436 A2.5,2.5 0 0 1 6,433.5 L6,341.5 A2.5,2.5 0 0 1 8.5,339 " fill="none" style="stroke:#000000;stroke-width:1.5;"/><line style="stroke:#000000;stroke-width:1.5;" x1="6" x2="155" y1="361.2969" y2="361.2969"/><text fill="#000000" font-family="sans-serif" font-size="14" font-weight="bold" lengthAdjust="spacing" textLength="136" x="10" y="353.9951">Local Repository</text></g><!--cluster Remote Repository--><g id="cluster_Remote Repository"><path d="M213.5,112 L369.5,112 A3.75,3.75 0 0 1 372,114.5 L379,134.2969 L422.5,134.2969 A2.5,2.5 0 0 1 425,136.7969 L425,206.5 A2.5,2.5 0 0 1 422.5,209 L213.5,209 A2.5,2.5 0 0 1 211,206.5 L211,114.5 A2.5,2.5 0 0 1 213.5,112 " fill="none" style="stroke:#000000;stroke-width:1.5;"/><line style="stroke:#000000;stroke-width:1.5;" x1="211" x2="379" y1="134.2969" y2="134.2969"/><text fill="#000000" font-family="sans-serif" font-size="14" font-weight="bold" lengthAdjust="spacing" textLength="155" x="215" y="126.9951">Remote Repository</text></g><!--cluster Git Commands--><g id="cluster_Git Commands"><path d="M224.5,233 L344.5,233 A3.75,3.75 0 0 1 347,235.5 L354,255.2969 L599.5,255.2969 A2.5,2.5 0 0 1 602,257.7969 L602,433.5 A2.5,2.5 0 0 1 599.5,436 L224.5,436 A2.5,2.5 0 0 1 222,433.5 L222,235.5 A2.5,2.5 0 0 1 224.5,233 " fill="none" style="stroke:#000000;stroke-width:1.5;"/><line style="stroke:#000000;stroke-width:1.5;" x1="222" x2="354" y1="255.2969" y2="255.2969"/><text fill="#000000" font-family="sans-serif" font-size="14" font-weight="bold" lengthAdjust="spacing" textLength="119" x="226" y="247.9951">Git Commands</text></g><!--entity workingDir--><g id="elem_workingDir"><rect fill="#F1F1F1" height="46.2969" rx="2.5" ry="2.5" style="stroke:#181818;stroke-width:0.5;" width="172" x="504" y="41"/><rect fill="#F1F1F1" height="10" style="stroke:#181818;stroke-width:0.5;" width="15" x="656" y="46"/><rect fill="#F1F1F1" height="2" style="stroke:#181818;stroke-width:0.5;" width="4" x="654" y="48"/><rect fill="#F1F1F1" height="2" style="stroke:#181818;stroke-width:0.5;" width="4" x="654" y="52"/><text fill="#000000" font-family="sans-serif" font-size="14" lengthAdjust="spacing" textLength="132" x="519" y="73.9951">Working Directory</text></g><!--entity stagingArea--><g id="elem_stagingArea"><rect fill="#F1F1F1" height="46.2969" rx="2.5" ry="2.5" style="stroke:#181818;stroke-width:0.5;" width="132" x="524" y="147"/><rect fill="#F1F1F1" height="10" style="stroke:#181818;stroke-width:0.5;" width="15" x="636" y="152"/><rect fill="#F1F1F1" height="2" style="stroke:#181818;stroke-width:0.5;" width="4" x="634" y="154"/><rect fill="#F1F1F1" height="2" style="stroke:#181818;stroke-width:0.5;" width="4" x="634" y="158"/><text fill="#000000" font-family="sans-serif" font-size="14" lengthAdjust="spacing" textLength="92" x="539" y="179.9951">Staging Area</text></g><!--entity localRepo--><g id="elem_localRepo"><rect fill="#F1F1F1" height="46.2969" rx="2.5" ry="2.5" style="stroke:#181818;stroke-width:0.5;" width="160" x="22" y="374"/><rect fill="#F1F1F1" height="10" style="stroke:#181818;stroke-width:0.5;" width="15" x="162" y="379"/><rect fill="#F1F1F1" height="2" style="stroke:#181818;stroke-width:0.5;" width="4" x="160" y="381"/><rect fill="#F1F1F1" height="2" style="stroke:#181818;stroke-width:0.5;" width="4" x="160" y="385"/><text fill="#000000" font-family="sans-serif" font-size="14" lengthAdjust="spacing" textLength="120" x="37" y="406.9951">Local Repository</text></g><!--entity remoteRepo--><g id="elem_remoteRepo"><rect fill="#F1F1F1" height="46.2969" rx="2.5" ry="2.5" style="stroke:#181818;stroke-width:0.5;" width="181" x="227.5" y="147"/><rect fill="#F1F1F1" height="10" style="stroke:#181818;stroke-width:0.5;" width="15" x="388.5" y="152"/><rect fill="#F1F1F1" height="2" style="stroke:#181818;stroke-width:0.5;" width="4" x="386.5" y="154"/><rect fill="#F1F1F1" height="2" style="stroke:#181818;stroke-width:0.5;" width="4" x="386.5" y="158"/><text fill="#000000" font-family="sans-serif" font-size="14" lengthAdjust="spacing" textLength="141" x="242.5" y="179.9951">Remote Repository</text></g><!--entity gitAdd--><g id="elem_gitAdd"><rect fill="#F1F1F1" height="46.2969" rx="2.5" ry="2.5" style="stroke:#181818;stroke-width:0.5;" width="90" x="496" y="268"/><rect fill="#F1F1F1" height="10" style="stroke:#181818;stroke-width:0.5;" width="15" x="566" y="273"/><rect fill="#F1F1F1" height="2" style="stroke:#181818;stroke-width:0.5;" width="4" x="564" y="275"/><rect fill="#F1F1F1" height="2" style="stroke:#181818;stroke-width:0.5;" width="4" x="564" y="279"/><text fill="#000000" font-family="sans-serif" font-size="14" lengthAdjust="spacing" textLength="50" x="511" y="300.9951">git add</text></g><!--entity gitCommit--><g id="elem_gitCommit"><rect fill="#F1F1F1" height="46.2969" rx="2.5" ry="2.5" style="stroke:#181818;stroke-width:0.5;" width="120" x="466" y="374"/><rect fill="#F1F1F1" height="10" style="stroke:#181818;stroke-width:0.5;" width="15" x="566" y="379"/><rect fill="#F1F1F1" height="2" style="stroke:#181818;stroke-width:0.5;" width="4" x="564" y="381"/><rect fill="#F1F1F1" height="2" style="stroke:#181818;stroke-width:0.5;" width="4" x="564" y="385"/><text fill="#000000" font-family="sans-serif" font-size="14" lengthAdjust="spacing" textLength="80" x="481" y="406.9951">git commit</text></g><!--entity gitPush--><g id="elem_gitPush"><rect fill="#F1F1F1" height="46.2969" rx="2.5" ry="2.5" style="stroke:#181818;stroke-width:0.5;" width="98" x="363" y="268"/><rect fill="#F1F1F1" height="10" style="stroke:#181818;stroke-width:0.5;" width="15" x="441" y="273"/><rect fill="#F1F1F1" height="2" style="stroke:#181818;stroke-width:0.5;" width="4" x="439" y="275"/><rect fill="#F1F1F1" height="2" style="stroke:#181818;stroke-width:0.5;" width="4" x="439" y="279"/><text fill="#000000" font-family="sans-serif" font-size="14" lengthAdjust="spacing" textLength="58" x="378" y="300.9951">git push</text></g><!--entity gitPull--><g id="elem_gitPull"><rect fill="#F1F1F1" height="46.2969" rx="2.5" ry="2.5" style="stroke:#181818;stroke-width:0.5;" width="90" x="238" y="268"/><rect fill="#F1F1F1" height="10" style="stroke:#181818;stroke-width:0.5;" width="15" x="308" y="273"/><rect fill="#F1F1F1" height="2" style="stroke:#181818;stroke-width:0.5;" width="4" x="306" y="275"/><rect fill="#F1F1F1" height="2" style="stroke:#181818;stroke-width:0.5;" width="4" x="306" y="279"/><text fill="#000000" font-family="sans-serif" font-size="14" lengthAdjust="spacing" textLength="50" x="253" y="300.9951">git pull</text></g><!--link workingDir to stagingArea--><g id="link_workingDir_stagingArea"><path d="M590,87.056 C590,104.705 590,123.335 590,140.976 " fill="none" id="workingDir-to-stagingArea" style="stroke:#181818;stroke-width:1.0;"/><polygon fill="#181818" points="590,146.976,594,137.976,590,141.976,586,137.976,590,146.976" style="stroke:#181818;stroke-width:1.0;"/></g><!--link stagingArea to gitAdd--><g id="link_stagingArea_gitAdd"><path d="M580.898,193.104 C572.152,214.344 561.2885,240.7269 552.5035,262.0619 " fill="none" id="stagingArea-to-gitAdd" style="stroke:#181818;stroke-width:1.0;"/><polygon fill="#181818" points="550.219,267.61,557.3445,260.8109,552.1227,262.9866,549.947,257.7649,550.219,267.61" style="stroke:#181818;stroke-width:1.0;"/></g><!--link stagingArea to gitCommit--><g id="link_stagingArea_gitCommit"><path d="M598.347,193.21 C607.851,222.117 620.108,273.695 604,314 C594.375,338.083 578.5313,355.2718 560.9913,370.0123 " fill="none" id="stagingArea-to-gitCommit" style="stroke:#181818;stroke-width:1.0;"/><polygon fill="#181818" points="556.398,373.8725,565.8615,371.1444,560.2258,370.6557,560.7145,365.02,556.398,373.8725" style="stroke:#181818;stroke-width:1.0;"/></g><!--link gitAdd to gitCommit--><g id="link_gitAdd_gitCommit"><path d="M537.819,314.056 C535.273,331.705 532.5774,350.3967 530.0334,368.0375 " fill="none" id="gitAdd-to-gitCommit" style="stroke:#181818;stroke-width:1.0;"/><polygon fill="#181818" points="529.177,373.9761,534.4207,365.6392,529.8907,369.0273,526.5026,364.4973,529.177,373.9761" style="stroke:#181818;stroke-width:1.0;"/></g><!--link gitCommit to localRepo--><g id="link_gitCommit_localRepo"><path d="M465.925,397 C371.392,397 282.86,397 188.328,397 " fill="none" id="gitCommit-to-localRepo" style="stroke:#181818;stroke-width:1.0;"/><polygon fill="#181818" points="182.328,397,191.328,401,187.328,397,191.328,393,182.328,397" style="stroke:#181818;stroke-width:1.0;"/></g><!--link localRepo to gitPush--><g id="link_localRepo_gitPush"><path d="M134.927,373.9525 C158.253,359.412 190.819,341.225 222,331 C274.439,313.804 291.233,326.436 345,314 C350.845,312.648 351.1533,312.7095 357.1353,310.9405 " fill="none" id="localRepo-to-gitPush" style="stroke:#181818;stroke-width:1.0;"/><polygon fill="#181818" points="362.889,309.239,353.1241,307.9554,358.0943,310.6569,355.3928,315.627,362.889,309.239" style="stroke:#181818;stroke-width:1.0;"/></g><!--link remoteRepo to gitPull--><g id="link_remoteRepo_gitPull"><path d="M311.499,193.104 C305.252,214.344 297.553,240.5188 291.278,261.8538 " fill="none" id="remoteRepo-to-gitPull" style="stroke:#181818;stroke-width:1.0;"/><polygon fill="#181818" points="289.585,267.61,295.962,260.1044,290.9958,262.8132,288.287,257.847,289.585,267.61" style="stroke:#181818;stroke-width:1.0;"/></g><!--link gitPull to localRepo--><g id="link_gitPull_localRepo"><path d="M244.615,314.056 C213.898,331.705 176.2344,353.3461 145.5324,370.9869 " fill="none" id="gitPull-to-localRepo" style="stroke:#181818;stroke-width:1.0;"/><polygon fill="#181818" points="140.33,373.9761,150.1264,372.9606,144.6653,371.4851,146.1408,366.0241,140.33,373.9761" style="stroke:#181818;stroke-width:1.0;"/></g><!--reverse link remoteRepo to gitPush--><g id="link_remoteRepo_gitPush"><path d="M339.1792,197.8123 C355.9572,219.0523 377.461,246.275 394.314,267.61 " fill="none" id="remoteRepo-backto-gitPush" style="stroke:#181818;stroke-width:1.0;"/><polygon fill="#181818" points="335.46,193.104,337.8999,202.6458,338.5593,197.0276,344.1776,197.6869,335.46,193.104" style="stroke:#181818;stroke-width:1.0;"/></g><!--SRC=[TP1D3eCW48NtdcBYtYiqCJRffel6BhfekY12A1650COqJUzU_XIjTiNZUpDlO2HgMaG9v6VH80uteLhMKpWoHHeZr2k7TmPmt_0780rZe1Qwcgj1rDMKYY1lwm3SFVjacLoFgeaKcYrc_6AVmHrqR9LGaquOietOS9-XFDs4d9Y1IdGTwh6E_TGYXB7lihh4UAADBMHcCYf_cpmvwEVaNAnEdFF4ENVJqygWm6BiYyDgJGiz-_4XVwpub52qRmGrUscbirhs-H-abQqj-ubuxiJ5PYW6QNcA-080]--></g></svg>