<svg xmlns="http://www.w3.org/2000/svg" xmlns:xlink="http://www.w3.org/1999/xlink" contentStyleType="text/css" data-diagram-type="SEQUENCE" height="473px" preserveAspectRatio="none" style="width:403px;height:473px;background:#FFFFFF;" version="1.1" viewBox="0 0 403 473" width="403px" zoomAndPan="magnify"><title>Expiration model</title><defs/><g><text fill="#000000" font-family="sans-serif" font-size="14" font-weight="bold" lengthAdjust="spacing" textLength="134.2373" x="130.6594" y="27.9951">Expiration model</text><g><title>Client</title><rect fill="#000000" fill-opacity="0.00000" height="297.4609" width="8" x="90.2651" y="73.5938"/><line style="stroke:#181818;stroke-width:0.5;stroke-dasharray:5,5;" x1="94" x2="94" y1="73.5938" y2="371.0547"/></g><line style="stroke:#181818;stroke-width:0.5;stroke-dasharray:1,4;" x1="94" x2="94" y1="371.0547" y2="411.8594"/><g><title>Client</title><rect fill="#000000" fill-opacity="0.00000" height="11" width="8" x="90.2651" y="411.8594"/><line style="stroke:#181818;stroke-width:0.5;stroke-dasharray:5,5;" x1="94" x2="94" y1="411.8594" y2="422.8594"/></g><g><title>Server</title><rect fill="#000000" fill-opacity="0.00000" height="297.4609" width="8" x="190.3301" y="73.5938"/><line style="stroke:#181818;stroke-width:0.5;stroke-dasharray:5,5;" x1="193.375" x2="193.375" y1="73.5938" y2="371.0547"/></g><line style="stroke:#181818;stroke-width:0.5;stroke-dasharray:1,4;" x1="193.375" x2="193.375" y1="371.0547" y2="411.8594"/><g><title>Server</title><rect fill="#000000" fill-opacity="0.00000" height="11" width="8" x="190.3301" y="411.8594"/><line style="stroke:#181818;stroke-width:0.5;stroke-dasharray:5,5;" x1="193.375" x2="193.375" y1="411.8594" y2="422.8594"/></g><g class="participant participant-head" data-participant="client"><rect fill="#E2E2F0" height="30.2969" rx="2.5" ry="2.5" style="stroke:#181818;stroke-width:0.5;" width="54.5303" x="67" y="42.2969"/><text fill="#000000" font-family="sans-serif" font-size="14" lengthAdjust="spacing" textLength="40.5303" x="74" y="62.292">Client</text></g><g class="participant participant-tail" data-participant="client"><rect fill="#E2E2F0" height="30.2969" rx="2.5" ry="2.5" style="stroke:#181818;stroke-width:0.5;" width="54.5303" x="67" y="421.8594"/><text fill="#000000" font-family="sans-serif" font-size="14" lengthAdjust="spacing" textLength="40.5303" x="74" y="441.8545">Client</text></g><g class="participant participant-head" data-participant="server"><rect fill="#E2E2F0" height="30.2969" rx="2.5" ry="2.5" style="stroke:#181818;stroke-width:0.5;" width="59.9102" x="164.375" y="42.2969"/><text fill="#000000" font-family="sans-serif" font-size="14" lengthAdjust="spacing" textLength="45.9102" x="171.375" y="62.292">Server</text></g><g class="participant participant-tail" data-participant="server"><rect fill="#E2E2F0" height="30.2969" rx="2.5" ry="2.5" style="stroke:#181818;stroke-width:0.5;" width="59.9102" x="164.375" y="421.8594"/><text fill="#000000" font-family="sans-serif" font-size="14" lengthAdjust="spacing" textLength="45.9102" x="171.375" y="441.8545">Server</text></g><rect fill="#EEEEEE" height="3" style="stroke:#EEEEEE;stroke-width:1;" width="396.5562" x="0" y="104.1602"/><line style="stroke:#000000;stroke-width:1;" x1="0" x2="396.5562" y1="104.1602" y2="104.1602"/><line style="stroke:#000000;stroke-width:1;" x1="0" x2="396.5562" y1="107.1602" y2="107.1602"/><rect fill="#EEEEEE" height="23.1328" style="stroke:#000000;stroke-width:2;" width="310.5562" x="43" y="93.5938"/><text fill="#000000" font-family="sans-serif" font-size="13" font-weight="bold" lengthAdjust="spacing" textLength="292.0303" x="49" y="109.6606">Initial request at 22 Feb 2022, 22:22:00</text><path d="M45,131.7266 L45,186.7266 L241,186.7266 L241,141.7266 L231,131.7266 L45,131.7266" fill="#FEFFDD" style="stroke:#181818;stroke-width:0.5;"/><path d="M231,131.7266 L231,141.7266 L241,141.7266 L231,131.7266" fill="#FEFFDD" style="stroke:#181818;stroke-width:0.5;"/><text fill="#000000" font-family="sans-serif" font-size="13" lengthAdjust="spacing" textLength="26.2285" x="60" y="148.7935">GET</text><text fill="#000000" font-family="sans-serif" font-size="13" lengthAdjust="spacing" textLength="4.1323" x="86.2285" y="148.7935">&#160;</text><text fill="#000000" font-family="sans-serif" font-size="13" lengthAdjust="spacing" textLength="73.9185" x="90.3608" y="148.7935">/index.html</text><text fill="#000000" font-family="sans-serif" font-size="13" lengthAdjust="spacing" textLength="4.1323" x="164.2793" y="148.7935">&#160;</text><text fill="#000000" font-family="sans-serif" font-size="13" lengthAdjust="spacing" textLength="58.5508" x="168.4116" y="148.7935">HTTP/1.1</text><text fill="#000000" font-family="sans-serif" font-size="13" lengthAdjust="spacing" textLength="33.979" x="80.3855" y="163.9263">Host:</text><text fill="#000000" font-family="sans-serif" font-size="13" lengthAdjust="spacing" textLength="4.1323" x="114.3645" y="163.9263">&#160;</text><text fill="#000000" font-family="sans-serif" font-size="13" lengthAdjust="spacing" textLength="88.0801" x="118.4968" y="163.9263">example.com</text><text fill="#000000" font-family="sans-serif" font-size="13" lengthAdjust="spacing" textLength="48.915" x="87.0188" y="179.0591">Accept:</text><text fill="#000000" font-family="sans-serif" font-size="13" lengthAdjust="spacing" textLength="4.1323" x="135.9338" y="179.0591">&#160;</text><text fill="#000000" font-family="sans-serif" font-size="13" lengthAdjust="spacing" textLength="59.8774" x="140.0662" y="179.0591">text/html</text><g class="message" data-participant-1="client" data-participant-2="server"><polygon fill="#181818" points="182.3301,209.2578,192.3301,213.2578,182.3301,217.2578,186.3301,213.2578" style="stroke:#181818;stroke-width:1;"/><line style="stroke:#181818;stroke-width:1;" x1="94.2651" x2="188.3301" y1="213.2578" y2="213.2578"/><text fill="#000000" font-family="sans-serif" font-size="13" font-weight="bold" lengthAdjust="spacing" textLength="9.0454" x="101.2651" y="208.1919">1</text><text fill="#000000" font-family="sans-serif" font-size="13" lengthAdjust="spacing" textLength="53.3901" x="114.3105" y="208.1919">Request</text></g><path d="M5,251.2578 L5,336.2578 L284,336.2578 L284,261.2578 L274,251.2578 L5,251.2578" fill="#FEFFDD" style="stroke:#181818;stroke-width:0.5;"/><path d="M274,251.2578 L274,261.2578 L284,261.2578 L274,251.2578" fill="#FEFFDD" style="stroke:#181818;stroke-width:0.5;"/><text fill="#000000" font-family="sans-serif" font-size="13" lengthAdjust="spacing" textLength="58.5508" x="89.5703" y="268.3247">HTTP/1.1</text><text fill="#000000" font-family="sans-serif" font-size="13" lengthAdjust="spacing" textLength="4.1323" x="148.1211" y="268.3247">&#160;</text><text fill="#000000" font-family="sans-serif" font-size="13" lengthAdjust="spacing" textLength="24.813" x="152.2534" y="268.3247">200</text><text fill="#000000" font-family="sans-serif" font-size="13" lengthAdjust="spacing" textLength="4.1323" x="177.0664" y="268.3247">&#160;</text><text fill="#000000" font-family="sans-serif" font-size="13" lengthAdjust="spacing" textLength="18.7573" x="181.1987" y="268.3247">OK</text><text fill="#000000" font-family="sans-serif" font-size="13" lengthAdjust="spacing" textLength="92.6567" x="66.4299" y="283.4575">Content-Type:</text><text fill="#000000" font-family="sans-serif" font-size="13" lengthAdjust="spacing" textLength="4.1323" x="159.0867" y="283.4575">&#160;</text><text fill="#000000" font-family="sans-serif" font-size="13" lengthAdjust="spacing" textLength="59.8774" x="163.219" y="283.4575">text/html</text><text fill="#000000" font-family="sans-serif" font-size="13" lengthAdjust="spacing" textLength="105.8408" x="73.2346" y="298.5903">Content-Length:</text><text fill="#000000" font-family="sans-serif" font-size="13" lengthAdjust="spacing" textLength="4.1323" x="179.0754" y="298.5903">&#160;</text><text fill="#000000" font-family="sans-serif" font-size="13" lengthAdjust="spacing" textLength="33.084" x="183.2078" y="298.5903">1024</text><text fill="#000000" font-family="sans-serif" font-size="13" lengthAdjust="spacing" textLength="35.4517" x="20" y="313.7231">Date:</text><text fill="#000000" font-family="sans-serif" font-size="13" lengthAdjust="spacing" textLength="4.1323" x="55.4517" y="313.7231">&#160;</text><text fill="#000000" font-family="sans-serif" font-size="13" lengthAdjust="spacing" textLength="28.3105" x="59.584" y="313.7231">Tue,</text><text fill="#000000" font-family="sans-serif" font-size="13" lengthAdjust="spacing" textLength="4.1323" x="87.8945" y="313.7231">&#160;</text><text fill="#000000" font-family="sans-serif" font-size="13" lengthAdjust="spacing" textLength="16.542" x="92.0269" y="313.7231">22</text><text fill="#000000" font-family="sans-serif" font-size="13" lengthAdjust="spacing" textLength="4.1323" x="108.5688" y="313.7231">&#160;</text><text fill="#000000" font-family="sans-serif" font-size="13" lengthAdjust="spacing" textLength="23.7275" x="112.7012" y="313.7231">Feb</text><text fill="#000000" font-family="sans-serif" font-size="13" lengthAdjust="spacing" textLength="4.1323" x="136.4287" y="313.7231">&#160;</text><text fill="#000000" font-family="sans-serif" font-size="13" lengthAdjust="spacing" textLength="33.084" x="140.561" y="313.7231">2022</text><text fill="#000000" font-family="sans-serif" font-size="13" lengthAdjust="spacing" textLength="4.1323" x="173.645" y="313.7231">&#160;</text><text fill="#000000" font-family="sans-serif" font-size="13" lengthAdjust="spacing" textLength="58.3857" x="177.7773" y="313.7231">22:22:22</text><text fill="#000000" font-family="sans-serif" font-size="13" lengthAdjust="spacing" textLength="4.1323" x="236.1631" y="313.7231">&#160;</text><text fill="#000000" font-family="sans-serif" font-size="13" lengthAdjust="spacing" textLength="29.231" x="240.2954" y="313.7231">GMT</text><text fill="#000000" font-family="sans-serif" font-size="13" lengthAdjust="spacing" textLength="96.7764" x="43.7053" y="328.856">Cache-Control:</text><text fill="#000000" font-family="sans-serif" font-size="13" lengthAdjust="spacing" textLength="4.1323" x="140.4817" y="328.856">&#160;</text><text fill="#000000" font-family="sans-serif" font-size="13" lengthAdjust="spacing" textLength="101.207" x="144.614" y="328.856">max-age=3600</text><g class="message" data-participant-1="server" data-participant-2="client"><polygon fill="#181818" points="105.2651,359.0547,95.2651,363.0547,105.2651,367.0547,101.2651,363.0547" style="stroke:#181818;stroke-width:1;"/><line style="stroke:#181818;stroke-width:1;" x1="99.2651" x2="193.3301" y1="363.0547" y2="363.0547"/><text fill="#000000" font-family="sans-serif" font-size="13" font-weight="bold" lengthAdjust="spacing" textLength="9.0454" x="111.2651" y="357.9888">2</text><text fill="#000000" font-family="sans-serif" font-size="13" lengthAdjust="spacing" textLength="63.0195" x="124.3105" y="357.9888">Response</text></g><text fill="#000000" font-family="sans-serif" font-size="11" lengthAdjust="spacing" textLength="3.4966" x="99.5706" y="395.2651">&#160;</text><path d="M107.7339,387.776 C105.7172,387.776 104.0672,389.426 104.0672,391.4427 C104.0672,393.4594 105.7172,395.1094 107.7339,395.1094 C109.7506,395.1094 111.4006,393.4594 111.4006,391.4427 C111.4006,389.426 109.7506,387.776 107.7339,387.776 M107.7339,388.6927 C109.2556,388.6927 110.4839,389.921 110.4839,391.4427 C110.4839,392.9644 109.2556,394.1927 107.7339,394.1927 C106.2122,394.1927 104.9839,392.9644 104.9839,391.4427 C104.9839,389.921 106.2122,388.6927 107.7339,388.6927 M107.2756,389.6094 L107.2756,391.6444 L107.4222,391.7635 L107.8806,392.2219 L108.1922,392.5702 L108.8522,391.9102 L108.5039,391.5985 L108.1922,391.2869 L108.1922,389.6277 L107.2756,389.6277" fill="#000000"/><text fill="#000000" font-family="sans-serif" font-size="11" lengthAdjust="spacing" textLength="69.6309" x="115.8971" y="395.2651">Time flows...</text><line style="stroke:#181818;stroke-width:0.5;stroke-dasharray:2,2;" x1="0" x2="396.5562" y1="411.8594" y2="411.8594"/><text fill="#888888" font-family="sans-serif" font-size="10" lengthAdjust="spacing" textLength="112.1484" x="283.4077" y="463.4385">Expiration model (1/3)</text></g></svg>