<svg xmlns="http://www.w3.org/2000/svg" xmlns:xlink="http://www.w3.org/1999/xlink" contentStyleType="text/css" data-diagram-type="DESCRIPTION" height="299px" preserveAspectRatio="none" style="width:878px;height:299px;background:#FFFFFF;" version="1.1" viewBox="0 0 878 299" width="878px" zoomAndPan="magnify"><title>Where to cache?</title><defs/><g><g class="title" data-source-line="10"><text fill="#000000" font-family="sans-serif" font-size="14" font-weight="bold" lengthAdjust="spacing" textLength="130.9902" x="366.9449" y="22.9951">Where to cache?</text></g><!--cluster clientsLan--><g class="cluster" data-entity="clientsLan" data-source-line="12" data-uid="ent0002" id="cluster_clientsLan"><rect fill="none" height="247" rx="2.5" ry="2.5" style="stroke:#181818;stroke-width:1;" width="373.45" x="7" y="45.2969"/><text fill="#000000" font-family="sans-serif" font-size="14" font-weight="bold" lengthAdjust="spacing" textLength="90.7061" x="148.372" y="60.292">Clients LAN</text></g><!--cluster forwardProxy--><g class="cluster" data-entity="forwardProxy" data-source-line="20" data-uid="ent0007" id="cluster_forwardProxy"><rect fill="none" height="116" rx="2.5" ry="2.5" style="stroke:#181818;stroke-width:1;" width="172.64" x="175.81" y="144.2969"/><text fill="#000000" font-family="sans-serif" font-size="14" font-weight="bold" lengthAdjust="spacing" textLength="114.9668" x="204.6466" y="159.292">Forward proxy</text></g><!--cluster serversLan--><g class="cluster" data-entity="serversLan" data-source-line="33" data-uid="ent0015" id="cluster_serversLan"><rect fill="none" height="249" rx="2.5" ry="2.5" style="stroke:#181818;stroke-width:1;" width="374.6" x="498.28" y="44.2969"/><text fill="#000000" font-family="sans-serif" font-size="14" font-weight="bold" lengthAdjust="spacing" textLength="96.6875" x="637.2362" y="59.292">Servers LAN</text></g><!--cluster reverseProxy--><g class="cluster" data-entity="reverseProxy" data-source-line="37" data-uid="ent0017" id="cluster_reverseProxy"><rect fill="none" height="118" rx="2.5" ry="2.5" style="stroke:#181818;stroke-width:1;" width="180.92" x="530.28" y="143.2969"/><text fill="#000000" font-family="sans-serif" font-size="14" font-weight="bold" lengthAdjust="spacing" textLength="113.2031" x="564.1384" y="158.292">Reverse proxy</text></g><!--entity client--><g class="entity" data-entity="client" data-source-line="14" data-uid="ent0003" id="entity_client"><ellipse cx="81.4051" cy="133.6469" fill="#F1F1F1" rx="8" ry="8" style="stroke:#181818;stroke-width:0.5;"/><path d="M81.4051,141.6469 L81.4051,168.6469 M68.4051,149.6469 L94.4051,149.6469 M81.4051,168.6469 L68.4051,183.6469 M81.4051,168.6469 L94.4051,183.6469" fill="none" style="stroke:#181818;stroke-width:0.5;"/><text fill="#000000" font-family="sans-serif" font-size="14" lengthAdjust="spacing" textLength="40.5303" x="61.14" y="198.142">Client</text></g><g class="entity" data-entity="GMN4" data-source-line="17" data-uid="ent0005" id="entity_GMN4"><path d="M23,236.1669 L23,276.4325 A0,0 0 0 0 23,276.4325 L139.8052,276.4325 A0,0 0 0 0 139.8052,276.4325 L139.8052,246.1669 L129.8052,236.1669 L85.4,236.1669 L81.4,201.8969 L77.4,236.1669 L23,236.1669 A0,0 0 0 0 23,236.1669" fill="#FEFFDD" style="stroke:#181818;stroke-width:0.5;"/><path d="M129.8052,236.1669 L129.8052,246.1669 L139.8052,246.1669 L129.8052,236.1669" fill="#FEFFDD" style="stroke:#181818;stroke-width:0.5;"/><text fill="#000000" font-family="sans-serif" font-size="13" lengthAdjust="spacing" textLength="45.5508" x="32.8118" y="253.2338">Private</text><text fill="#000000" font-family="sans-serif" font-size="13" lengthAdjust="spacing" textLength="4.1323" x="78.3625" y="253.2338">&#160;</text><text fill="#000000" font-family="sans-serif" font-size="13" lengthAdjust="spacing" textLength="38.4985" x="82.4949" y="253.2338">cache</text><text fill="#000000" font-family="sans-serif" font-size="13" lengthAdjust="spacing" textLength="34.3027" x="29" y="268.3666">(your</text><text fill="#000000" font-family="sans-serif" font-size="13" lengthAdjust="spacing" textLength="4.1323" x="63.3027" y="268.3666">&#160;</text><text fill="#000000" font-family="sans-serif" font-size="13" lengthAdjust="spacing" textLength="57.3701" x="67.4351" y="268.3666">browser)</text></g><g class="entity" data-entity="GMN10" data-source-line="25" data-uid="ent0011" id="entity_GMN10"><path d="M207.29,80.1669 L207.29,120.4325 L316.9731,120.4325 L316.9731,90.1669 L306.9731,80.1669 L207.29,80.1669" fill="#FEFFDD" style="stroke:#181818;stroke-width:0.5;"/><path d="M306.9731,80.1669 L306.9731,90.1669 L316.9731,90.1669 L306.9731,80.1669" fill="#FEFFDD" style="stroke:#181818;stroke-width:1;"/><text fill="#000000" font-family="sans-serif" font-size="13" lengthAdjust="spacing" textLength="46.0522" x="213.29" y="97.2338">Shared</text><text fill="#000000" font-family="sans-serif" font-size="13" lengthAdjust="spacing" textLength="4.1323" x="259.3422" y="97.2338">&#160;</text><text fill="#000000" font-family="sans-serif" font-size="13" lengthAdjust="spacing" textLength="38.4985" x="263.4746" y="97.2338">cache</text><text fill="#000000" font-family="sans-serif" font-size="13" lengthAdjust="spacing" textLength="60.252" x="227.5056" y="112.3666">(internal)</text></g><!--entity Exit the LAN--><g class="entity" data-entity="Exit the LAN" data-source-line="21" data-uid="ent0008" id="entity_Exit the LAN"><ellipse cx="262.1317" cy="221.3012" fill="#F1F1F1" rx="62.3217" ry="14.8643" style="stroke:#181818;stroke-width:0.5;"/><text fill="#000000" font-family="sans-serif" font-size="14" lengthAdjust="spacing" textLength="26.5098" x="219.014" y="225.9496">Exit</text><text fill="#000000" font-family="sans-serif" font-size="14" lengthAdjust="spacing" textLength="4.4502" x="245.5238" y="225.9496">&#160;</text><text fill="#000000" font-family="sans-serif" font-size="14" lengthAdjust="spacing" textLength="22.9756" x="249.9739" y="225.9496">the</text><text fill="#000000" font-family="sans-serif" font-size="14" lengthAdjust="spacing" textLength="4.4502" x="272.9495" y="225.9496">&#160;</text><text fill="#000000" font-family="sans-serif" font-size="14" lengthAdjust="spacing" textLength="27.8496" x="277.3997" y="225.9496">LAN</text></g><!--entity internet--><g class="entity" data-entity="internet" data-source-line="29" data-uid="ent0013" id="entity_internet"><path d="M406.2218,207.0275 C409.3175,201.9934 413.2461,201.7283 417.0535,206.2181 C420.1615,200.0462 424.5058,200.1469 428.7475,205.0176 C431.6635,199.695 435.9313,199.2176 439.5113,204.3329 C443.2598,199.4085 447.1167,198.3078 451.104,204.0739 C456.1472,198.8105 460.3782,198.9592 463.2207,206.2055 C467.2783,201.038 471.9361,201.3125 475.6225,206.644 C482.9604,209.4834 484.6977,216.8395 478.3829,222.1149 C484.1875,228.5165 484.033,233.6002 476.037,237.9584 C474.0828,244.119 468.549,244.5271 464.8002,239.8127 C461.8604,248.086 457.3931,249.128 451.2692,242.7543 C450.3368,248.4705 445.6434,250.6534 440.7554,247.381 C436.1573,251.5792 430.8743,251.0393 428.9121,244.4792 C422.3923,249.3147 419.1672,246.6806 416.9599,240.0024 C412.7516,244.458 407.6843,243.9896 405.0127,238.2089 C395.3547,237.2362 392.1338,230.0127 398.7299,222.5277 C392.6129,213.5454 395.7057,207.9704 406.2218,207.0275" fill="#F1F1F1" style="stroke:#181818;stroke-width:0.5;"/><text fill="#000000" font-family="sans-serif" font-size="14" lengthAdjust="spacing" textLength="55.8359" x="411.45" y="226.142">Internet</text></g><!--entity server--><g class="entity" data-entity="server" data-source-line="35" data-uid="ent0016" id="entity_server"><ellipse cx="802.0451" cy="118.6469" fill="#F1F1F1" rx="8" ry="8" style="stroke:#181818;stroke-width:0.5;"/><path d="M802.0451,126.6469 L802.0451,153.6469 M789.0451,134.6469 L815.0451,134.6469 M802.0451,153.6469 L789.0451,168.6469 M802.0451,153.6469 L815.0451,168.6469" fill="none" style="stroke:#181818;stroke-width:0.5;"/><text fill="#000000" font-family="sans-serif" font-size="14" lengthAdjust="spacing" textLength="45.9102" x="779.09" y="183.142">Server</text></g><g class="entity" data-entity="GMN21" data-source-line="43" data-uid="ent0022" id="entity_GMN21"><path d="M565.9,79.1669 L565.9,119.4325 L675.5831,119.4325 L675.5831,89.1669 L665.5831,79.1669 L565.9,79.1669" fill="#FEFFDD" style="stroke:#181818;stroke-width:0.5;"/><path d="M665.5831,79.1669 L665.5831,89.1669 L675.5831,89.1669 L665.5831,79.1669" fill="#FEFFDD" style="stroke:#181818;stroke-width:1;"/><text fill="#000000" font-family="sans-serif" font-size="13" lengthAdjust="spacing" textLength="46.0522" x="571.9" y="96.2338">Shared</text><text fill="#000000" font-family="sans-serif" font-size="13" lengthAdjust="spacing" textLength="4.1323" x="617.9522" y="96.2338">&#160;</text><text fill="#000000" font-family="sans-serif" font-size="13" lengthAdjust="spacing" textLength="38.4985" x="622.0846" y="96.2338">cache</text><text fill="#000000" font-family="sans-serif" font-size="13" lengthAdjust="spacing" textLength="64.0923" x="584.1954" y="111.3666">(external)</text></g><g class="entity" data-entity="GMN24" data-source-line="48" data-uid="ent0025" id="entity_GMN24"><path d="M747.2,221.5969 L747.2,276.9953 A0,0 0 0 0 747.2,276.9953 L856.8831,276.9953 A0,0 0 0 0 856.8831,276.9953 L856.8831,231.5969 L846.8831,221.5969 L806.04,221.5969 L802.04,186.7869 L798.04,221.5969 L747.2,221.5969 A0,0 0 0 0 747.2,221.5969" fill="#FEFFDD" style="stroke:#181818;stroke-width:0.5;"/><path d="M846.8831,221.5969 L846.8831,231.5969 L856.8831,231.5969 L846.8831,221.5969" fill="#FEFFDD" style="stroke:#181818;stroke-width:0.5;"/><text fill="#000000" font-family="sans-serif" font-size="13" lengthAdjust="spacing" textLength="46.0522" x="753.2" y="238.6638">Shared</text><text fill="#000000" font-family="sans-serif" font-size="13" lengthAdjust="spacing" textLength="4.1323" x="799.2522" y="238.6638">&#160;</text><text fill="#000000" font-family="sans-serif" font-size="13" lengthAdjust="spacing" textLength="38.4985" x="803.3846" y="238.6638">cache</text><text fill="#000000" font-family="sans-serif" font-size="13" lengthAdjust="spacing" textLength="34.3027" x="764.8829" y="253.7966">(your</text><text fill="#000000" font-family="sans-serif" font-size="13" lengthAdjust="spacing" textLength="4.1323" x="799.1856" y="253.7966">&#160;</text><text fill="#000000" font-family="sans-serif" font-size="13" lengthAdjust="spacing" textLength="26.8823" x="803.3179" y="253.7966">web</text><text fill="#000000" font-family="sans-serif" font-size="13" lengthAdjust="spacing" textLength="76.7813" x="759.1509" y="268.9294">application)</text></g><!--entity Enter the LAN--><g class="entity" data-entity="Enter the LAN" data-source-line="38" data-uid="ent0018" id="entity_Enter the LAN"><ellipse cx="620.7377" cy="221.2984" fill="#F1F1F1" rx="66.4577" ry="15.6915" style="stroke:#181818;stroke-width:0.5;"/><text fill="#000000" font-family="sans-serif" font-size="14" lengthAdjust="spacing" textLength="37.5771" x="572.0863" y="225.9469">Enter</text><text fill="#000000" font-family="sans-serif" font-size="14" lengthAdjust="spacing" textLength="4.4502" x="609.6635" y="225.9469">&#160;</text><text fill="#000000" font-family="sans-serif" font-size="14" lengthAdjust="spacing" textLength="22.9756" x="614.1137" y="225.9469">the</text><text fill="#000000" font-family="sans-serif" font-size="14" lengthAdjust="spacing" textLength="4.4502" x="637.0893" y="225.9469">&#160;</text><text fill="#000000" font-family="sans-serif" font-size="14" lengthAdjust="spacing" textLength="27.8496" x="641.5395" y="225.9469">LAN</text></g><!--link client to Exit the LAN--><g class="link" data-entity-1="client" data-entity-2="Exit the LAN" data-source-line="21" data-uid="lnk9" id="link_client_Exit the LAN"><path d="M102.1,175.1769 C117.35,183.8869 139.28,195.3569 159.81,202.2969 C174.81,207.3669 191.55,211.2069 207.03,214.0569" fill="none" id="client-Exit the LAN" style="stroke:#181818;stroke-width:1;"/></g><!--link GMN10 to forwardProxy--><g class="link" data-entity-1="GMN10" data-entity-2="forwardProxy" data-source-line="25" data-uid="lnk12" id="link_GMN10_forwardProxy"><path d="M262.13,120.8569 C262.13,124.9894 262.13,129.1225 262.13,133.2561 C262.13,135.3229 262.13,137.3898 262.13,139.4568 C262.13,140.4903 262.13,141.5239 262.13,142.5574 C262.13,143.0742 262.13,143.591 262.13,144.1077" fill="none" id="GMN10-forwardProxy" style="stroke:#181818;stroke-width:1;stroke-dasharray:7,7;"/></g><!--link Exit the LAN to internet--><g class="link" data-entity-1="Exit the LAN" data-entity-2="internet" data-source-line="30" data-uid="lnk14" id="link_Exit the LAN_internet"><path d="M324.91,221.2969 C348.46,221.2969 374.75,221.2969 396.08,221.2969" fill="none" id="Exit the LAN-internet" style="stroke:#181818;stroke-width:1;"/></g><!--link internet to Enter the LAN--><g class="link" data-entity-1="internet" data-entity-2="Enter the LAN" data-source-line="38" data-uid="lnk19" id="link_internet_Enter the LAN"><path d="M482.42,221.2969 C503.75,221.2969 530.15,221.2969 554.08,221.2969" fill="none" id="internet-Enter the LAN" style="stroke:#181818;stroke-width:1;"/></g><!--link Enter the LAN to server--><g class="link" data-entity-1="Enter the LAN" data-entity-2="server" data-source-line="39" data-uid="lnk20" id="link_Enter the LAN_server"><path d="M681.66,214.5869 C696.9,211.6369 712.98,207.3869 727.2,201.2969 C746.05,193.2169 764.8,179.6769 778.69,168.2969" fill="none" id="Enter the LAN-server" style="stroke:#181818;stroke-width:1;"/></g><!--link GMN21 to reverseProxy--><g class="link" data-entity-1="GMN21" data-entity-2="reverseProxy" data-source-line="43" data-uid="lnk23" id="link_GMN21_reverseProxy"><path d="M620.74,119.8569 C620.74,123.9894 620.74,128.1225 620.74,132.2561 C620.74,134.3229 620.74,136.3898 620.74,138.4568 C620.74,139.4903 620.74,140.5239 620.74,141.5574 C620.74,142.0742 620.74,142.591 620.74,143.1077" fill="none" id="GMN21-reverseProxy" style="stroke:#181818;stroke-width:1;stroke-dasharray:7,7;"/></g></g></svg>